<?xml version="1.0" encoding="utf-8"?>
<!-- Generator: Adobe Illustrator 24.1.1, SVG Export Plug-In . SVG Version: 6.00 Build 0)  -->
<svg version="1.1" id="图层_1" xmlns="http://www.w3.org/2000/svg" xmlns:xlink="http://www.w3.org/1999/xlink" x="0px" y="0px"
	 viewBox="0 0 635 195.1" style="enable-background:new 0 0 635 195.1;" xml:space="preserve">
<style type="text/css">
	.st0{font-family:'MicrosoftYaHei';}
	.st1{font-size:52.8952px;}
	.st2{font-size:46.7815px;}
	.st3{fill:none;stroke:#000000;stroke-width:8;stroke-miterlimit:10;}
</style>
<g>
	<path d="M190.7,51.3h-34.2V23.6l-75,37.5l74.9,37.5V70.8h37c29.3,0,43.9,12.3,43.9,36.8c0,25.4-15.1,38.1-45.4,38.1h-86.3v19.5H193
		c41.2,0,61.9-18.6,61.9-55.7C254.8,70.7,233.5,51.3,190.7,51.3z"/>
</g>
<text transform="matrix(1 0 0 1 299.2607 97.5708)" class="st0 st1">进入画布</text>
<text transform="matrix(1 0 0 1 301.535 152.9359)" class="st0 st2">go to canvas</text>
<path class="st3" d="M571.4,189H63.7c-24.2,0-43.8-19.6-43.8-43.8V49.9c0-24.2,19.6-43.8,43.8-43.8h507.7
	c24.2,0,43.8,19.6,43.8,43.8v95.4C615.2,169.4,595.6,189,571.4,189z"/>
</svg>
