<?xml version="1.0" encoding="utf-8"?>
<!-- Generator: Adobe Illustrator 25.0.0, SVG Export Plug-In . SVG Version: 6.00 Build 0)  -->
<svg version="1.1" id="图层_1" xmlns="http://www.w3.org/2000/svg" xmlns:xlink="http://www.w3.org/1999/xlink" x="0px" y="0px"
	 viewBox="0 0 595.28 182.92" style="enable-background:new 0 0 595.28 182.92;" xml:space="preserve">
<style type="text/css">
	.st0{fill:#040000;}
	.st1{font-family:'STHeitiSC-Medium';}
	.st2{font-size:52.8952px;}
	.st3{font-family:'BebasKai';}
	.st4{font-size:46.7815px;}
	.st5{fill:none;stroke:#000000;stroke-width:8;stroke-miterlimit:10;}
</style>
<g>
	<path class="st0" d="M170.84,45.21h-34.16V17.46L61.72,54.94l74.95,37.48V64.73h36.99c29.28,0,43.92,12.26,43.92,36.79
		c0,25.38-15.12,38.06-45.38,38.06H85.94v19.52h87.15c41.25,0,61.87-18.58,61.87-55.72C234.95,64.6,213.58,45.21,170.84,45.21z"/>
</g>
<text transform="matrix(1 0 0 1 279.376 91.4606)" class="st1 st2">进入画布</text>
<text transform="matrix(1 0 0 1 281.6504 146.8256)" class="st3 st4">go to canvas</text>
<path class="st5" d="M551.49,182.92H43.78C19.6,182.92,0,163.32,0,139.14V43.78C0,19.6,19.6,0,43.78,0l507.71,0
	c24.18,0,43.78,19.6,43.78,43.78v95.36C595.28,163.32,575.67,182.92,551.49,182.92z"/>
</svg>
