<?xml version="1.0" encoding="utf-8"?>
<!-- Generator: Adobe Illustrator 25.0.0, SVG Export Plug-In . SVG Version: 6.00 Build 0)  -->
<svg version="1.1" id="图层_1" xmlns="http://www.w3.org/2000/svg" xmlns:xlink="http://www.w3.org/1999/xlink" x="0px" y="0px"
	 viewBox="0 0 200 200" style="enable-background:new 0 0 200 200;" xml:space="preserve">
<style type="text/css">
	.st0{fill:#FFFFFF;}
</style>
<path class="st0" d="M124,67.7l-2.3-0.2c-0.4,0-0.8-0.1-1.2-0.1H79.2c-0.4,0-0.8,0-1.2,0.1l-2.3,0.2V35.5c0-9,7.3-16.3,16.3-16.3
	h15.6c9,0,16.3,7.3,16.3,16.3L124,67.7L124,67.7z M79.9,63.3h39.9V35.5c0-6.7-5.4-12.1-12.1-12.1H92.1c-6.7,0-12.1,5.4-12.1,12.1
	C79.9,35.5,79.9,63.3,79.9,63.3z M146.1,169.9H53.6c-9,0-16.3-7.3-16.3-16.3v-0.3l12.8-44.1c0.2-8.6,8.4-16,17.7-16h64
	c9.3,0,17.5,7.4,17.7,16l12.8,44.1v0.3C162.4,162.5,155.1,169.9,146.1,169.9L146.1,169.9z M41.5,153.8c0.2,6.6,5.5,11.9,12.1,11.9
	h92.5c6.6,0,12-5.3,12.1-11.9l-12.8-44.1v-0.3c0-7-7.2-12.1-13.6-12.1h-64c-6.4,0-13.6,5.2-13.6,12.1v0.3
	C54.3,109.7,41.5,153.8,41.5,153.8z"/>
<path class="st0" d="M136.8,98l-2.5-0.5c-0.8-0.2-1.7-0.2-2.4-0.2h-64c-0.8,0-1.6,0.1-2.5,0.2L62.9,98V79.6c0-9,7.3-16.3,16.3-16.3
	h41.2c9,0,16.3,7.3,16.3,16.3V98L136.8,98z M79.2,67.4c-6.7,0-12.1,5.4-12.1,12.1v13.6c0.3,0,0.5,0,0.8,0h64c0.3,0,0.5,0,0.8,0V79.6
	c0-6.7-5.4-12.1-12.1-12.1C120.5,67.4,79.2,67.4,79.2,67.4z M131.9,147.1l4-1.3l6.4,20.2l-4,1.3L131.9,147.1z M116.2,147.1l4-1.3
	l6.4,20.2l-4,1.3L116.2,147.1z M58.8,165.9l6.3-20.1l4,1.2l-6.3,20.1L58.8,165.9z M74.1,165.9l6.3-20.1l4,1.2l-6.3,20.1L74.1,165.9z
	"/>
</svg>
