<?xml version="1.0" encoding="utf-8"?>
<!-- Generator: Adobe Illustrator 25.0.0, SVG Export Plug-In . SVG Version: 6.00 Build 0)  -->
<svg version="1.1" id="图层_1" xmlns="http://www.w3.org/2000/svg" xmlns:xlink="http://www.w3.org/1999/xlink" x="0px" y="0px"
	 viewBox="0 0 200 200" style="enable-background:new 0 0 200 200;" xml:space="preserve">
<style type="text/css">
	.st0{fill:#FFFFFF;}
</style>
<path class="st0" d="M39.9,102.5c-2.8,0.3-5.1,2.6-5.4,5.4c-0.4,3.9,2.9,7.2,6.8,6.8c2.8-0.3,5.1-2.6,5.4-5.4
	C47.1,105.4,43.8,102.1,39.9,102.5z M51.8,92.5c4.3-0.4,7.7-3.8,8.1-8.1c0.5-5.6-4.1-10.2-9.7-9.7c-4.3,0.4-7.7,3.8-8.1,8.1
	C41.6,88.4,46.3,93,51.8,92.5z M81.2,52.1c-5.6,0.4-10.1,4.9-10.4,10.4c-0.4,6.7,5.2,12.3,11.9,11.9c5.6-0.4,10.1-4.9,10.4-10.4
	C93.5,57.3,87.9,51.7,81.2,52.1z M121.5,49.6c-6.9,0.4-12.4,6-12.8,12.8c-0.5,8.3,6.3,15.2,14.6,14.6c6.9-0.4,12.4-6,12.8-12.8
	C136.6,55.9,129.8,49,121.5,49.6z M188.8,54c-0.1-1.5-0.8-2.9-1.9-3.8l-0.1-0.1c-1-0.9-2.3-1.4-3.7-1.4c-1.6,0-3.2,0.7-4.2,1.9
	l-66.7,76.8l-8.5,16.7l0.2,0.2l-1,2.2l2.2-1.2l0.3,0.3l15.2-10.6l66.9-77C188.4,56.9,188.9,55.5,188.8,54L188.8,54z"/>
<path class="st0" d="M175.4,93c-2.7-0.3-5.2,1.4-5.9,4c-1.3,4.8-3.8,12.6-6.9,19.1c-4.5,9.4-12.7,22.5-26.5,31.5
	c-14.1,9.2-27.9,11.1-37,11.1c-7.2,0-14.1-1.2-19.9-3.5c-5.3-2.1-9.1-4.8-10.7-7.8c-0.7-1.2-1.4-2.5-2.2-3.9
	c-3.4-6.1-7.1-13-9.7-15.1c-3.1-2.6-7.6-2.9-11.7-2.9c-1.6,0-8,0.3-9.5,0.3c-6.5,0-9.6-1.3-11-4.4c-3.5-8.3-1.4-22.3,5.2-35.8
	c10.3-20.9,28.8-36.1,50.8-41.8c7.8-2.1,15.9-3.7,23.7-3.7c16.7,0,36.7,6.4,49.3,15.1c2.2,1.5,5.3,1.1,7-1c2-2.5,1.4-6.1-1.3-7.8
	c-4.6-2.7-11.3-6.6-16.9-9.2c-11.8-5.4-24.2-8.2-37-8.2c-13.3,0-29.1,3.2-42.4,9.2c-15.3,6.8-26.4,16.6-35,28.8
	c-7.1,10-13.2,21.7-15.6,32.9c-1.5,6.9-1.3,11.2-0.5,17.1c0.8,5.7,2.6,10.3,5.3,13.2c4.4,4.9,10.1,7.3,17.4,7.3c2.7,0,11-1,12.3-1
	c1.4,0,2.4,0.2,2.8,0.7c1.2,1.4,2.8,4.4,4.6,7.8c1.5,2.8,3.1,5.9,5,8.8c2.4,3.8,7.2,7.9,13,10.9c5.3,2.8,14,6.1,25.8,6.1
	c14.1,0,29-4.6,44.3-13.7c14.6-8.7,24-23.2,29.3-33.9c3.7-7.5,6.8-17,8.6-23.3C181.1,96.8,178.8,93.4,175.4,93L175.4,93z"/>
</svg>
