<?xml version="1.0" encoding="utf-8"?>
<!-- Generator: Adobe Illustrator 25.0.0, SVG Export Plug-In . SVG Version: 6.00 Build 0)  -->
<svg version="1.1" id="图层_1" xmlns="http://www.w3.org/2000/svg" xmlns:xlink="http://www.w3.org/1999/xlink" x="0px" y="0px"
	 viewBox="0 0 200 200" style="enable-background:new 0 0 200 200;" xml:space="preserve">
<style type="text/css">
	.st0{fill:#FFFFFF;}
</style>
<path class="st0" d="M104.1,158.2c-0.5,0-1-0.2-1.3-0.5L44.2,99.1c-0.7-0.7-0.7-1.9,0-2.7c0.7-0.7,1.9-0.7,2.7,0l58.6,58.6
	c0.7,0.7,0.7,1.9,0,2.7C105.1,158,104.6,158.2,104.1,158.2L104.1,158.2z M156,106.3c-0.5,0-1-0.2-1.3-0.5L96.1,47.2
	c-0.7-0.7-0.7-1.9,0-2.7c0.7-0.7,1.9-0.7,2.7,0l58.6,58.6c0.7,0.7,0.7,1.9,0,2.7C157,106.2,156.5,106.3,156,106.3L156,106.3z"/>
<path class="st0" d="M77.6,177.3c-7.7,0-15.4-2.9-21.3-8.8L23,135.2c-5.1-5.1-5.1-13.5,0-18.6l90.5-90.5c5.1-5.1,13.5-5.1,18.6,0
	l45.3,45.3c5.1,5.1,5.1,13.5,0,18.6l-78.5,78.5C93,174.4,85.3,177.3,77.6,177.3L77.6,177.3z M122.8,29.7c-1.4,0-2.9,0.5-4,1.7
	l-90.5,90.5c-1.1,1.1-1.7,2.5-1.7,4s0.6,2.9,1.7,4l33.3,33.3c8.8,8.8,23.1,8.8,32,0l78.5-78.5c2.2-2.2,2.2-5.8,0-8l-45.3-45.3
	C125.7,30.3,124.3,29.7,122.8,29.7L122.8,29.7z"/>
</svg>
