<?xml version="1.0" encoding="utf-8"?>
<!-- Generator: Adobe Illustrator 24.1.1, SVG Export Plug-In . SVG Version: 6.00 Build 0)  -->
<svg version="1.1" id="图层_1" xmlns="http://www.w3.org/2000/svg" xmlns:xlink="http://www.w3.org/1999/xlink" x="0px" y="0px"
	 viewBox="0 0 200 200" style="enable-background:new 0 0 200 200;" xml:space="preserve">
<path d="M176.4,61c-1.3-1.3-3.4-1.3-4.7,0l-90.5,90.5L77,138.7l15.5-15.5c1.3-1.3,1.3-3.4,0-4.7c-1.3-1.3-3.4-1.3-4.7,0L72,134.3
	c-0.2,0.2-0.4,0.5-0.5,0.7l-7.7-1.9l-1.9-7.6c0.3-0.2,0.5-0.3,0.7-0.5l54.5-54.5c1.3-1.3,1.3-3.4,0-4.7c-1.3-1.3-3.4-1.3-4.7,0
	L58.3,120l-12.9-4.3l90.5-90.5c1.3-1.3,1.3-3.4,0-4.7c-1.3-1.3-3.4-1.3-4.7,0L37.7,114c-0.1,0.1-0.3,0.3-0.4,0.4
	c-0.6,0.4-1.1,1.1-1.3,1.9l-13.2,53.8c-0.1,0.3-0.1,0.6-0.1,0.8c0,0.8,0.4,1.7,1,2.3c0.5,0.5,1.1,0.8,1.7,0.9c0.2,0,0.4,0.1,0.6,0.1
	c0.3,0,0.5,0,0.8-0.1l24-5.9l29.7-7.3c0.8-0.2,1.4-0.6,1.9-1.3c0.2-0.1,0.3-0.2,0.4-0.4l93.5-93.5C177.7,64.4,177.7,62.3,176.4,61
	L176.4,61z M30.6,166.4l3.2-13l9.8,9.8L30.6,166.4z M51.1,161.3l-15.5-15.5l6-24.5l13.6,4.5l2.7,10.7c0.3,1.2,1.2,2.1,2.4,2.4
	l10.7,2.7l4.5,13.6L51.1,161.3z"/>
<path d="M104.4,106.6c0.6,0.6,1.5,1,2.3,1c0.9,0,1.7-0.3,2.3-1l45.5-45.5c1.3-1.3,1.3-3.4,0-4.7s-3.4-1.3-4.7,0l-45.5,45.5
	C103.1,103.2,103.1,105.3,104.4,106.6z"/>
</svg>
