<svg id="图层_1" data-name="图层 1" xmlns="http://www.w3.org/2000/svg" xmlns:xlink="http://www.w3.org/1999/xlink" viewBox="0 0 470.45 436.9"><defs><style>.cls-1{fill:none;}.cls-2{fill:#fff;}.cls-3,.cls-4,.cls-5{fill:#231815;}.cls-4{font-size:31.57px;}.cls-4,.cls-5{font-family:STHeiti;}.cls-5{font-size:72.25px;}.cls-6{clip-path:url(#clip-path);}</style><clipPath id="clip-path"><rect class="cls-1" x="32.02" y="324.64" width="88.41" height="88.41"/></clipPath></defs><path d="M165.83,181.29v9.42l3.19,3-.6.85h-5.36v-8l-.77.32a22.35,22.35,0,0,0-2.38-2.65c-.6-.5-2-1.09-2.19-.87-1.32,1.41-2.41,3-3.59,4.57a3.61,3.61,0,0,1-.84,1c-2.53,1.52-2.49,1.43,0,3.12.59.38.7,1.47,1.18,2.56h-6v-10l-14.41-14.21V154.57c2.53-.16,2.53-.16,2.86,4.15l6.9,6.92h3.56l8-8.52h3.34l4.1-4.28V135.08l4.33-3.92H188l3.64,4.15v13.07c-4.06,0-8.11-.1-12.15.08-.85,0-1.64,1.1-2.46,1.7l.58,1h7.95c.83,2.09.49,3.05-1.79,3-3-.09-6,0-9.15,0v5.63H180v6.71l-4.65-3.87c-2.63,3,1.87,7.74-3.73,9.44v4.16Z"/><path d="M54.21,79.61c-5.78,0-11.56,0-17.34,0-4.94,0-7.89-3-7.9-8q0-17.34,0-34.68c0-5,3-8,7.88-8q17.52,0,35,0c4.65,0,7.7,3.09,7.71,7.78q0,17.52,0,35c0,4.86-3.06,7.79-8,7.81C65.77,79.63,60,79.61,54.21,79.61Zm.24-7.22c3.37,0,6.74,0,10.11,0,4.72,0,7.79-3,7.82-7.69q.08-10.48,0-21a7.26,7.26,0,0,0-7.59-7.54q-10.49-.09-21,0a7.27,7.27,0,0,0-7.63,7.5q-.09,10.65,0,21.31a7.29,7.29,0,0,0,7.41,7.37C47.22,72.45,50.83,72.39,54.45,72.39Z"/><path d="M296.76,54.29c0,5.78,0,11.56,0,17.34,0,5-3,8-7.89,8q-17.52,0-35,0c-4.66,0-7.69-3.1-7.7-7.79q-.06-17.52,0-35c0-4.7,3.05-7.78,7.7-7.79q17.7-.06,35.4,0c4.45,0,7.48,3.12,7.52,7.61C296.8,42.49,296.76,48.39,296.76,54.29ZM253.33,54c0,3.49,0,7,0,10.48,0,5,3,7.93,7.92,8,6.86,0,13.73,0,20.59,0,4.65,0,7.66-3.11,7.69-7.82q0-10.29,0-20.59c0-4.67-3.08-7.75-7.73-7.78q-10.29-.06-20.59,0c-4.9,0-7.84,3-7.87,8C253.31,47.45,253.33,50.7,253.33,54Z"/><path d="M79.61,271.76c0,5.54,0,11.08,0,16.62s-2.86,8.37-8.21,8.38q-17.16,0-34.32,0c-5.21,0-8.1-2.9-8.11-8.12q0-17.16,0-34.32c0-5.36,2.92-8.2,8.39-8.2h34c5.45,0,8.28,2.85,8.3,8.3C79.62,260.2,79.61,266,79.61,271.76ZM54,289.54c3.61,0,7.22,0,10.84,0a7.28,7.28,0,0,0,7.53-7.6q.08-10.49,0-21a7.27,7.27,0,0,0-7.51-7.62q-10.67-.09-21.32,0a7.26,7.26,0,0,0-7.35,7.42q-.09,10.67,0,21.32c0,4.4,3.18,7.39,7.69,7.45C47.26,289.58,50.63,289.54,54,289.54Z"/><path d="M188.94,32.52c-2.15,1.43-3.38,2.88-4.38,2.74a4.16,4.16,0,0,1-2.66-2.86c-.13-.72,1.6-2.48,2.55-2.52C185.57,29.83,186.74,31.14,188.94,32.52Z"/><path d="M196.18,32.61c-2.19,1.39-3.36,2.7-4.47,2.66s-2.7-1.79-2.57-2.51a4.15,4.15,0,0,1,2.64-2.87C192.78,29.74,194,31.19,196.18,32.61Z"/><path d="M206.28,36.94c-1.4-2.19-2.83-3.44-2.67-4.44a4.15,4.15,0,0,1,2.91-2.61c.72-.12,2.44,1.65,2.47,2.61S207.69,34.77,206.28,36.94Z"/><path d="M213.61,36.94c-1.44-2.15-2.9-3.37-2.76-4.37a4.16,4.16,0,0,1,2.84-2.68c.72-.13,2.49,1.59,2.54,2.54C216.28,33.55,215,34.73,213.61,36.94Z"/><path d="M225.14,32.79c-2.27,1.3-3.6,2.68-4.58,2.47a4.17,4.17,0,0,1-2.46-3.06c-.08-.71,1.78-2.35,2.74-2.32C222,29.91,223.06,31.29,225.14,32.79Z"/><path d="M235.09,28.21c1.48,2.12,3,3.31,2.84,4.31a4.13,4.13,0,0,1-2.78,2.73c-.73.15-2.53-1.53-2.6-2.48C232.48,31.65,233.76,30.45,235.09,28.21Z"/><path d="M174.47,32.8c-2.27,1.3-3.6,2.67-4.59,2.46a4.18,4.18,0,0,1-2.45-3.06c-.08-.72,1.78-2.34,2.75-2.32S172.37,31.28,174.47,32.8Z"/><path d="M162.8,28.21c1.44,2.15,2.89,3.38,2.75,4.38a4.16,4.16,0,0,1-2.86,2.66c-.72.13-2.49-1.61-2.52-2.55C160.13,31.56,161.44,30.39,162.8,28.21Z"/><path d="M102.08,39.91c-2.21,1.36-3.5,2.77-4.49,2.58a4.15,4.15,0,0,1-2.55-3c-.1-.72,1.71-2.42,2.67-2.41C98.84,37.12,100,38.47,102.08,39.91Z"/><path d="M116.56,39.91c-2.22,1.36-3.5,2.77-4.5,2.58a4.12,4.12,0,0,1-2.54-3c-.11-.72,1.71-2.42,2.66-2.41C113.31,37.12,114.44,38.47,116.56,39.91Z"/><path d="M126.8,35.45c1.35,2.22,2.75,3.52,2.56,4.51a4.19,4.19,0,0,1-3,2.53c-.71.1-2.38-1.73-2.38-2.69S125.34,37.57,126.8,35.45Z"/><path d="M138.27,39.75c-2.15,1.44-3.38,2.89-4.38,2.74a4.15,4.15,0,0,1-2.66-2.85c-.13-.72,1.6-2.48,2.56-2.52C134.9,37.07,136.07,38.38,138.27,39.75Z"/><path d="M160,39.83c-2.18,1.39-3.44,2.83-4.43,2.66a4.14,4.14,0,0,1-2.61-2.9c-.12-.72,1.64-2.45,2.6-2.47S157.82,38.41,160,39.83Z"/><path d="M181.71,39.65c-2.12,1.48-3.32,3-4.32,2.84a4.11,4.11,0,0,1-2.73-2.78c-.15-.72,1.54-2.54,2.48-2.59C178.28,37.05,179.49,38.34,181.71,39.65Z"/><path d="M184.62,35.45c1.38,2.19,2.7,3.36,2.65,4.47s-1.78,2.7-2.51,2.57a4.12,4.12,0,0,1-2.86-2.64C181.76,38.82,183.21,37.59,184.62,35.45Z"/><path d="M196.18,39.63c-2.11,1.49-3.3,3-4.3,2.86a4.11,4.11,0,0,1-2.74-2.77c-.16-.72,1.53-2.55,2.47-2.6C192.74,37.05,194,38.33,196.18,39.63Z"/><path d="M213.47,35.45c1.44,2.15,2.89,3.38,2.75,4.38a4.18,4.18,0,0,1-2.86,2.66c-.72.13-2.48-1.6-2.52-2.55C210.79,38.82,212.1,37.65,213.47,35.45Z"/><path d="M232.37,39.83c-2.18,1.39-3.43,2.83-4.43,2.66a4.16,4.16,0,0,1-2.61-2.9c-.12-.72,1.66-2.46,2.6-2.47C229.07,37.1,230.22,38.43,232.37,39.83Z"/><path d="M155.71,36.94c-1.45-2.15-2.91-3.37-2.77-4.37a4.16,4.16,0,0,1,2.84-2.68c.72-.13,2.49,1.59,2.54,2.54C158.38,33.55,157.07,34.73,155.71,36.94Z"/><path d="M148.56,36.94c-1.49-2.11-3-3.3-2.86-4.3a4.18,4.18,0,0,1,2.78-2.75c.72-.15,2.53,1.53,2.6,2.47C151.16,33.48,149.88,34.69,148.56,36.94Z"/><path d="M109.32,47.15c-2.22,1.36-3.5,2.77-4.5,2.58a4.16,4.16,0,0,1-2.54-3c-.11-.72,1.71-2.4,2.67-2.41S107.18,45.7,109.32,47.15Z"/><path d="M116.56,46.89c-2.12,1.48-3.31,3-4.31,2.84A4.15,4.15,0,0,1,109.51,47c-.14-.73,1.55-2.54,2.49-2.59C113.13,44.29,114.34,45.57,116.56,46.89Z"/><path d="M123.8,46.87c-2.11,1.49-3.3,3-4.3,2.86A4.15,4.15,0,0,1,116.75,47c-.15-.72,1.53-2.55,2.47-2.6C120.36,44.29,121.57,45.57,123.8,46.87Z"/><path d="M174.46,47.15c-2.21,1.36-3.5,2.77-4.49,2.58a4.15,4.15,0,0,1-2.55-3c-.1-.72,1.71-2.41,2.67-2.42S172.33,45.7,174.46,47.15Z"/><path d="M181.71,47.19c-2.23,1.34-3.53,2.74-4.52,2.54a4.17,4.17,0,0,1-2.53-3c-.1-.72,1.74-2.39,2.69-2.39C178.48,44.37,179.6,45.73,181.71,47.19Z"/><path d="M192,51.41c-1.49-2.11-3-3.29-2.86-4.3a4.17,4.17,0,0,1,2.78-2.74c.72-.15,2.53,1.52,2.6,2.47C194.59,48,193.31,49.17,192,51.41Z"/><path d="M199,42.68c1.43,2.16,2.88,3.39,2.74,4.39a4.16,4.16,0,0,1-2.86,2.66c-.72.13-2.49-1.61-2.52-2.55C196.33,46,197.63,44.86,199,42.68Z"/><path d="M90.37,58.65c-1.35-2.22-2.76-3.5-2.57-4.5a4.18,4.18,0,0,1,3-2.54c.72-.1,2.4,1.71,2.4,2.67S91.83,56.51,90.37,58.65Z"/><path d="M97.7,58.65c-1.39-2.18-2.83-3.44-2.67-4.43a4.19,4.19,0,0,1,2.91-2.61c.72-.12,2.46,1.66,2.47,2.6C100.43,55.35,99.1,56.5,97.7,58.65Z"/><path d="M131,54.39c-2.21,1.36-3.5,2.77-4.49,2.58A4.19,4.19,0,0,1,124,54c-.1-.72,1.71-2.4,2.67-2.41C127.77,51.58,128.9,52.94,131,54.39Z"/><path d="M133.9,58.65c-1.4-2.18-2.84-3.44-2.67-4.43a4.16,4.16,0,0,1,2.9-2.61c.72-.12,2.46,1.66,2.47,2.6C136.62,55.35,135.29,56.5,133.9,58.65Z"/><path d="M145.51,54.23c-2.15,1.43-3.38,2.89-4.38,2.74a4.15,4.15,0,0,1-2.66-2.85c-.13-.73,1.6-2.48,2.55-2.53C142.14,51.54,143.31,52.85,145.51,54.23Z"/><path d="M152.75,54.39c-2.22,1.36-3.5,2.77-4.49,2.58a4.19,4.19,0,0,1-2.55-3c-.11-.72,1.7-2.4,2.67-2.41S150.61,52.94,152.75,54.39Z"/><path d="M155.52,58.65c-1.35-2.22-2.76-3.5-2.58-4.5a4.2,4.2,0,0,1,3-2.54c.72-.1,2.4,1.71,2.41,2.67S157,56.51,155.52,58.65Z"/><path d="M162.85,58.65c-1.4-2.18-2.83-3.44-2.67-4.43a4.13,4.13,0,0,1,2.91-2.61c.72-.12,2.45,1.66,2.47,2.6C165.58,55.35,164.25,56.5,162.85,58.65Z"/><path d="M174.47,54.51c-2.27,1.3-3.6,2.67-4.58,2.46a4.18,4.18,0,0,1-2.46-3c-.08-.72,1.78-2.35,2.75-2.33S172.37,53,174.47,54.51Z"/><path d="M177.18,49.92c1.48,2.12,3,3.31,2.84,4.32A4.13,4.13,0,0,1,177.24,57c-.72.15-2.54-1.55-2.59-2.48C174.58,53.35,175.86,52.14,177.18,49.92Z"/><path d="M191.76,49.92c1.43,2.16,2.88,3.39,2.74,4.39A4.17,4.17,0,0,1,191.65,57c-.72.13-2.5-1.61-2.53-2.55C189.09,53.28,190.4,52.1,191.76,49.92Z"/><path d="M199.14,58.65c-1.45-2.14-2.91-3.36-2.77-4.36a4.14,4.14,0,0,1,2.84-2.68c.72-.14,2.49,1.58,2.54,2.54S200.5,56.44,199.14,58.65Z"/><path d="M213.33,58.65c-1.31-2.25-2.69-3.57-2.48-4.56a4.16,4.16,0,0,1,3-2.47c.71-.09,2.36,1.77,2.34,2.72C216.2,55.47,214.82,56.57,213.33,58.65Z"/><path d="M225.13,54.21c-2.14,1.44-3.36,2.9-4.36,2.76a4.16,4.16,0,0,1-2.68-2.84c-.13-.72,1.59-2.49,2.54-2.54C221.74,51.54,222.93,52.84,225.13,54.21Z"/><path d="M239.61,54.42c-2.23,1.34-3.53,2.74-4.52,2.55a4.16,4.16,0,0,1-2.52-3c-.1-.72,1.73-2.39,2.69-2.39C236.37,51.59,237.49,53,239.61,54.42Z"/><path d="M94.84,61.66c-2.22,1.34-3.52,2.74-4.51,2.55a4.17,4.17,0,0,1-2.53-3c-.1-.72,1.73-2.39,2.69-2.39C91.6,58.83,92.72,60.19,94.84,61.66Z"/><path d="M97.9,65.89c-1.49-2.11-3-3.29-2.86-4.3a4.12,4.12,0,0,1,2.76-2.74c.73-.16,2.55,1.53,2.61,2.46C100.48,62.45,99.2,63.67,97.9,65.89Z"/><path d="M112.18,65.89c-1.4-2.18-2.83-3.44-2.67-4.43a4.17,4.17,0,0,1,2.91-2.61c.72-.12,2.45,1.66,2.47,2.6C114.91,62.59,113.58,63.74,112.18,65.89Z"/><path d="M123.8,61.47c-2.16,1.43-3.39,2.88-4.39,2.74a4.16,4.16,0,0,1-2.66-2.86c-.13-.72,1.61-2.48,2.56-2.52C120.42,58.78,121.6,60.09,123.8,61.47Z"/><path d="M133.81,65.89c-1.36-2.22-2.77-3.51-2.58-4.5a4.16,4.16,0,0,1,3-2.54c.72-.11,2.4,1.71,2.41,2.67S135.26,63.75,133.81,65.89Z"/><path d="M167.23,61.47c-2.16,1.43-3.39,2.88-4.39,2.74a4.16,4.16,0,0,1-2.66-2.86c-.13-.72,1.61-2.48,2.56-2.52C163.85,58.78,165,60.09,167.23,61.47Z"/><path d="M174.47,61.35c-2.11,1.49-3.3,3-4.3,2.86a4.15,4.15,0,0,1-2.75-2.77c-.15-.72,1.52-2.54,2.47-2.61C171,58.75,172.22,60,174.47,61.35Z"/><path d="M177.28,57.16c1.43,2.16,2.89,3.38,2.74,4.38a4.14,4.14,0,0,1-2.85,2.67c-.72.13-2.48-1.6-2.52-2.56S175.9,59.36,177.28,57.16Z"/><path d="M188.94,61.47c-2.15,1.43-3.38,2.88-4.38,2.74a4.17,4.17,0,0,1-2.66-2.85c-.13-.73,1.61-2.5,2.55-2.53C185.59,58.8,186.77,60.1,188.94,61.47Z"/><path d="M206.28,65.89c-1.4-2.18-2.83-3.44-2.67-4.43a4.13,4.13,0,0,1,2.91-2.61c.72-.12,2.45,1.65,2.47,2.6C209,62.58,207.68,63.74,206.28,65.89Z"/><path d="M217.9,61.56c-2.2,1.39-3.37,2.71-4.48,2.66-.95,0-2.69-1.79-2.57-2.51a4.18,4.18,0,0,1,2.65-2.87C214.5,58.69,215.73,60.14,217.9,61.56Z"/><path d="M220.57,65.89c-1.31-2.25-2.69-3.57-2.48-4.56a4.17,4.17,0,0,1,3-2.48c.72-.08,2.37,1.78,2.35,2.73C223.44,62.71,222.06,63.8,220.57,65.89Z"/><path d="M228.14,57.16c1.35,2.23,2.75,3.53,2.55,4.52a4.16,4.16,0,0,1-3,2.52c-.72.1-2.38-1.72-2.39-2.69S226.67,59.29,228.14,57.16Z"/><path d="M235.43,65.89c-1.5-2.11-3-3.29-2.87-4.3a4.15,4.15,0,0,1,2.77-2.74c.73-.16,2.54,1.52,2.61,2.47C238,62.43,236.75,63.65,235.43,65.89Z"/><path d="M90.61,64.4c1.34,2.23,2.75,3.53,2.55,4.52a4.14,4.14,0,0,1-3,2.52c-.71.1-2.38-1.72-2.39-2.69S89.14,66.53,90.61,64.4Z"/><path d="M102.08,68.61c-2.11,1.48-3.31,3-4.31,2.84A4.15,4.15,0,0,1,95,68.66c-.15-.72,1.53-2.52,2.48-2.59C98.64,66,99.85,67.28,102.08,68.61Z"/><path d="M116.56,68.78c-2.18,1.4-3.44,2.83-4.44,2.67a4.18,4.18,0,0,1-2.6-2.91c-.12-.72,1.65-2.45,2.6-2.47C113.26,66.05,114.41,67.38,116.56,68.78Z"/><path d="M115.07,68.54c2.26-1.3,3.59-2.67,4.58-2.46a4.17,4.17,0,0,1,2.45,3c.09.72-1.77,2.35-2.74,2.33S117.16,70.05,115.07,68.54Z"/><path d="M131,68.71c-2.16,1.43-3.39,2.88-4.39,2.74A4.18,4.18,0,0,1,124,68.59c-.13-.72,1.6-2.48,2.56-2.52C127.66,66,128.84,67.33,131,68.71Z"/><path d="M138.28,68.59c-2.11,1.49-3.3,3-4.3,2.86a4.15,4.15,0,0,1-2.75-2.77c-.15-.73,1.52-2.54,2.47-2.61C134.81,66,136,67.27,138.28,68.59Z"/><path d="M152.75,68.87c-2.22,1.35-3.5,2.76-4.49,2.58a4.19,4.19,0,0,1-2.55-3c-.11-.72,1.7-2.4,2.67-2.41S150.61,67.41,152.75,68.87Z"/><path d="M167.23,68.59c-2.11,1.49-3.3,3-4.3,2.86a4.17,4.17,0,0,1-2.75-2.77c-.15-.73,1.53-2.54,2.48-2.61C163.77,66,165,67.27,167.23,68.59Z"/><path d="M170.09,73.13c-1.4-2.18-2.83-3.44-2.67-4.43a4.14,4.14,0,0,1,2.9-2.61c.72-.12,2.46,1.65,2.48,2.6C172.81,69.82,171.48,71,170.09,73.13Z"/><path d="M184.8,64.4c1.3,2.26,2.68,3.59,2.46,4.58a4.18,4.18,0,0,1-3,2.46c-.72.08-2.34-1.78-2.33-2.75S183.29,66.49,184.8,64.4Z"/><path d="M196.18,68.78c-2.18,1.4-3.44,2.83-4.43,2.67a4.17,4.17,0,0,1-2.61-2.91c-.12-.72,1.65-2.44,2.61-2.47C192.86,66,194,67.37,196.18,68.78Z"/><path d="M217.9,69c-2.26,1.29-3.59,2.67-4.58,2.46a4.18,4.18,0,0,1-2.46-3c-.08-.72,1.79-2.36,2.74-2.33C214.73,66.1,215.82,67.48,217.9,69Z"/><path d="M225.13,68.87c-2.21,1.35-3.5,2.76-4.49,2.58a4.19,4.19,0,0,1-2.55-3c-.1-.72,1.71-2.4,2.67-2.41C221.87,66.06,223,67.41,225.13,68.87Z"/><path d="M228.19,73.13c-1.49-2.11-3-3.3-2.86-4.3a4.15,4.15,0,0,1,2.76-2.75c.73-.15,2.54,1.53,2.61,2.47C230.78,69.67,229.51,70.88,228.19,73.13Z"/><path d="M235.42,73.13c-1.49-2.11-3-3.3-2.86-4.3a4.18,4.18,0,0,1,2.78-2.75c.72-.15,2.53,1.53,2.6,2.48C238,69.67,236.74,70.88,235.42,73.13Z"/><path d="M90.46,80.37c-1.39-2.19-2.83-3.44-2.66-4.44a4.16,4.16,0,0,1,2.9-2.61c.72-.11,2.45,1.65,2.47,2.61S91.88,78.2,90.46,80.37Z"/><path d="M105.13,80.37c-1.49-2.11-3-3.3-2.86-4.3A4.17,4.17,0,0,1,105,73.32c.73-.15,2.55,1.53,2.61,2.47C107.72,76.93,106.44,78.14,105.13,80.37Z"/><path d="M119.66,71.64c1.29,2.26,2.67,3.59,2.46,4.58a4.18,4.18,0,0,1-3.06,2.45c-.71.09-2.34-1.77-2.32-2.74S118.14,73.73,119.66,71.64Z"/><path d="M138.27,76.14c-2.22,1.34-3.52,2.74-4.51,2.55a4.19,4.19,0,0,1-2.53-3c-.1-.72,1.73-2.4,2.69-2.39C135.05,73.32,136.17,74.68,138.27,76.14Z"/><path d="M152.75,75.83c-2.11,1.49-3.3,3-4.3,2.86a4.15,4.15,0,0,1-2.74-2.78c-.16-.72,1.52-2.53,2.47-2.6C149.29,73.23,150.51,74.51,152.75,75.83Z"/><path d="M167.23,76.11c-2.22,1.35-3.51,2.76-4.5,2.58a4.15,4.15,0,0,1-2.54-3c-.11-.72,1.7-2.4,2.67-2.41S165.09,74.65,167.23,76.11Z"/><path d="M177.33,80.36c-1.4-2.18-2.83-3.43-2.67-4.43a4.16,4.16,0,0,1,2.9-2.61c.72-.12,2.46,1.66,2.47,2.61C180.05,77.06,178.72,78.22,177.33,80.36Z"/><path d="M196.18,76c-2.19,1.39-3.36,2.7-4.47,2.66s-2.7-1.79-2.57-2.51a4.15,4.15,0,0,1,2.64-2.87C192.78,73.17,194,74.62,196.18,76Z"/><path d="M201.93,75.78c2.26-1.3,3.59-2.67,4.58-2.46A4.2,4.2,0,0,1,209,76.37c.08.72-1.79,2.35-2.75,2.33C205.1,78.67,204,77.28,201.93,75.78Z"/><path d="M225.13,75.83c-2.11,1.49-3.29,3-4.29,2.86a4.18,4.18,0,0,1-2.75-2.78c-.15-.72,1.52-2.53,2.47-2.6C221.68,73.23,222.89,74.51,225.13,75.83Z"/><path d="M235.09,71.64c1.48,2.12,3,3.31,2.84,4.31a4.13,4.13,0,0,1-2.78,2.73c-.73.15-2.54-1.54-2.6-2.48C232.49,75.07,233.77,73.86,235.09,71.64Z"/><path d="M94.84,83.38c-2.23,1.34-3.52,2.74-4.52,2.55a4.2,4.2,0,0,1-2.52-3c-.1-.72,1.73-2.38,2.69-2.38C91.6,80.54,92.72,81.91,94.84,83.38Z"/><path d="M112,87.6c-1.3-2.25-2.69-3.57-2.48-4.56a4.18,4.18,0,0,1,3-2.47c.72-.09,2.36,1.77,2.34,2.73C114.86,84.42,113.48,85.52,112,87.6Z"/><path d="M123.8,83.28c-2.19,1.39-3.36,2.7-4.48,2.66-.95,0-2.69-1.79-2.57-2.51a4.18,4.18,0,0,1,2.65-2.87C120.4,80.41,121.63,81.86,123.8,83.28Z"/><path d="M138.27,83.07c-2.11,1.48-3.29,3-4.3,2.85a4.13,4.13,0,0,1-2.74-2.77c-.15-.72,1.52-2.53,2.47-2.6C134.82,80.47,136,81.75,138.27,83.07Z"/><path d="M160,83.34c-2.22,1.36-3.5,2.77-4.5,2.59A4.17,4.17,0,0,1,153,83c-.11-.72,1.7-2.4,2.66-2.41C156.73,80.54,157.85,81.89,160,83.34Z"/><path d="M163,78.88c1.34,2.23,2.74,3.53,2.55,4.52a4.2,4.2,0,0,1-3,2.52c-.72.1-2.39-1.73-2.39-2.69C160.17,82.12,161.53,81,163,78.88Z"/><path d="M196.18,83.38c-2.23,1.34-3.53,2.74-4.52,2.55a4.18,4.18,0,0,1-2.52-3c-.1-.72,1.73-2.38,2.69-2.38S194.06,81.91,196.18,83.38Z"/><path d="M203.42,83.16c-2.15,1.44-3.37,2.9-4.37,2.76a4.13,4.13,0,0,1-2.67-2.83c-.14-.73,1.58-2.49,2.53-2.54C200,80.49,201.21,81.79,203.42,83.16Z"/><path d="M206.28,87.6c-1.4-2.18-2.83-3.43-2.67-4.43a4.15,4.15,0,0,1,2.91-2.61c.72-.12,2.44,1.65,2.47,2.61S207.69,85.43,206.28,87.6Z"/><path d="M225.13,83.26c-2.18,1.4-3.43,2.83-4.43,2.66a4.16,4.16,0,0,1-2.61-2.9c-.12-.72,1.65-2.45,2.61-2.47C221.81,80.51,223,81.84,225.13,83.26Z"/><path d="M228.19,87.61c-1.49-2.11-3-3.3-2.86-4.3a4.15,4.15,0,0,1,2.76-2.75c.73-.15,2.54,1.52,2.61,2.47C230.78,84.15,229.51,85.36,228.19,87.61Z"/><path d="M36.94,90.52c-2.2,1.38-3.36,2.7-4.48,2.65-.95,0-2.69-1.78-2.57-2.51a4.15,4.15,0,0,1,2.65-2.86C33.56,87.66,34.8,89.11,36.94,90.52Z"/><path d="M61.47,86.12c1.43,2.15,2.88,3.38,2.74,4.38a4.16,4.16,0,0,1-2.86,2.66c-.72.13-2.48-1.6-2.52-2.56S60.09,88.31,61.47,86.12Z"/><path d="M75.94,86.12c1.44,2.15,2.89,3.38,2.75,4.38a4.18,4.18,0,0,1-2.86,2.66c-.72.13-2.48-1.6-2.52-2.55C73.26,89.49,74.57,88.32,75.94,86.12Z"/><path d="M83.23,94.84c-1.4-2.18-2.83-3.43-2.67-4.43a4.16,4.16,0,0,1,2.9-2.61c.72-.12,2.45,1.65,2.48,2.61C86,91.52,84.64,92.67,83.23,94.84Z"/><path d="M94.84,90.32c-2.11,1.48-3.31,3-4.31,2.84a4.11,4.11,0,0,1-2.73-2.78c-.15-.73,1.54-2.54,2.48-2.59C91.42,87.72,92.63,89,94.84,90.32Z"/><path d="M102.08,90.5c-2.18,1.39-3.44,2.83-4.43,2.66A4.14,4.14,0,0,1,95,90.26c-.12-.72,1.66-2.46,2.6-2.47C98.78,87.77,99.93,89.1,102.08,90.5Z"/><path d="M109.32,90.4c-2.15,1.44-3.37,2.9-4.37,2.76a4.13,4.13,0,0,1-2.67-2.84c-.14-.72,1.59-2.5,2.53-2.53C106,87.74,107.14,89.05,109.32,90.4Z"/><path d="M126.57,94.84c-1.36-2.21-2.77-3.5-2.58-4.49a4.19,4.19,0,0,1,3-2.55c.72-.1,2.41,1.72,2.41,2.67C129.36,91.6,128,92.73,126.57,94.84Z"/><path d="M133.85,86.12c1.43,2.15,2.89,3.38,2.74,4.38a4.15,4.15,0,0,1-2.85,2.66c-.72.13-2.48-1.6-2.52-2.55C131.16,89.49,132.47,88.32,133.85,86.12Z"/><path d="M163.09,86.12c1.29,2.26,2.67,3.59,2.46,4.57a4.17,4.17,0,0,1-3.06,2.46c-.71.08-2.34-1.78-2.32-2.74C160.19,89.29,161.57,88.21,163.09,86.12Z"/><path d="M169.9,94.84c-1.31-2.25-2.69-3.57-2.48-4.56a4.18,4.18,0,0,1,3-2.47c.71-.09,2.35,1.76,2.34,2.73S171.4,92.74,169.9,94.84Z"/><path d="M196.18,90.5c-2.18,1.39-3.44,2.83-4.43,2.66a4.14,4.14,0,0,1-2.61-2.9c-.12-.72,1.65-2.45,2.61-2.47C192.86,87.75,194,89.08,196.18,90.5Z"/><path d="M203.42,90.68c-2.25,1.31-3.58,2.69-4.56,2.48a4.17,4.17,0,0,1-2.48-3c-.08-.72,1.77-2.36,2.73-2.35C200.23,87.8,201.32,89.18,203.42,90.68Z"/><path d="M210.66,90.5c-2.19,1.39-3.44,2.83-4.44,2.66a4.14,4.14,0,0,1-2.6-2.9c-.12-.72,1.64-2.45,2.6-2.47C207.34,87.75,208.49,89.08,210.66,90.5Z"/><path d="M217.9,90.5c-2.19,1.39-3.44,2.83-4.44,2.66a4.16,4.16,0,0,1-2.61-2.9c-.12-.72,1.65-2.45,2.61-2.47S215.73,89.08,217.9,90.5Z"/><path d="M225.13,90.58c-2.21,1.36-3.5,2.77-4.49,2.58a4.15,4.15,0,0,1-2.55-3c-.1-.72,1.71-2.41,2.67-2.42C221.87,87.77,223,89.13,225.13,90.58Z"/><path d="M228,86.12c1.43,2.15,2.89,3.38,2.74,4.38a4.15,4.15,0,0,1-2.85,2.66c-.72.13-2.49-1.61-2.52-2.55C225.28,89.47,226.59,88.29,228,86.12Z"/><path d="M239.61,90.62c-2.23,1.34-3.53,2.74-4.52,2.54a4.16,4.16,0,0,1-2.52-3c-.1-.72,1.73-2.38,2.69-2.39C236.37,87.78,237.49,89.15,239.61,90.62Z"/><path d="M242.47,94.84c-1.4-2.18-2.83-3.44-2.67-4.43a4.19,4.19,0,0,1,2.91-2.61c.72-.12,2.46,1.66,2.47,2.61C245.2,91.54,243.87,92.69,242.47,94.84Z"/><path d="M250,86.11c1.3,2.27,2.67,3.6,2.46,4.59a4.18,4.18,0,0,1-3.06,2.45c-.72.08-2.34-1.78-2.32-2.75S248.44,88.21,250,86.11Z"/><path d="M256.86,94.84c-1.36-2.21-2.77-3.5-2.58-4.49a4.19,4.19,0,0,1,3-2.55c.72-.1,2.41,1.72,2.41,2.67C259.65,91.6,258.3,92.73,256.86,94.84Z"/><path d="M264.14,86.12c1.44,2.15,2.89,3.38,2.74,4.38A4.15,4.15,0,0,1,264,93.16c-.72.13-2.48-1.6-2.52-2.56S262.77,88.31,264.14,86.12Z"/><path d="M271.33,94.84c-1.35-2.21-2.76-3.5-2.57-4.49a4.17,4.17,0,0,1,3-2.55c.71-.1,2.41,1.72,2.4,2.67C274.13,91.6,272.78,92.73,271.33,94.84Z"/><path d="M293.14,94.84c-1.4-2.18-2.83-3.44-2.67-4.43a4.17,4.17,0,0,1,2.91-2.61c.72-.12,2.45,1.66,2.47,2.61C295.87,91.54,294.54,92.69,293.14,94.84Z"/><path d="M44.18,97.85c-2.23,1.34-3.53,2.74-4.52,2.55a4.17,4.17,0,0,1-2.53-3C37,96.69,38.86,95,39.82,95S42.05,96.38,44.18,97.85Z"/><path d="M51.41,97.92c-2.25,1.31-3.57,2.69-4.56,2.48a4.18,4.18,0,0,1-2.47-3c-.09-.71,1.76-2.35,2.73-2.34S49.31,96.42,51.41,97.92Z"/><path d="M54.18,102.08c-1.35-2.22-2.76-3.5-2.58-4.49a4.18,4.18,0,0,1,3-2.55c.71-.1,2.39,1.71,2.4,2.67C57,98.82,55.64,100,54.18,102.08Z"/><path d="M73.13,97.64c-2.15,1.44-3.37,2.9-4.37,2.76a4.14,4.14,0,0,1-2.67-2.84c-.14-.72,1.59-2.5,2.53-2.54C69.76,95,70.94,96.29,73.13,97.64Z"/><path d="M87.61,97.85c-2.23,1.34-3.53,2.74-4.52,2.55a4.17,4.17,0,0,1-2.53-3c-.1-.72,1.73-2.38,2.69-2.39C84.36,95,85.48,96.38,87.61,97.85Z"/><path d="M97.9,102.08c-1.49-2.11-3-3.29-2.86-4.29A4.13,4.13,0,0,1,97.8,95c.73-.15,2.55,1.53,2.61,2.47C100.48,98.64,99.2,99.86,97.9,102.08Z"/><path d="M119.66,93.35c1.3,2.27,2.67,3.6,2.46,4.59a4.18,4.18,0,0,1-3.06,2.45c-.72.08-2.34-1.78-2.32-2.75S118.14,95.45,119.66,93.35Z"/><path d="M138.27,97.82c-2.21,1.36-3.5,2.77-4.49,2.58a4.17,4.17,0,0,1-2.55-3c-.1-.71,1.71-2.4,2.67-2.41S136.14,96.37,138.27,97.82Z"/><path d="M148.19,102.08c-1.31-2.25-2.69-3.57-2.49-4.56a4.16,4.16,0,0,1,3-2.47c.72-.09,2.36,1.77,2.34,2.73C151.06,98.9,149.68,100,148.19,102.08Z"/><path d="M170,102.08c-1.36-2.22-2.77-3.5-2.58-4.49a4.19,4.19,0,0,1,3-2.55c.72-.1,2.4,1.71,2.41,2.67C172.81,98.82,171.45,100,170,102.08Z"/><path d="M181.7,97.82c-2.21,1.36-3.5,2.77-4.49,2.58a4.17,4.17,0,0,1-2.55-3c-.1-.71,1.71-2.4,2.67-2.41S179.57,96.37,181.7,97.82Z"/><path d="M188.94,97.54c-2.11,1.49-3.29,3-4.29,2.86a4.15,4.15,0,0,1-2.75-2.77c-.15-.72,1.53-2.55,2.47-2.61C185.5,95,186.72,96.23,188.94,97.54Z"/><path d="M213.43,102.08c-1.36-2.22-2.77-3.5-2.58-4.49a4.19,4.19,0,0,1,3-2.55c.72-.1,2.4,1.71,2.41,2.67C216.24,98.82,214.88,100,213.43,102.08Z"/><path d="M242.43,93.35c1.43,2.16,2.88,3.39,2.74,4.39a4.17,4.17,0,0,1-2.85,2.66c-.73.13-2.5-1.61-2.53-2.55C239.76,96.71,241.06,95.53,242.43,93.35Z"/><path d="M254.09,97.73c-2.18,1.4-3.44,2.83-4.43,2.67a4.14,4.14,0,0,1-2.61-2.9c-.12-.72,1.64-2.45,2.6-2.48S251.92,96.32,254.09,97.73Z"/><path d="M261.33,97.85c-2.23,1.34-3.53,2.74-4.52,2.55a4.16,4.16,0,0,1-2.52-3C254.19,96.69,256,95,257,95,258.1,95,259.22,96.39,261.33,97.85Z"/><path d="M264.1,102.08c-1.36-2.22-2.77-3.5-2.58-4.49a4.17,4.17,0,0,1,3-2.55c.72-.1,2.4,1.71,2.41,2.67C266.91,98.82,265.55,100,264.1,102.08Z"/><path d="M290.28,97.64c-2.15,1.44-3.37,2.9-4.37,2.76a4.14,4.14,0,0,1-2.67-2.84c-.14-.72,1.58-2.49,2.54-2.54C286.89,95,288.07,96.27,290.28,97.64Z"/><path d="M39.85,100.59c1.39,2.19,2.7,3.36,2.66,4.48,0,1-1.79,2.69-2.51,2.57A4.18,4.18,0,0,1,37.13,105C37,104,38.43,102.76,39.85,100.59Z"/><path d="M47.13,109.32c-1.44-2.15-2.9-3.37-2.76-4.37a4.13,4.13,0,0,1,2.83-2.67c.73-.14,2.5,1.58,2.54,2.54C49.8,105.93,48.5,107.11,47.13,109.32Z"/><path d="M65.89,105.06c-2.22,1.35-3.5,2.76-4.49,2.58a4.19,4.19,0,0,1-2.55-3c-.11-.72,1.7-2.4,2.67-2.41S63.75,103.61,65.89,105.06Z"/><path d="M80.37,105.16c-2.26,1.31-3.58,2.69-4.57,2.48a4.18,4.18,0,0,1-2.47-3c-.09-.72,1.77-2.36,2.73-2.34C77.19,102.29,78.28,103.67,80.37,105.16Z"/><path d="M83.23,109.32c-1.4-2.18-2.83-3.44-2.67-4.43a4.13,4.13,0,0,1,2.91-2.61c.72-.12,2.45,1.66,2.47,2.6C86,106,84.62,107.17,83.23,109.32Z"/><path d="M86.12,104.73c2.26-1.29,3.59-2.67,4.57-2.46a4.17,4.17,0,0,1,2.46,3.06c.08.71-1.78,2.34-2.74,2.32C89.29,107.63,88.21,106.25,86.12,104.73Z"/><path d="M102.08,104.78c-2.11,1.49-3.29,3-4.29,2.86A4.13,4.13,0,0,1,95,104.87c-.15-.72,1.53-2.55,2.47-2.61C98.64,102.19,99.86,103.47,102.08,104.78Z"/><path d="M112.09,109.32c-1.35-2.22-2.76-3.51-2.58-4.5a4.17,4.17,0,0,1,3-2.54c.72-.11,2.4,1.71,2.41,2.67S113.55,107.18,112.09,109.32Z"/><path d="M123.8,105c-2.19,1.39-3.36,2.71-4.48,2.66-.95,0-2.69-1.79-2.57-2.51a4.18,4.18,0,0,1,2.65-2.87C120.4,102.12,121.63,103.57,123.8,105Z"/><path d="M126.47,109.32c-1.31-2.25-2.69-3.57-2.48-4.56a4.19,4.19,0,0,1,3-2.48c.72-.08,2.37,1.78,2.35,2.73C129.34,106.14,128,107.23,126.47,109.32Z"/><path d="M138.27,105.06c-2.21,1.35-3.5,2.76-4.49,2.58a4.19,4.19,0,0,1-2.55-3c-.1-.72,1.71-2.4,2.67-2.41S136.14,103.61,138.27,105.06Z"/><path d="M152.75,105.16c-2.25,1.31-3.57,2.69-4.56,2.48a4.19,4.19,0,0,1-2.48-3c-.08-.72,1.78-2.36,2.73-2.34C149.57,102.29,150.66,103.67,152.75,105.16Z"/><path d="M155.8,109.32c-1.49-2.11-3-3.29-2.86-4.3a4.11,4.11,0,0,1,2.77-2.74c.73-.16,2.55,1.53,2.61,2.46C158.39,105.88,157.11,107.1,155.8,109.32Z"/><path d="M177.18,100.59c1.48,2.12,3,3.31,2.84,4.32a4.15,4.15,0,0,1-2.78,2.73c-.72.15-2.53-1.54-2.59-2.49C174.57,104,175.85,102.83,177.18,100.59Z"/><path d="M184.8,100.59c1.3,2.26,2.68,3.59,2.46,4.58a4.18,4.18,0,0,1-3,2.46c-.72.08-2.35-1.79-2.33-2.75C181.91,103.76,183.3,102.67,184.8,100.59Z"/><path d="M217.89,104.88c-2.14,1.44-3.36,2.9-4.36,2.76a4.16,4.16,0,0,1-2.68-2.84c-.13-.72,1.59-2.49,2.54-2.54C214.51,102.21,215.69,103.51,217.89,104.88Z"/><path d="M227.81,109.32c-1.31-2.25-2.69-3.57-2.48-4.56a4.17,4.17,0,0,1,3-2.48c.72-.08,2.36,1.77,2.34,2.74S229.31,107.22,227.81,109.32Z"/><path d="M242.57,109.32c-1.45-2.15-2.91-3.37-2.77-4.37a4.14,4.14,0,0,1,2.84-2.67c.72-.14,2.49,1.58,2.54,2.54C245.24,105.93,243.93,107.11,242.57,109.32Z"/><path d="M249.9,109.32c-1.49-2.11-3-3.29-2.86-4.3a4.11,4.11,0,0,1,2.77-2.74c.72-.16,2.55,1.53,2.61,2.46C252.49,105.88,251.21,107.1,249.9,109.32Z"/><path d="M257.14,109.32c-1.49-2.11-3-3.3-2.86-4.3a4.11,4.11,0,0,1,2.77-2.74c.73-.16,2.54,1.52,2.61,2.47C259.74,105.86,258.46,107.08,257.14,109.32Z"/><path d="M283,105c-2.18,1.4-3.44,2.83-4.43,2.67a4.13,4.13,0,0,1-2.61-2.91c-.12-.72,1.65-2.44,2.61-2.47S280.87,103.56,283,105Z"/><path d="M36.93,112.3c-2.21,1.35-3.5,2.76-4.49,2.58a4.15,4.15,0,0,1-2.54-3c-.11-.72,1.7-2.4,2.66-2.41S34.8,110.84,36.93,112.3Z"/><path d="M64.4,112c2.26-1.3,3.59-2.67,4.58-2.46a4.2,4.2,0,0,1,2.46,3c.08.72-1.78,2.35-2.75,2.33S66.49,113.48,64.4,112Z"/><path d="M87.61,112c-2.11,1.49-3.3,3-4.3,2.86a4.15,4.15,0,0,1-2.75-2.77c-.15-.73,1.53-2.55,2.47-2.61C84.16,109.43,85.38,110.71,87.61,112Z"/><path d="M116.56,112.33c-2.23,1.34-3.53,2.74-4.52,2.55a4.18,4.18,0,0,1-2.52-3c-.1-.72,1.73-2.4,2.68-2.39C113.33,109.51,114.45,110.87,116.56,112.33Z"/><path d="M123.8,112.23c-2.19,1.39-3.36,2.71-4.48,2.66-.95,0-2.69-1.79-2.57-2.51a4.18,4.18,0,0,1,2.65-2.87C120.4,109.36,121.63,110.81,123.8,112.23Z"/><path d="M131,112.23c-2.2,1.39-3.37,2.71-4.48,2.66-1,0-2.7-1.79-2.57-2.51a4.14,4.14,0,0,1,2.65-2.87C127.64,109.36,128.87,110.81,131,112.23Z"/><path d="M160,112.11c-2.15,1.45-3.37,2.91-4.37,2.77A4.14,4.14,0,0,1,153,112c-.14-.72,1.59-2.5,2.53-2.54C156.62,109.46,157.8,110.76,160,112.11Z"/><path d="M167.23,112c-2.11,1.49-3.3,3-4.3,2.86a4.15,4.15,0,0,1-2.75-2.77c-.15-.73,1.53-2.54,2.48-2.61C163.77,109.42,165,110.7,167.23,112Z"/><path d="M188.94,112.21c-2.18,1.4-3.43,2.83-4.43,2.67A4.15,4.15,0,0,1,181.9,112c-.12-.72,1.65-2.44,2.61-2.47C185.62,109.47,186.77,110.8,188.94,112.21Z"/><path d="M192,107.83c1.34,2.23,2.74,3.53,2.55,4.52a4.16,4.16,0,0,1-3,2.52c-.72.1-2.39-1.72-2.39-2.69S190.48,110,192,107.83Z"/><path d="M206.52,107.83c1.29,2.26,2.67,3.59,2.46,4.58a4.22,4.22,0,0,1-3,2.46c-.72.08-2.36-1.79-2.33-2.75C203.63,111,205,109.91,206.52,107.83Z"/><path d="M232.37,112.11c-2.14,1.45-3.36,2.91-4.36,2.77a4.14,4.14,0,0,1-2.68-2.84c-.14-.72,1.59-2.49,2.54-2.54C229,109.44,230.16,110.75,232.37,112.11Z"/><path d="M239.61,112.4c-2.25,1.3-3.57,2.69-4.56,2.48a4.16,4.16,0,0,1-2.47-3c-.09-.72,1.76-2.35,2.73-2.34S237.51,110.89,239.61,112.4Z"/><path d="M242.38,116.56c-1.35-2.22-2.76-3.51-2.58-4.5a4.15,4.15,0,0,1,3-2.54c.72-.11,2.4,1.7,2.41,2.67S243.84,114.42,242.38,116.56Z"/><path d="M271.66,107.83c1.3,2.26,2.68,3.59,2.46,4.58a4.16,4.16,0,0,1-3.05,2.46c-.72.08-2.35-1.79-2.33-2.75C268.78,111,270.16,109.91,271.66,107.83Z"/><path d="M278.9,107.83c1.3,2.26,2.67,3.59,2.46,4.58a4.2,4.2,0,0,1-3.05,2.46c-.72.08-2.35-1.79-2.33-2.75C276,111,277.4,109.91,278.9,107.83Z"/><path d="M290.28,112.23c-2.19,1.39-3.36,2.71-4.47,2.66-1,0-2.7-1.79-2.57-2.51a4.15,4.15,0,0,1,2.64-2.87C286.88,109.36,288.12,110.81,290.28,112.23Z"/><path d="M36.94,119.63c-2.26,1.31-3.58,2.69-4.57,2.49a4.18,4.18,0,0,1-2.47-3c-.09-.72,1.77-2.36,2.73-2.34C33.76,116.76,34.85,118.14,36.94,119.63Z"/><path d="M39.61,123.8c-1.31-2.26-2.69-3.58-2.48-4.57a4.18,4.18,0,0,1,3-2.47c.72-.09,2.36,1.77,2.35,2.73C42.49,120.6,41.11,121.7,39.61,123.8Z"/><path d="M54.37,123.8c-1.44-2.15-2.9-3.37-2.77-4.37a4.2,4.2,0,0,1,2.84-2.68c.73-.13,2.49,1.59,2.54,2.54C57,120.41,55.73,121.59,54.37,123.8Z"/><path d="M61.42,123.8c-1.35-2.22-2.76-3.51-2.58-4.5a4.15,4.15,0,0,1,3-2.54c.72-.11,2.4,1.7,2.41,2.66C64.23,120.54,62.88,121.66,61.42,123.8Z"/><path d="M68.94,123.8c-1.49-2.11-3-3.3-2.86-4.3a4.15,4.15,0,0,1,2.77-2.75c.73-.15,2.54,1.53,2.61,2.47C71.54,120.34,70.26,121.55,68.94,123.8Z"/><path d="M75.9,123.8c-1.36-2.22-2.77-3.51-2.58-4.5a4.15,4.15,0,0,1,3-2.54c.72-.11,2.4,1.7,2.41,2.66C78.71,120.54,77.35,121.66,75.9,123.8Z"/><path d="M83.18,115.07c1.44,2.15,2.89,3.38,2.74,4.38a4.13,4.13,0,0,1-2.85,2.66c-.72.13-2.48-1.6-2.52-2.55C80.5,118.45,81.8,117.27,83.18,115.07Z"/><path d="M104.8,115.07c1.48,2.12,3,3.31,2.84,4.31a4.13,4.13,0,0,1-2.78,2.73c-.73.15-2.53-1.53-2.6-2.48C102.19,118.51,103.47,117.31,104.8,115.07Z"/><path d="M112.14,115.07c1.43,2.16,2.88,3.38,2.74,4.38a4.16,4.16,0,0,1-2.86,2.66c-.72.13-2.49-1.61-2.52-2.55C109.47,118.42,110.77,117.24,112.14,115.07Z"/><path d="M145.51,119.37c-2.15,1.44-3.38,2.89-4.38,2.75a4.18,4.18,0,0,1-2.66-2.86c-.13-.72,1.6-2.48,2.55-2.52C142.14,116.69,143.31,118,145.51,119.37Z"/><path d="M152.75,119.38c-2.15,1.43-3.38,2.88-4.38,2.74a4.16,4.16,0,0,1-2.66-2.86c-.13-.72,1.61-2.49,2.55-2.52C149.4,116.7,150.58,118,152.75,119.38Z"/><path d="M167.23,119.26c-2.11,1.49-3.3,3-4.3,2.86a4.18,4.18,0,0,1-2.75-2.78c-.15-.72,1.53-2.53,2.48-2.6C163.77,116.66,165,117.94,167.23,119.26Z"/><path d="M170.05,115.07c1.43,2.16,2.88,3.38,2.74,4.38a4.16,4.16,0,0,1-2.86,2.66c-.72.13-2.49-1.61-2.52-2.55C167.37,118.42,168.68,117.24,170.05,115.07Z"/><path d="M177.48,115.07c1.34,2.23,2.74,3.53,2.54,4.52a4.14,4.14,0,0,1-3,2.52c-.72.1-2.38-1.73-2.38-2.69C174.64,118.31,176,117.19,177.48,115.07Z"/><path d="M192,115.07c1.34,2.23,2.74,3.53,2.55,4.52a4.16,4.16,0,0,1-3,2.52c-.72.1-2.39-1.73-2.39-2.69C189.12,118.31,190.48,117.19,192,115.07Z"/><path d="M199,123.8c-1.35-2.22-2.76-3.51-2.58-4.5a4.15,4.15,0,0,1,3-2.54c.72-.11,2.4,1.7,2.41,2.66C201.76,120.54,200.41,121.66,199,123.8Z"/><path d="M206.28,123.79c-1.4-2.18-2.83-3.43-2.67-4.42a4.15,4.15,0,0,1,2.91-2.62c.72-.11,2.44,1.65,2.47,2.61C209,120.47,207.69,121.62,206.28,123.79Z"/><path d="M213.43,123.8c-1.36-2.22-2.77-3.51-2.58-4.5a4.15,4.15,0,0,1,3-2.54c.72-.11,2.4,1.7,2.41,2.66C216.24,120.54,214.88,121.66,213.43,123.8Z"/><path d="M220.81,115.07c1.39,2.19,2.7,3.36,2.66,4.47,0,1-1.79,2.7-2.51,2.57a4.13,4.13,0,0,1-2.87-2.64C218,118.44,219.4,117.21,220.81,115.07Z"/><path d="M239.61,119.35c-2.14,1.45-3.37,2.9-4.36,2.77a4.16,4.16,0,0,1-2.68-2.84c-.14-.72,1.58-2.49,2.54-2.54S237.4,118,239.61,119.35Z"/><path d="M246.85,119.35c-2.15,1.45-3.37,2.9-4.37,2.77a4.16,4.16,0,0,1-2.67-2.84c-.14-.72,1.58-2.49,2.54-2.54C243.46,116.68,244.64,118,246.85,119.35Z"/><path d="M249.66,115.07c1.44,2.15,2.89,3.38,2.75,4.38a4.16,4.16,0,0,1-2.86,2.66c-.72.13-2.49-1.61-2.52-2.55C247,118.43,248.3,117.25,249.66,115.07Z"/><path d="M275.8,119.47c-2.19,1.39-3.36,2.7-4.47,2.66-1,0-2.7-1.79-2.57-2.51a4.14,4.14,0,0,1,2.65-2.87C272.4,116.6,273.64,118.05,275.8,119.47Z"/><path d="M290.28,119.25c-2.11,1.5-3.29,3-4.3,2.87a4.13,4.13,0,0,1-2.74-2.77c-.16-.73,1.53-2.55,2.46-2.61C286.84,116.67,288.06,118,290.28,119.25Z"/><path d="M293.38,115.07c1.3,2.26,2.67,3.59,2.46,4.58a4.18,4.18,0,0,1-3.06,2.45c-.72.09-2.35-1.78-2.32-2.74C290.49,118.23,291.88,117.15,293.38,115.07Z"/><path d="M36.94,126.61c-2.16,1.44-3.39,2.89-4.38,2.74a4.14,4.14,0,0,1-2.67-2.85c-.13-.72,1.61-2.49,2.55-2.52C33.58,123.94,34.76,125.25,36.94,126.61Z"/><path d="M51.41,126.59c-2.14,1.44-3.36,2.9-4.36,2.76a4.12,4.12,0,0,1-2.68-2.83c-.14-.73,1.6-2.51,2.54-2.54C48,123.94,49.23,125.24,51.41,126.59Z"/><path d="M58.65,126.62c-2.15,1.43-3.38,2.88-4.38,2.73a4.13,4.13,0,0,1-2.66-2.85c-.13-.72,1.6-2.48,2.55-2.52C55.28,123.93,56.45,125.24,58.65,126.62Z"/><path d="M61.75,122.31c1.3,2.26,2.67,3.59,2.46,4.58a4.17,4.17,0,0,1-3,2.45c-.72.09-2.35-1.78-2.33-2.74S60.24,124.4,61.75,122.31Z"/><path d="M68.61,122.31c1.48,2.11,3,3.31,2.84,4.31a4.15,4.15,0,0,1-2.79,2.73c-.72.15-2.52-1.53-2.59-2.48C66,125.75,67.28,124.54,68.61,122.31Z"/><path d="M94.84,126.69c-2.18,1.39-3.43,2.83-4.43,2.67a4.19,4.19,0,0,1-2.61-2.91c-.12-.72,1.65-2.45,2.61-2.47C91.52,123.94,92.67,125.27,94.84,126.69Z"/><path d="M97.66,122.31c1.43,2.15,2.89,3.38,2.74,4.38a4.15,4.15,0,0,1-2.85,2.66c-.72.13-2.48-1.6-2.53-2.55C95,125.68,96.28,124.51,97.66,122.31Z"/><path d="M104.85,131c-1.35-2.22-2.76-3.51-2.58-4.5a4.19,4.19,0,0,1,3-2.55c.72-.1,2.4,1.71,2.41,2.67C107.66,127.78,106.31,128.9,104.85,131Z"/><path d="M119.42,131c-1.4-2.18-2.83-3.43-2.67-4.43a4.15,4.15,0,0,1,2.91-2.61c.72-.12,2.44,1.65,2.47,2.61C122.16,127.71,120.83,128.86,119.42,131Z"/><path d="M210.66,126.78c-2.22,1.35-3.51,2.76-4.5,2.58a4.15,4.15,0,0,1-2.54-3c-.11-.71,1.7-2.4,2.67-2.4S208.52,125.32,210.66,126.78Z"/><path d="M220.85,131c-1.44-2.14-2.9-3.36-2.76-4.36a4.16,4.16,0,0,1,2.84-2.68c.72-.13,2.49,1.59,2.54,2.54C223.52,127.64,222.22,128.83,220.85,131Z"/><path d="M239.61,126.59c-2.14,1.44-3.37,2.9-4.36,2.76a4.12,4.12,0,0,1-2.68-2.83c-.14-.73,1.58-2.49,2.54-2.54S237.4,125.22,239.61,126.59Z"/><path d="M246.85,126.62c-2.16,1.43-3.39,2.88-4.38,2.73a4.11,4.11,0,0,1-2.66-2.85c-.13-.72,1.61-2.49,2.55-2.52C243.5,123.94,244.67,125.25,246.85,126.62Z"/><path d="M268.56,126.69c-2.18,1.39-3.43,2.83-4.43,2.67a4.19,4.19,0,0,1-2.61-2.91c-.12-.72,1.65-2.45,2.61-2.47C265.24,123.94,266.39,125.27,268.56,126.69Z"/><path d="M271.66,122.31c1.3,2.26,2.68,3.59,2.46,4.58a4.15,4.15,0,0,1-3.05,2.45c-.72.09-2.35-1.78-2.33-2.74C268.78,125.47,270.16,124.39,271.66,122.31Z"/><path d="M297.52,126.69c-2.19,1.4-3.44,2.83-4.44,2.67a4.18,4.18,0,0,1-2.6-2.91c-.12-.72,1.65-2.45,2.6-2.47C294.2,124,295.35,125.28,297.52,126.69Z"/><path d="M39.65,129.55c1.48,2.11,3,3.31,2.84,4.31a4.11,4.11,0,0,1-2.78,2.73c-.72.15-2.54-1.54-2.59-2.48C37.05,133,38.34,131.76,39.65,129.55Z"/><path d="M51.41,133.92c-2.18,1.4-3.43,2.84-4.43,2.67a4.16,4.16,0,0,1-2.61-2.9c-.12-.72,1.65-2.45,2.61-2.47C48.09,131.18,49.24,132.51,51.41,133.92Z"/><path d="M65.89,133.85c-2.16,1.44-3.38,2.89-4.38,2.74a4.11,4.11,0,0,1-2.66-2.85c-.13-.72,1.6-2.48,2.55-2.52C62.52,131.17,63.69,132.48,65.89,133.85Z"/><path d="M73.13,133.73c-2.11,1.49-3.3,3-4.3,2.86a4.15,4.15,0,0,1-2.75-2.77c-.15-.72,1.53-2.54,2.48-2.6C69.67,131.14,70.88,132.41,73.13,133.73Z"/><path d="M76.14,129.54c1.34,2.24,2.74,3.53,2.55,4.53a4.2,4.2,0,0,1-3,2.52c-.71.1-2.39-1.74-2.38-2.69C73.32,132.77,74.68,131.65,76.14,129.54Z"/><path d="M87.61,133.73c-2.11,1.49-3.3,3-4.3,2.86a4.15,4.15,0,0,1-2.75-2.77c-.15-.72,1.53-2.55,2.47-2.6C84.16,131.15,85.38,132.42,87.61,133.73Z"/><path d="M126.66,138.27c-1.4-2.18-2.83-3.44-2.67-4.43a4.15,4.15,0,0,1,2.91-2.61c.72-.12,2.44,1.65,2.47,2.61S128.07,136.1,126.66,138.27Z"/><path d="M138.28,32.71c-2.23,1.34-3.53,2.74-4.52,2.55a4.19,4.19,0,0,1-2.53-3c-.1-.71,1.73-2.38,2.69-2.38C135,29.88,136.15,31.24,138.28,32.71Z"/><path d="M213.47,129.55c1.44,2.15,2.89,3.38,2.75,4.38a4.18,4.18,0,0,1-2.86,2.66c-.72.13-2.49-1.61-2.52-2.55C210.8,132.9,212.11,131.72,213.47,129.55Z"/><path d="M220.61,129.55c1.48,2.11,3,3.31,2.84,4.31a4.11,4.11,0,0,1-2.78,2.73c-.72.15-2.54-1.54-2.59-2.48C218,133,219.3,131.76,220.61,129.55Z"/><path d="M232.37,133.73c-2.11,1.49-3.29,3-4.3,2.86a4.13,4.13,0,0,1-2.74-2.77c-.15-.72,1.52-2.54,2.47-2.6C228.92,131.14,230.13,132.41,232.37,133.73Z"/><path d="M249.9,138.28c-1.49-2.11-3-3.3-2.86-4.3a4.15,4.15,0,0,1,2.77-2.75c.72-.15,2.55,1.53,2.61,2.47C252.49,134.83,251.21,136.05,249.9,138.28Z"/><path d="M261.32,133.83c-2.14,1.44-3.36,2.9-4.36,2.76a4.14,4.14,0,0,1-2.68-2.84c-.13-.72,1.59-2.49,2.54-2.53C257.94,131.16,259.12,132.46,261.32,133.83Z"/><path d="M268.56,133.83c-2.14,1.44-3.36,2.9-4.36,2.76a4.14,4.14,0,0,1-2.68-2.84c-.13-.72,1.59-2.49,2.54-2.53C265.17,131.16,266.36,132.46,268.56,133.83Z"/><path d="M271.24,138.27c-1.31-2.25-2.69-3.57-2.48-4.56a4.18,4.18,0,0,1,3-2.47c.72-.09,2.36,1.76,2.34,2.73S272.74,136.17,271.24,138.27Z"/><path d="M278.52,129.55c1.48,2.11,3,3.31,2.84,4.31a4.13,4.13,0,0,1-2.78,2.73c-.73.15-2.54-1.54-2.6-2.48C275.92,133,277.2,131.76,278.52,129.55Z"/><path d="M293.33,138.28c-1.49-2.11-3-3.3-2.86-4.3a4.15,4.15,0,0,1,2.77-2.75c.73-.15,2.55,1.53,2.61,2.47C295.92,134.83,294.64,136.05,293.33,138.28Z"/><path d="M32.65,145.51c-1.44-2.14-2.9-3.36-2.76-4.36a4.14,4.14,0,0,1,2.84-2.68c.72-.14,2.5,1.59,2.54,2.54C35.31,142.14,34,143.33,32.65,145.51Z"/><path d="M44.18,141.37c-2.27,1.3-3.6,2.68-4.58,2.46a4.16,4.16,0,0,1-2.46-3.05c-.08-.72,1.78-2.34,2.74-2.33C41,138.47,42.08,139.86,44.18,141.37Z"/><path d="M65.89,141.16c-2.18,1.4-3.44,2.83-4.43,2.67a4.14,4.14,0,0,1-2.61-2.9c-.12-.72,1.65-2.46,2.6-2.48C62.58,138.44,63.74,139.77,65.89,141.16Z"/><path d="M83.08,136.78c1.48,2.12,3,3.31,2.84,4.32a4.11,4.11,0,0,1-2.78,2.73c-.72.15-2.53-1.54-2.59-2.49C80.47,140.23,81.75,139,83.08,136.78Z"/><path d="M94.84,141.28c-2.23,1.34-3.52,2.74-4.52,2.55a4.18,4.18,0,0,1-2.52-3c-.1-.72,1.74-2.4,2.69-2.39C91.62,138.46,92.74,139.83,94.84,141.28Z"/><path d="M102.08,141.19c-2.19,1.38-3.36,2.7-4.47,2.65-1,0-2.7-1.78-2.57-2.51a4.11,4.11,0,0,1,2.65-2.86C98.68,138.32,99.92,139.76,102.08,141.19Z"/><path d="M109.32,141.07c-2.15,1.44-3.37,2.9-4.37,2.76a4.14,4.14,0,0,1-2.67-2.84c-.14-.72,1.59-2.5,2.53-2.54C106,138.41,107.14,139.72,109.32,141.07Z"/><path d="M116.56,141c-2.11,1.49-3.3,3-4.3,2.86a4.15,4.15,0,0,1-2.75-2.77c-.15-.72,1.53-2.54,2.48-2.61C113.1,138.37,114.31,139.65,116.56,141Z"/><path d="M119.42,145.51c-1.4-2.18-2.83-3.43-2.67-4.43a4.15,4.15,0,0,1,2.91-2.61c.72-.12,2.44,1.65,2.47,2.6C122.16,142.19,120.83,143.34,119.42,145.51Z"/><path d="M210.66,141.09c-2.16,1.43-3.38,2.89-4.38,2.74a4.14,4.14,0,0,1-2.67-2.85c-.13-.72,1.61-2.5,2.56-2.53C207.3,138.42,208.48,139.73,210.66,141.09Z"/><path d="M213.57,136.78c1.39,2.2,2.7,3.37,2.66,4.48,0,1-1.79,2.7-2.51,2.57a4.12,4.12,0,0,1-2.87-2.65C210.71,140.16,212.16,138.93,213.57,136.78Z"/><path d="M228,145.51c-1.39-2.18-2.83-3.44-2.66-4.43a4.14,4.14,0,0,1,2.9-2.61c.72-.12,2.45,1.65,2.47,2.61S229.41,143.34,228,145.51Z"/><path d="M238.12,140.93c2.26-1.3,3.59-2.68,4.58-2.47a4.22,4.22,0,0,1,2.46,3.06c.08.72-1.79,2.35-2.75,2.32C241.29,143.81,240.2,142.43,238.12,140.93Z"/><path d="M254.09,141.07c-2.15,1.44-3.37,2.9-4.37,2.76A4.18,4.18,0,0,1,247,141c-.13-.72,1.59-2.49,2.54-2.54C250.7,138.4,251.88,139.7,254.09,141.07Z"/><path d="M257.1,136.78c1.34,2.23,2.74,3.53,2.55,4.52a4.19,4.19,0,0,1-3,2.53c-.71.09-2.38-1.73-2.38-2.69C254.27,140,255.63,138.91,257.1,136.78Z"/><path d="M268.56,141.25c-2.21,1.36-3.5,2.77-4.49,2.58a4.17,4.17,0,0,1-2.55-3c-.1-.71,1.72-2.41,2.67-2.41C265.32,138.46,266.45,139.81,268.56,141.25Z"/><path d="M278.9,136.78c1.3,2.27,2.68,3.6,2.46,4.59a4.17,4.17,0,0,1-3.05,2.45c-.72.08-2.35-1.79-2.33-2.75C276,140,277.4,138.86,278.9,136.78Z"/><path d="M290.28,141.16c-2.18,1.4-3.44,2.83-4.43,2.67a4.14,4.14,0,0,1-2.61-2.9c-.12-.72,1.65-2.45,2.6-2.48C287,138.42,288.11,139.75,290.28,141.16Z"/><path d="M293.38,136.78c1.29,2.27,2.67,3.6,2.46,4.58a4.18,4.18,0,0,1-3,2.46c-.72.08-2.36-1.79-2.33-2.74C290.49,140,291.87,138.86,293.38,136.78Z"/><path d="M46.94,152.75c-1.35-2.22-2.76-3.5-2.57-4.5a4.16,4.16,0,0,1,3-2.54c.71-.11,2.4,1.71,2.4,2.67C49.75,149.49,48.4,150.61,46.94,152.75Z"/><path d="M58.65,148.21c-2.11,1.49-3.29,3-4.3,2.86a4.13,4.13,0,0,1-2.74-2.77c-.15-.72,1.53-2.55,2.47-2.61C55.21,145.62,56.43,146.9,58.65,148.21Z"/><path d="M73.13,148.61c-2.26,1.3-3.59,2.67-4.58,2.46a4.2,4.2,0,0,1-2.46-3c-.08-.72,1.78-2.35,2.75-2.33S71,147.1,73.13,148.61Z"/><path d="M75.8,152.75c-1.31-2.25-2.69-3.57-2.48-4.56a4.19,4.19,0,0,1,3-2.48c.72-.08,2.36,1.78,2.34,2.73C78.67,149.57,77.29,150.66,75.8,152.75Z"/><path d="M83.23,152.75c-1.4-2.18-2.83-3.44-2.67-4.43a4.13,4.13,0,0,1,2.91-2.61c.72-.12,2.45,1.66,2.47,2.6C86,149.45,84.62,150.6,83.23,152.75Z"/><path d="M94.84,148.4c-2.18,1.4-3.43,2.83-4.43,2.67a4.15,4.15,0,0,1-2.61-2.91c-.12-.72,1.65-2.44,2.61-2.47C91.52,145.66,92.67,147,94.84,148.4Z"/><path d="M97.89,152.75c-1.48-2.11-3-3.3-2.85-4.3a4.11,4.11,0,0,1,2.77-2.74c.72-.16,2.53,1.52,2.6,2.47C100.49,149.29,99.21,150.51,97.89,152.75Z"/><path d="M109.32,148.59c-2.25,1.31-3.57,2.69-4.56,2.48a4.19,4.19,0,0,1-2.48-3c-.08-.72,1.78-2.36,2.73-2.34C106.14,145.72,107.23,147.1,109.32,148.59Z"/><path d="M123.8,148.21c-2.11,1.49-3.3,3-4.3,2.86a4.15,4.15,0,0,1-2.75-2.77c-.15-.72,1.53-2.55,2.47-2.61C120.36,145.62,121.57,146.9,123.8,148.21Z"/><path d="M126.47,152.75c-1.31-2.25-2.69-3.57-2.48-4.56a4.19,4.19,0,0,1,3-2.48c.72-.08,2.37,1.78,2.35,2.73C129.34,149.57,128,150.66,126.47,152.75Z"/><path d="M203.42,148.49c-2.22,1.35-3.5,2.76-4.49,2.58a4.19,4.19,0,0,1-2.55-3c-.11-.72,1.71-2.41,2.66-2.41C200.17,145.7,201.3,147.05,203.42,148.49Z"/><path d="M213.33,152.75c-1.31-2.25-2.69-3.57-2.48-4.56a4.19,4.19,0,0,1,3-2.48c.71-.08,2.35,1.77,2.34,2.74S214.83,150.65,213.33,152.75Z"/><path d="M228.19,152.75c-1.49-2.11-3-3.3-2.86-4.3a4.11,4.11,0,0,1,2.77-2.74c.72-.16,2.53,1.52,2.6,2.47C230.78,149.29,229.51,150.51,228.19,152.75Z"/><path d="M242.38,152.75c-1.35-2.22-2.76-3.5-2.58-4.5a4.17,4.17,0,0,1,3-2.54c.72-.11,2.4,1.71,2.41,2.67C245.19,149.49,243.84,150.61,242.38,152.75Z"/><path d="M261.32,148.31c-2.14,1.44-3.36,2.9-4.36,2.76a4.16,4.16,0,0,1-2.68-2.84c-.13-.72,1.59-2.49,2.54-2.54C257.94,145.64,259.12,146.94,261.32,148.31Z"/><path d="M264.1,152.75c-1.36-2.22-2.77-3.5-2.58-4.5a4.16,4.16,0,0,1,3-2.54c.72-.11,2.4,1.71,2.41,2.67C266.91,149.49,265.55,150.61,264.1,152.75Z"/><path d="M271.66,144c1.3,2.26,2.68,3.59,2.46,4.58a4.16,4.16,0,0,1-3.05,2.46c-.72.08-2.35-1.79-2.33-2.75C268.78,147.19,270.16,146.1,271.66,144Z"/><path d="M283,148.21c-2.11,1.49-3.29,3-4.3,2.86A4.13,4.13,0,0,1,276,148.3c-.15-.73,1.52-2.54,2.47-2.61C279.58,145.61,280.8,146.89,283,148.21Z"/><path d="M290.28,148.21c-2.11,1.49-3.29,3-4.3,2.86a4.11,4.11,0,0,1-2.74-2.77c-.16-.72,1.53-2.55,2.46-2.61C286.84,145.62,288.06,146.9,290.28,148.21Z"/><path d="M44.18,155.66c-2.2,1.39-3.37,2.71-4.48,2.66-1,0-2.7-1.79-2.57-2.51a4.12,4.12,0,0,1,2.65-2.87C40.8,152.81,42,154.25,44.18,155.66Z"/><path d="M47.19,151.26c1.34,2.23,2.74,3.53,2.54,4.52a4.16,4.16,0,0,1-3,2.52c-.72.1-2.38-1.72-2.39-2.69S45.71,153.39,47.19,151.26Z"/><path d="M57.16,155.4c2.26-1.3,3.59-2.67,4.58-2.46A4.2,4.2,0,0,1,64.2,156c.08.72-1.78,2.35-2.75,2.33S59.26,156.92,57.16,155.4Z"/><path d="M83.42,160c-1.49-2.11-3-3.29-2.86-4.3A4.11,4.11,0,0,1,83.33,153c.72-.16,2.54,1.52,2.61,2.47C86,156.53,84.74,157.74,83.42,160Z"/><path d="M131,155.57c-2.16,1.43-3.39,2.88-4.39,2.74a4.18,4.18,0,0,1-2.66-2.86c-.13-.72,1.6-2.48,2.56-2.52C127.66,152.88,128.84,154.19,131,155.57Z"/><path d="M210.66,155.73c-2.22,1.35-3.51,2.76-4.5,2.58a4.15,4.15,0,0,1-2.54-3c-.11-.72,1.71-2.41,2.66-2.41C207.41,152.93,208.54,154.29,210.66,155.73Z"/><path d="M217.9,155.45c-2.11,1.49-3.3,3-4.3,2.86a4.15,4.15,0,0,1-2.75-2.77c-.15-.73,1.53-2.55,2.47-2.61C214.45,152.86,215.67,154.14,217.9,155.45Z"/><path d="M225.13,155.83c-2.25,1.3-3.57,2.69-4.56,2.48a4.18,4.18,0,0,1-2.47-3c-.09-.72,1.76-2.35,2.73-2.34S223,154.32,225.13,155.83Z"/><path d="M239.61,155.54c-2.14,1.45-3.37,2.91-4.36,2.77a4.14,4.14,0,0,1-2.68-2.84c-.14-.72,1.58-2.49,2.54-2.54S237.4,154.18,239.61,155.54Z"/><path d="M254.09,155.64c-2.18,1.4-3.44,2.83-4.43,2.67a4.13,4.13,0,0,1-2.61-2.91c-.12-.72,1.64-2.44,2.6-2.47S251.92,154.23,254.09,155.64Z"/><path d="M275.8,155.45c-2.11,1.49-3.29,3-4.3,2.86a4.13,4.13,0,0,1-2.74-2.77c-.15-.73,1.52-2.54,2.47-2.61C272.35,152.85,273.56,154.13,275.8,155.45Z"/><path d="M278.81,151.26c1.34,2.23,2.74,3.53,2.55,4.52a4.16,4.16,0,0,1-3,2.52c-.72.1-2.39-1.72-2.39-2.69S277.34,153.39,278.81,151.26Z"/><path d="M290.28,155.57c-2.16,1.43-3.39,2.88-4.38,2.74a4.14,4.14,0,0,1-2.66-2.86c-.13-.72,1.61-2.49,2.55-2.52C286.93,152.9,288.1,154.21,290.28,155.57Z"/><path d="M54.23,158.5c1.43,2.15,2.88,3.38,2.74,4.38a4.13,4.13,0,0,1-2.85,2.66c-.72.14-2.48-1.6-2.53-2.55C51.54,161.88,52.85,160.7,54.23,158.5Z"/><path d="M69,158.5c1.3,2.26,2.67,3.59,2.46,4.58a4.18,4.18,0,0,1-3.06,2.45c-.72.09-2.34-1.78-2.32-2.74S67.48,160.59,69,158.5Z"/><path d="M80.36,162.88c-2.18,1.4-3.43,2.83-4.43,2.67a4.17,4.17,0,0,1-2.61-2.91c-.12-.72,1.66-2.46,2.61-2.47C77.06,160.15,78.22,161.48,80.36,162.88Z"/><path d="M90.28,167.23c-1.31-2.26-2.69-3.58-2.48-4.57a4.18,4.18,0,0,1,3-2.47c.72-.09,2.37,1.77,2.34,2.73C93.15,164.05,91.77,165.14,90.28,167.23Z"/><path d="M116.56,162.69c-2.11,1.49-3.3,3-4.3,2.86a4.17,4.17,0,0,1-2.75-2.77c-.15-.73,1.53-2.55,2.47-2.61C113.12,160.1,114.33,161.38,116.56,162.69Z"/><path d="M123.8,163.09c-2.27,1.3-3.6,2.67-4.58,2.46a4.19,4.19,0,0,1-2.46-3.06c-.08-.72,1.78-2.34,2.75-2.32S121.71,161.58,123.8,163.09Z"/><path d="M199,167.23c-1.35-2.22-2.76-3.51-2.58-4.5a4.15,4.15,0,0,1,3-2.54c.72-.11,2.4,1.7,2.41,2.67S200.41,165.09,199,167.23Z"/><path d="M206.47,167.23c-1.49-2.11-3-3.3-2.86-4.3a4.15,4.15,0,0,1,2.77-2.75c.72-.15,2.55,1.53,2.61,2.47C209.06,163.79,207.78,165,206.47,167.23Z"/><path d="M235.33,167.23c-1.45-2.15-2.9-3.37-2.77-4.37a4.2,4.2,0,0,1,2.84-2.68c.72-.13,2.49,1.59,2.54,2.54C238,163.84,236.69,165,235.33,167.23Z"/><path d="M242.52,158.5c1.39,2.19,2.71,3.36,2.66,4.47s-1.79,2.7-2.51,2.57a4.13,4.13,0,0,1-2.87-2.64C239.67,161.88,241.11,160.64,242.52,158.5Z"/><path d="M254.09,162.88c-2.18,1.4-3.44,2.83-4.43,2.67a4.15,4.15,0,0,1-2.61-2.91c-.12-.72,1.64-2.44,2.6-2.47S251.92,161.47,254.09,162.88Z"/><path d="M264.19,167.22c-1.4-2.17-2.83-3.43-2.67-4.42a4.14,4.14,0,0,1,2.9-2.61c.72-.12,2.45,1.64,2.48,2.6C266.93,163.9,265.6,165.06,264.19,167.22Z"/><path d="M275.8,162.9c-2.19,1.39-3.36,2.7-4.47,2.66-1,0-2.7-1.79-2.57-2.51a4.14,4.14,0,0,1,2.65-2.87C272.4,160,273.64,161.48,275.8,162.9Z"/><path d="M36.93,170.2c-2.21,1.36-3.5,2.77-4.49,2.59a4.15,4.15,0,0,1-2.54-3c-.11-.72,1.7-2.4,2.66-2.41S34.8,168.75,36.93,170.2Z"/><path d="M44.18,169.92c-2.11,1.49-3.3,3-4.3,2.86A4.15,4.15,0,0,1,37.13,170c-.15-.73,1.52-2.54,2.47-2.61C40.72,167.33,41.93,168.6,44.18,169.92Z"/><path d="M58.65,170c-2.15,1.44-3.38,2.89-4.38,2.75a4.18,4.18,0,0,1-2.66-2.86c-.13-.72,1.6-2.48,2.55-2.52C55.28,167.36,56.45,168.67,58.65,170Z"/><path d="M65.89,170.32c-2.26,1.3-3.59,2.68-4.58,2.47a4.18,4.18,0,0,1-2.45-3.06c-.09-.72,1.77-2.34,2.74-2.32S63.8,168.81,65.89,170.32Z"/><path d="M97.85,165.74c1.34,2.23,2.74,3.53,2.55,4.52a4.16,4.16,0,0,1-3,2.52c-.72.1-2.39-1.73-2.39-2.69C95,169,96.38,167.86,97.85,165.74Z"/><path d="M104.85,174.47c-1.35-2.22-2.76-3.51-2.58-4.5a4.19,4.19,0,0,1,3-2.55c.72-.1,2.4,1.71,2.41,2.67C107.66,171.21,106.31,172.33,104.85,174.47Z"/><path d="M126.66,174.46c-1.4-2.18-2.83-3.43-2.67-4.43a4.16,4.16,0,0,1,2.9-2.61c.72-.12,2.45,1.65,2.48,2.61S128.07,172.29,126.66,174.46Z"/><path d="M203.42,170.2c-2.22,1.36-3.5,2.77-4.49,2.59a4.19,4.19,0,0,1-2.55-3c-.11-.72,1.71-2.41,2.66-2.41C200.17,167.41,201.3,168.76,203.42,170.2Z"/><path d="M217.9,170.14c-2.2,1.39-3.37,2.7-4.48,2.66-.95,0-2.69-1.79-2.57-2.51a4.18,4.18,0,0,1,2.65-2.87C214.5,167.27,215.73,168.72,217.9,170.14Z"/><path d="M257,174.46c-1.4-2.18-2.83-3.43-2.67-4.43a4.16,4.16,0,0,1,2.9-2.61c.72-.12,2.45,1.65,2.48,2.61S258.36,172.29,257,174.46Z"/><path d="M268.57,170.05c-2.16,1.43-3.39,2.88-4.39,2.74a4.18,4.18,0,0,1-2.66-2.86c-.13-.72,1.61-2.49,2.55-2.52C265.21,167.37,266.39,168.68,268.57,170.05Z"/><path d="M290.28,170c-2.15,1.44-3.37,2.9-4.37,2.77a4.16,4.16,0,0,1-2.67-2.84c-.14-.73,1.58-2.49,2.54-2.54C286.89,167.35,288.07,168.65,290.28,170Z"/><path d="M32.71,173c1.34,2.22,2.74,3.52,2.55,4.51a4.19,4.19,0,0,1-3,2.53c-.72.1-2.39-1.73-2.39-2.69C29.88,176.22,31.24,175.1,32.71,173Z"/><path d="M47.13,181.7c-1.44-2.14-2.9-3.36-2.76-4.36a4.12,4.12,0,0,1,2.83-2.68c.73-.13,2.5,1.59,2.54,2.54C49.8,178.31,48.5,179.5,47.13,181.7Z"/><path d="M61.75,173c1.3,2.27,2.67,3.6,2.46,4.59a4.18,4.18,0,0,1-3,2.45c-.72.08-2.35-1.78-2.33-2.74C58.85,176.15,60.24,175.07,61.75,173Z"/><path d="M76,173c1.43,2.15,2.88,3.38,2.74,4.38A4.16,4.16,0,0,1,75.83,180c-.72.13-2.48-1.6-2.52-2.56C73.26,176.35,74.57,175.18,76,173Z"/><path d="M90.7,173c1.3,2.26,2.68,3.59,2.46,4.57a4.14,4.14,0,0,1-3,2.46c-.72.09-2.34-1.78-2.33-2.74C87.81,176.16,89.19,175.07,90.7,173Z"/><path d="M102.08,177.28c-2.15,1.44-3.38,2.89-4.38,2.74A4.13,4.13,0,0,1,95,177.17c-.13-.72,1.61-2.49,2.55-2.52C98.73,174.61,99.91,175.92,102.08,177.28Z"/><path d="M109.32,177.38c-2.19,1.39-3.36,2.7-4.47,2.65-1,0-2.7-1.78-2.57-2.5a4.15,4.15,0,0,1,2.64-2.87C105.92,174.51,107.16,176,109.32,177.38Z"/><path d="M116.56,177.35c-2.18,1.4-3.44,2.84-4.43,2.67a4.14,4.14,0,0,1-2.61-2.9c-.12-.72,1.64-2.45,2.6-2.47S114.39,175.94,116.56,177.35Z"/><path d="M119.28,173c1.48,2.11,3,3.31,2.84,4.31a4.15,4.15,0,0,1-2.79,2.73c-.72.15-2.53-1.54-2.59-2.48C116.66,176.42,118,175.21,119.28,173Z"/><path d="M206.28,181.7c-1.4-2.18-2.83-3.43-2.67-4.43a4.15,4.15,0,0,1,2.91-2.61c.72-.12,2.44,1.65,2.47,2.61S207.69,179.53,206.28,181.7Z"/><path d="M217.9,177.16c-2.11,1.49-3.3,3-4.3,2.86a4.15,4.15,0,0,1-2.75-2.77c-.15-.72,1.53-2.55,2.47-2.6C214.45,174.58,215.67,175.85,217.9,177.16Z"/><path d="M228.14,173c1.34,2.22,2.74,3.52,2.55,4.51a4.15,4.15,0,0,1-3,2.53c-.72.1-2.38-1.73-2.39-2.69C225.31,176.22,226.67,175.1,228.14,173Z"/><path d="M246.85,177.16c-2.11,1.49-3.29,3-4.3,2.86a4.11,4.11,0,0,1-2.74-2.77c-.16-.72,1.53-2.55,2.46-2.6C243.41,174.58,244.63,175.85,246.85,177.16Z"/><path d="M254.09,177.16c-2.11,1.49-3.3,3-4.3,2.86a4.15,4.15,0,0,1-2.75-2.77c-.15-.72,1.53-2.54,2.48-2.6C250.63,174.57,251.84,175.84,254.09,177.16Z"/><path d="M261.33,177.28c-2.16,1.43-3.39,2.89-4.38,2.74a4.14,4.14,0,0,1-2.67-2.85c-.13-.72,1.61-2.49,2.55-2.52C258,174.61,259.15,175.92,261.33,177.28Z"/><path d="M54.27,188.94c-1.4-2.18-2.83-3.44-2.67-4.43a4.19,4.19,0,0,1,2.91-2.61c.72-.12,2.45,1.65,2.47,2.61C57,185.62,55.68,186.77,54.27,188.94Z"/><path d="M61.33,188.94c-1.31-2.25-2.7-3.57-2.49-4.56a4.16,4.16,0,0,1,3-2.47c.72-.09,2.35,1.76,2.34,2.73S62.83,186.84,61.33,188.94Z"/><path d="M68.66,188.94c-1.36-2.21-2.76-3.5-2.58-4.49a4.19,4.19,0,0,1,3-2.55c.72-.1,2.4,1.71,2.41,2.67C71.47,185.68,70.12,186.81,68.66,188.94Z"/><path d="M116.56,184.4c-2.11,1.49-3.3,3-4.3,2.86a4.15,4.15,0,0,1-2.75-2.77c-.15-.72,1.53-2.54,2.48-2.61C113.1,181.8,114.31,183.08,116.56,184.4Z"/><path d="M123.8,184.78c-2.26,1.31-3.58,2.69-4.57,2.48a4.18,4.18,0,0,1-2.47-3c-.09-.72,1.77-2.37,2.73-2.35C120.62,181.91,121.71,183.29,123.8,184.78Z"/><path d="M203.42,184.59c-2.18,1.4-3.44,2.83-4.43,2.67a4.14,4.14,0,0,1-2.61-2.9c-.12-.72,1.64-2.45,2.6-2.48C200.09,181.85,201.25,183.18,203.42,184.59Z"/><path d="M206.28,188.94c-1.4-2.18-2.83-3.43-2.67-4.43a4.15,4.15,0,0,1,2.91-2.61c.72-.12,2.44,1.65,2.47,2.61C209,185.62,207.69,186.77,206.28,188.94Z"/><path d="M217.9,184.68c-2.22,1.36-3.51,2.77-4.5,2.58a4.19,4.19,0,0,1-2.55-3c-.1-.72,1.71-2.4,2.67-2.41C214.64,181.87,215.76,183.23,217.9,184.68Z"/><path d="M235.38,180.21c1.34,2.23,2.74,3.53,2.55,4.52a4.17,4.17,0,0,1-3,2.53c-.72.09-2.4-1.74-2.39-2.69C232.56,183.44,233.93,182.32,235.38,180.21Z"/><path d="M246.85,184.71c-2.23,1.34-3.53,2.74-4.52,2.55a4.14,4.14,0,0,1-2.52-3c-.1-.72,1.73-2.39,2.68-2.39C243.62,181.89,244.74,183.26,246.85,184.71Z"/><path d="M257.14,188.94c-1.49-2.11-3-3.29-2.86-4.29a4.15,4.15,0,0,1,2.77-2.75c.72-.15,2.54,1.52,2.61,2.47C259.74,185.48,258.46,186.7,257.14,188.94Z"/><path d="M268.57,184.52c-2.16,1.43-3.39,2.89-4.39,2.74a4.15,4.15,0,0,1-2.66-2.85c-.13-.72,1.61-2.49,2.55-2.52C265.21,181.85,266.39,183.16,268.57,184.52Z"/><path d="M290.28,184.6c-2.18,1.39-3.44,2.82-4.43,2.66a4.13,4.13,0,0,1-2.61-2.91c-.12-.72,1.65-2.44,2.6-2.47C287,181.85,288.11,183.18,290.28,184.6Z"/><path d="M297.52,184.5c-2.15,1.44-3.37,2.9-4.37,2.76a4.14,4.14,0,0,1-2.67-2.84c-.14-.72,1.58-2.49,2.53-2.54C294.13,181.83,295.31,183.13,297.52,184.5Z"/><path d="M123.8,32.71c-2.23,1.34-3.53,2.74-4.52,2.55a4.18,4.18,0,0,1-2.52-3c-.1-.71,1.72-2.38,2.69-2.38S121.67,31.24,123.8,32.71Z"/><path d="M36.94,191.92c-2.22,1.36-3.51,2.77-4.5,2.58a4.15,4.15,0,0,1-2.54-3c-.11-.72,1.71-2.41,2.66-2.41C33.69,189.13,34.82,190.48,36.94,191.92Z"/><path d="M58.65,192c-2.23,1.34-3.52,2.74-4.51,2.55a4.17,4.17,0,0,1-2.53-3c-.1-.72,1.72-2.39,2.69-2.39S56.53,190.48,58.65,192Z"/><path d="M73.13,191.64c-2.11,1.49-3.3,3-4.3,2.86a4.15,4.15,0,0,1-2.75-2.77c-.15-.73,1.53-2.54,2.48-2.61C69.67,189,70.88,190.32,73.13,191.64Z"/><path d="M80.37,192c-2.27,1.3-3.6,2.68-4.58,2.46a4.18,4.18,0,0,1-2.46-3.05c-.08-.72,1.78-2.35,2.75-2.33S78.28,190.53,80.37,192Z"/><path d="M87.6,191.64c-2.1,1.49-3.29,3-4.29,2.86a4.15,4.15,0,0,1-2.75-2.77c-.15-.73,1.53-2.54,2.47-2.61C84.15,189,85.36,190.32,87.6,191.64Z"/><path d="M90.7,187.45c1.3,2.27,2.68,3.6,2.46,4.58a4.16,4.16,0,0,1-3,2.46c-.72.08-2.34-1.78-2.33-2.75S89.19,189.54,90.7,187.45Z"/><path d="M97.89,196.18c-1.48-2.11-3-3.3-2.85-4.3a4.11,4.11,0,0,1,2.77-2.74c.72-.16,2.53,1.52,2.6,2.47C100.49,192.72,99.21,193.94,97.89,196.18Z"/><path d="M109.32,191.64c-2.11,1.49-3.3,3-4.3,2.86a4.11,4.11,0,0,1-2.74-2.77c-.16-.73,1.52-2.54,2.47-2.61C105.86,189,107.08,190.32,109.32,191.64Z"/><path d="M199.23,196.18c-1.49-2.11-3-3.29-2.86-4.3a4.11,4.11,0,0,1,2.77-2.74c.73-.16,2.55,1.53,2.61,2.47C201.82,192.74,200.54,194,199.23,196.18Z"/><path d="M206.09,196.18c-1.3-2.25-2.69-3.57-2.48-4.56a4.19,4.19,0,0,1,3-2.48c.72-.08,2.35,1.77,2.34,2.74S207.59,194.08,206.09,196.18Z"/><path d="M242.47,196.18c-1.4-2.18-2.83-3.44-2.67-4.43a4.17,4.17,0,0,1,2.91-2.61c.72-.12,2.44,1.65,2.47,2.61C245.21,192.86,243.88,194,242.47,196.18Z"/><path d="M261.33,191.76c-2.16,1.43-3.39,2.88-4.39,2.74a4.16,4.16,0,0,1-2.66-2.86c-.13-.72,1.61-2.49,2.56-2.52C258,189.09,259.15,190.4,261.33,191.76Z"/><path d="M264.43,187.45c1.29,2.27,2.67,3.6,2.45,4.58a4.16,4.16,0,0,1-3.05,2.46c-.72.08-2.34-1.78-2.32-2.75S262.91,189.54,264.43,187.45Z"/><path d="M275.8,191.92c-2.21,1.36-3.5,2.77-4.49,2.58a4.19,4.19,0,0,1-2.55-3c-.1-.72,1.71-2.4,2.67-2.41C272.54,189.11,273.67,190.47,275.8,191.92Z"/><path d="M283,192c-2.23,1.34-3.53,2.74-4.52,2.55a4.16,4.16,0,0,1-2.52-3c-.1-.72,1.73-2.39,2.69-2.39C279.8,189.12,280.92,190.48,283,192Z"/><path d="M290.28,192c-2.26,1.3-3.59,2.67-4.58,2.46a4.2,4.2,0,0,1-2.46-3.05c-.08-.72,1.79-2.35,2.75-2.33C287.11,189.15,288.2,190.54,290.28,192Z"/><path d="M44.18,198.9c-2.12,1.48-3.31,3-4.32,2.84A4.15,4.15,0,0,1,37.13,199c-.15-.72,1.54-2.52,2.49-2.59C40.73,196.29,41.94,197.57,44.18,198.9Z"/><path d="M47.13,203.42c-1.44-2.15-2.9-3.37-2.76-4.37a4.13,4.13,0,0,1,2.83-2.67c.73-.14,2.51,1.59,2.54,2.53C49.79,200.05,48.48,201.23,47.13,203.42Z"/><path d="M58.65,199.19c-2.23,1.34-3.52,2.74-4.51,2.55a4.19,4.19,0,0,1-2.53-3c-.1-.72,1.72-2.39,2.69-2.39S56.53,197.72,58.65,199.19Z"/><path d="M73.13,199.09c-2.19,1.39-3.36,2.71-4.48,2.66-1,0-2.69-1.79-2.56-2.51a4.15,4.15,0,0,1,2.64-2.87C69.73,196.22,71,197.67,73.13,199.09Z"/><path d="M86.12,198.83c2.26-1.29,3.59-2.67,4.57-2.46a4.16,4.16,0,0,1,2.46,3c.08.72-1.78,2.36-2.74,2.33C89.28,201.72,88.19,200.34,86.12,198.83Z"/><path d="M126.85,203.42c-1.49-2.11-3-3.29-2.86-4.3a4.11,4.11,0,0,1,2.77-2.74c.72-.16,2.55,1.53,2.61,2.46C129.43,200,128.16,201.19,126.85,203.42Z"/><path d="M199.23,203.42c-1.49-2.11-3-3.29-2.86-4.3a4.11,4.11,0,0,1,2.77-2.74c.73-.16,2.55,1.53,2.61,2.46C201.82,200,200.54,201.2,199.23,203.42Z"/><path d="M206.24,194.69c1.43,2.16,2.88,3.39,2.74,4.39a4.15,4.15,0,0,1-2.86,2.65c-.72.14-2.49-1.61-2.52-2.55C203.56,198.05,204.87,196.87,206.24,194.69Z"/><path d="M225.14,199.19c-2.23,1.34-3.53,2.74-4.52,2.55a4.19,4.19,0,0,1-2.53-3c-.1-.72,1.73-2.39,2.69-2.39S223,197.72,225.14,199.19Z"/><path d="M261.32,199c-2.14,1.45-3.36,2.91-4.36,2.77a4.16,4.16,0,0,1-2.68-2.84c-.13-.72,1.59-2.49,2.54-2.54C257.94,196.3,259.12,197.61,261.32,199Z"/><path d="M259.84,198.83c2.26-1.29,3.59-2.67,4.58-2.46a4.17,4.17,0,0,1,2.45,3c.09.72-1.78,2.36-2.74,2.33C263,201.72,261.92,200.34,259.84,198.83Z"/><path d="M283,198.88c-2.11,1.49-3.29,3-4.3,2.86A4.13,4.13,0,0,1,276,199c-.15-.73,1.53-2.55,2.47-2.61C279.6,196.29,280.82,197.57,283,198.88Z"/><path d="M44.18,206.12c-2.11,1.49-3.3,3-4.3,2.86a4.17,4.17,0,0,1-2.75-2.77c-.15-.73,1.52-2.54,2.47-2.61C40.72,203.52,41.93,204.8,44.18,206.12Z"/><path d="M75.8,210.66c-1.31-2.26-2.69-3.58-2.48-4.57a4.18,4.18,0,0,1,3-2.47c.72-.09,2.35,1.77,2.34,2.73C78.68,207.46,77.3,208.56,75.8,210.66Z"/><path d="M94.84,206.12c-2.1,1.49-3.29,3-4.29,2.86a4.17,4.17,0,0,1-2.75-2.77c-.15-.73,1.52-2.54,2.47-2.61C91.38,203.52,92.6,204.8,94.84,206.12Z"/><path d="M116.56,206.52c-2.26,1.29-3.59,2.67-4.58,2.46a4.22,4.22,0,0,1-2.46-3c-.08-.72,1.79-2.36,2.75-2.33C113.39,203.63,114.48,205,116.56,206.52Z"/><path d="M123.8,206.21c-2.15,1.45-3.37,2.91-4.37,2.77a4.2,4.2,0,0,1-2.68-2.84c-.13-.72,1.59-2.49,2.54-2.54C120.41,203.54,121.59,204.85,123.8,206.21Z"/><path d="M133.71,210.66c-1.31-2.26-2.69-3.58-2.48-4.57a4.18,4.18,0,0,1,3-2.47c.72-.09,2.36,1.77,2.35,2.73C136.59,207.46,135.21,208.56,133.71,210.66Z"/><path d="M141.33,210.66c-1.49-2.11-3-3.3-2.86-4.3a4.15,4.15,0,0,1,2.76-2.75c.73-.15,2.55,1.53,2.61,2.47C143.91,207.22,142.63,208.43,141.33,210.66Z"/><path d="M163,201.93c1.34,2.23,2.74,3.53,2.55,4.52a4.18,4.18,0,0,1-3,2.52c-.72.1-2.4-1.73-2.39-2.68C160.18,205.16,161.54,204,163,201.93Z"/><path d="M174.46,206.31c-2.18,1.4-3.43,2.83-4.43,2.67a4.17,4.17,0,0,1-2.61-2.91c-.12-.72,1.65-2.44,2.61-2.47S172.29,204.9,174.46,206.31Z"/><path d="M191.76,201.93c1.43,2.15,2.88,3.38,2.74,4.38a4.15,4.15,0,0,1-2.85,2.66c-.72.14-2.48-1.6-2.53-2.55C189.07,205.31,190.38,204.13,191.76,201.93Z"/><path d="M199.28,201.93c1.3,2.26,2.67,3.59,2.46,4.58a4.22,4.22,0,0,1-3.06,2.46c-.71.08-2.34-1.79-2.32-2.75S197.77,204,199.28,201.93Z"/><path d="M206.47,210.66c-1.49-2.11-3-3.3-2.86-4.3a4.15,4.15,0,0,1,2.77-2.75c.73-.15,2.55,1.54,2.61,2.47C209.06,207.22,207.78,208.43,206.47,210.66Z"/><path d="M217.9,206.14c-2.12,1.48-3.31,3-4.32,2.84a4.17,4.17,0,0,1-2.73-2.79c-.15-.72,1.54-2.53,2.49-2.59C214.45,203.52,215.66,204.81,217.9,206.14Z"/><path d="M221,201.93c1.29,2.26,2.67,3.59,2.45,4.58a4.18,4.18,0,0,1-3,2.46c-.72.08-2.34-1.79-2.32-2.75S219.48,204,221,201.93Z"/><path d="M239.61,206.31c-2.18,1.4-3.44,2.83-4.43,2.67a4.17,4.17,0,0,1-2.61-2.91c-.12-.72,1.65-2.44,2.6-2.47C236.29,203.57,237.44,204.9,239.61,206.31Z"/><path d="M245.36,206.07c2.26-1.3,3.59-2.67,4.58-2.46a4.2,4.2,0,0,1,2.46,3c.08.72-1.79,2.35-2.75,2.33C248.53,209,247.44,207.57,245.36,206.07Z"/><path d="M268.56,206.21c-2.14,1.45-3.36,2.91-4.36,2.77a4.18,4.18,0,0,1-2.68-2.84c-.13-.72,1.59-2.49,2.54-2.54C265.17,203.54,266.36,204.85,268.56,206.21Z"/><path d="M271.48,201.93c1.38,2.19,2.7,3.36,2.65,4.47,0,1-1.78,2.7-2.51,2.57a4.14,4.14,0,0,1-2.86-2.64C268.62,205.31,270.07,204.07,271.48,201.93Z"/><path d="M278.86,210.66c-1.49-2.11-3-3.3-2.87-4.3a4.19,4.19,0,0,1,2.77-2.75c.73-.15,2.55,1.53,2.61,2.47C281.44,207.22,280.16,208.43,278.86,210.66Z"/><path d="M297.52,206.4c-2.22,1.35-3.5,2.76-4.5,2.58a4.15,4.15,0,0,1-2.54-3c-.11-.72,1.71-2.41,2.66-2.41C294.27,203.6,295.4,205,297.52,206.4Z"/><path d="M32.51,209.17c1.44,2.15,2.89,3.38,2.75,4.38a4.16,4.16,0,0,1-2.86,2.66c-.72.13-2.48-1.6-2.52-2.55C29.83,212.54,31.14,211.37,32.51,209.17Z"/><path d="M57.16,213.31c2.26-1.3,3.59-2.67,4.58-2.46a4.2,4.2,0,0,1,2.46,3.05c.08.72-1.79,2.35-2.75,2.33C60.33,216.2,59.24,214.81,57.16,213.31Z"/><path d="M83,217.89c-1.31-2.25-2.69-3.57-2.48-4.56a4.18,4.18,0,0,1,3-2.47c.72-.09,2.36,1.77,2.35,2.73S84.54,215.8,83,217.89Z"/><path d="M90.32,209.17c1.48,2.12,3,3.31,2.84,4.31a4.11,4.11,0,0,1-2.78,2.73c-.73.15-2.53-1.53-2.59-2.48C87.71,212.61,89,211.41,90.32,209.17Z"/><path d="M116.56,213.36c-2.11,1.49-3.3,3-4.3,2.86a4.18,4.18,0,0,1-2.75-2.78c-.15-.72,1.53-2.53,2.48-2.6C113.1,210.76,114.31,212,116.56,213.36Z"/><path d="M126.57,217.9c-1.36-2.22-2.77-3.51-2.58-4.5a4.19,4.19,0,0,1,3-2.55c.72-.1,2.4,1.71,2.41,2.67C129.38,214.64,128,215.76,126.57,217.9Z"/><path d="M138.27,213.55c-2.18,1.4-3.44,2.83-4.43,2.67a4.19,4.19,0,0,1-2.61-2.91c-.12-.72,1.65-2.44,2.61-2.47S136.1,212.14,138.27,213.55Z"/><path d="M152.75,213.36c-2.11,1.49-3.3,3-4.3,2.86a4.15,4.15,0,0,1-2.74-2.78c-.16-.72,1.52-2.53,2.47-2.6C149.29,210.76,150.51,212,152.75,213.36Z"/><path d="M170.18,217.89c-1.44-2.14-2.9-3.36-2.76-4.36a4.16,4.16,0,0,1,2.84-2.68c.72-.13,2.49,1.59,2.54,2.54C172.85,214.51,171.55,215.69,170.18,217.89Z"/><path d="M181.7,213.36c-2.11,1.49-3.29,3-4.3,2.86a4.19,4.19,0,0,1-2.74-2.78c-.15-.72,1.52-2.53,2.47-2.6C178.25,210.76,179.46,212,181.7,213.36Z"/><path d="M188.94,213.45c-2.14,1.44-3.36,2.9-4.36,2.77a4.16,4.16,0,0,1-2.68-2.84c-.14-.73,1.59-2.49,2.54-2.54C185.55,210.78,186.73,212.09,188.94,213.45Z"/><path d="M213.33,217.89c-1.31-2.25-2.69-3.57-2.48-4.56a4.18,4.18,0,0,1,3-2.47c.71-.09,2.35,1.77,2.34,2.73S214.83,215.8,213.33,217.89Z"/><path d="M246.85,213.45c-2.15,1.44-3.37,2.9-4.37,2.77a4.16,4.16,0,0,1-2.67-2.84c-.14-.73,1.58-2.49,2.54-2.54C243.46,210.78,244.64,212.09,246.85,213.45Z"/><path d="M254.09,213.55c-2.18,1.39-3.44,2.83-4.43,2.67a4.17,4.17,0,0,1-2.61-2.91c-.12-.72,1.64-2.44,2.6-2.47S251.92,212.13,254.09,213.55Z"/><path d="M256.8,209.17c1.49,2.12,3,3.31,2.85,4.31a4.15,4.15,0,0,1-2.79,2.73c-.72.15-2.53-1.53-2.59-2.48C254.19,212.61,255.48,211.41,256.8,209.17Z"/><path d="M268.56,213.55c-2.18,1.4-3.43,2.83-4.43,2.67a4.19,4.19,0,0,1-2.61-2.91c-.12-.72,1.65-2.44,2.61-2.47C265.24,210.81,266.39,212.14,268.56,213.55Z"/><path d="M61.33,225.13c-1.31-2.25-2.7-3.57-2.49-4.56a4.18,4.18,0,0,1,3-2.47c.72-.09,2.35,1.76,2.34,2.73S62.83,223,61.33,225.13Z"/><path d="M73.13,221c-2.25,1.31-3.58,2.69-4.56,2.48a4.17,4.17,0,0,1-2.48-3c-.09-.72,1.77-2.37,2.73-2.34C70,218.1,71,219.48,73.13,221Z"/><path d="M80.36,220.78c-2.18,1.4-3.43,2.84-4.43,2.67a4.16,4.16,0,0,1-2.61-2.9c-.12-.72,1.66-2.46,2.61-2.47C77.06,218.06,78.22,219.39,80.36,220.78Z"/><path d="M109.32,220.81c-2.19,1.39-3.36,2.7-4.47,2.66-1,0-2.7-1.79-2.57-2.51a4.13,4.13,0,0,1,2.64-2.87C106,218,107.18,219.4,109.32,220.81Z"/><path d="M131,220.71c-2.16,1.43-3.39,2.89-4.39,2.74A4.15,4.15,0,0,1,124,220.6c-.13-.72,1.61-2.49,2.55-2.52C127.68,218,128.86,219.35,131,220.71Z"/><path d="M152.75,220.71c-2.15,1.44-3.38,2.89-4.38,2.74a4.13,4.13,0,0,1-2.66-2.85c-.13-.72,1.6-2.48,2.55-2.52C149.38,218,150.55,219.34,152.75,220.71Z"/><path d="M155.52,225.13c-1.35-2.21-2.76-3.5-2.58-4.49a4.19,4.19,0,0,1,3-2.55c.72-.1,2.4,1.71,2.41,2.67C158.33,221.87,157,223,155.52,225.13Z"/><path d="M181.7,220.71c-2.15,1.43-3.38,2.89-4.38,2.74a4.15,4.15,0,0,1-2.66-2.85c-.13-.72,1.61-2.49,2.55-2.52C178.35,218,179.53,219.35,181.7,220.71Z"/><path d="M184.8,216.4c1.3,2.27,2.68,3.6,2.46,4.59a4.17,4.17,0,0,1-3,2.45c-.72.09-2.35-1.78-2.33-2.74C181.9,219.58,183.29,218.5,184.8,216.4Z"/><path d="M225.13,220.78c-2.18,1.4-3.43,2.84-4.43,2.67a4.16,4.16,0,0,1-2.61-2.9c-.12-.72,1.65-2.45,2.61-2.47C221.81,218,223,219.37,225.13,220.78Z"/><path d="M232.37,220.69c-2.14,1.44-3.36,2.9-4.36,2.76a4.12,4.12,0,0,1-2.68-2.83c-.14-.73,1.59-2.5,2.54-2.54C229,218,230.16,219.32,232.37,220.69Z"/><path d="M246.85,220.59c-2.11,1.49-3.29,3-4.3,2.86a4.11,4.11,0,0,1-2.74-2.77c-.16-.72,1.53-2.55,2.46-2.6C243.41,218,244.63,219.28,246.85,220.59Z"/><path d="M249.9,225.14c-1.49-2.11-3-3.3-2.86-4.3a4.15,4.15,0,0,1,2.77-2.75c.72-.15,2.55,1.53,2.61,2.47C252.49,221.69,251.21,222.91,249.9,225.14Z"/><path d="M256.9,216.41c1.44,2.15,2.89,3.38,2.75,4.38a4.18,4.18,0,0,1-2.86,2.66c-.72.13-2.48-1.6-2.52-2.55C254.22,219.78,255.53,218.61,256.9,216.41Z"/><path d="M283,220.9c-2.23,1.34-3.52,2.75-4.51,2.55a4.15,4.15,0,0,1-2.53-3c-.1-.71,1.72-2.38,2.69-2.38S280.92,219.43,283,220.9Z"/><path d="M46.94,232.37c-1.35-2.21-2.76-3.5-2.57-4.49a4.17,4.17,0,0,1,3-2.55c.71-.1,2.4,1.71,2.4,2.67C49.75,229.11,48.4,230.24,46.94,232.37Z"/><path d="M54.46,232.37c-1.49-2.11-3-3.29-2.85-4.3a4.13,4.13,0,0,1,2.77-2.74c.72-.15,2.53,1.52,2.6,2.47C57.06,228.92,55.78,230.13,54.46,232.37Z"/><path d="M65.89,227.83c-2.11,1.49-3.3,3-4.3,2.86a4.11,4.11,0,0,1-2.74-2.77c-.16-.72,1.52-2.54,2.47-2.6C62.43,225.23,63.65,226.51,65.89,227.83Z"/><path d="M68.75,232.37c-1.4-2.18-2.83-3.44-2.67-4.43A4.17,4.17,0,0,1,69,225.33c.72-.12,2.44,1.65,2.47,2.61C71.49,229.05,70.16,230.2,68.75,232.37Z"/><path d="M87.61,228.05c-2.2,1.38-3.37,2.7-4.48,2.65-.95,0-2.7-1.78-2.57-2.51a4.13,4.13,0,0,1,2.65-2.86C84.21,225.18,85.44,226.62,87.61,228.05Z"/><path d="M102.08,227.93c-2.14,1.44-3.36,2.9-4.36,2.76A4.14,4.14,0,0,1,95,227.85c-.14-.72,1.58-2.49,2.54-2.54C98.69,225.26,99.87,226.56,102.08,227.93Z"/><path d="M116.56,228c-2.16,1.44-3.39,2.89-4.38,2.74a4.13,4.13,0,0,1-2.66-2.85c-.14-.73,1.6-2.48,2.55-2.53C113.18,225.26,114.36,226.57,116.56,228Z"/><path d="M131,228c-2.16,1.44-3.39,2.89-4.39,2.74a4.17,4.17,0,0,1-2.66-2.85c-.13-.73,1.6-2.48,2.56-2.53C127.66,225.26,128.84,226.57,131,228Z"/><path d="M134.05,223.64c1.34,2.23,2.74,3.53,2.54,4.52a4.17,4.17,0,0,1-3,2.53c-.72.1-2.39-1.74-2.38-2.69C131.23,226.87,132.59,225.75,134.05,223.64Z"/><path d="M160,227.93c-2.15,1.44-3.37,2.9-4.37,2.76a4.14,4.14,0,0,1-2.67-2.84c-.14-.72,1.58-2.49,2.53-2.54C156.6,225.26,157.78,226.56,160,227.93Z"/><path d="M162.66,232.37c-1.31-2.25-2.69-3.57-2.48-4.56a4.18,4.18,0,0,1,3-2.47c.72-.09,2.35,1.76,2.34,2.73S164.16,230.27,162.66,232.37Z"/><path d="M188.94,228c-2.18,1.4-3.43,2.83-4.43,2.67a4.16,4.16,0,0,1-2.61-2.9c-.12-.72,1.65-2.45,2.61-2.48C185.62,225.28,186.77,226.61,188.94,228Z"/><path d="M210.66,227.83c-2.11,1.49-3.3,3-4.3,2.86a4.15,4.15,0,0,1-2.75-2.77c-.15-.72,1.54-2.55,2.47-2.6C207.22,225.25,208.43,226.52,210.66,227.83Z"/><path d="M213.75,223.64c1.3,2.27,2.68,3.6,2.47,4.58a4.17,4.17,0,0,1-3.06,2.46c-.71.08-2.35-1.78-2.32-2.74C210.87,226.81,212.25,225.72,213.75,223.64Z"/><path d="M232.37,227.93c-2.14,1.44-3.36,2.9-4.36,2.76a4.14,4.14,0,0,1-2.68-2.84c-.14-.72,1.59-2.49,2.54-2.54C229,225.26,230.16,226.56,232.37,227.93Z"/><path d="M239.61,228.14c-2.23,1.35-3.53,2.75-4.52,2.55a4.16,4.16,0,0,1-2.52-3c-.1-.72,1.73-2.38,2.69-2.39C236.37,225.31,237.49,226.67,239.61,228.14Z"/><path d="M275.8,228.05c-2.19,1.38-3.36,2.7-4.47,2.65-1,0-2.7-1.78-2.57-2.51a4.14,4.14,0,0,1,2.64-2.86C272.43,225.19,273.66,226.64,275.8,228.05Z"/><path d="M283,227.83c-2.11,1.49-3.29,3-4.3,2.86a4.13,4.13,0,0,1-2.74-2.77c-.15-.72,1.53-2.55,2.47-2.6C279.6,225.25,280.82,226.52,283,227.83Z"/><path d="M293.24,232.37c-1.45-2.14-2.91-3.36-2.77-4.36a4.14,4.14,0,0,1,2.84-2.68c.72-.14,2.49,1.59,2.54,2.54C295.91,229,294.6,230.16,293.24,232.37Z"/><path d="M32.51,230.88c1.44,2.16,2.89,3.39,2.75,4.38a4.17,4.17,0,0,1-2.86,2.67c-.72.13-2.48-1.6-2.52-2.56C29.83,234.26,31.14,233.08,32.51,230.88Z"/><path d="M39.8,239.61c-1.4-2.18-2.83-3.44-2.67-4.43a4.16,4.16,0,0,1,2.9-2.61c.72-.12,2.46,1.66,2.48,2.6C42.52,236.31,41.19,237.46,39.8,239.61Z"/><path d="M80.37,235.29c-2.19,1.38-3.36,2.7-4.48,2.65-1,0-2.69-1.79-2.57-2.51A4.18,4.18,0,0,1,76,232.56C77,232.42,78.2,233.86,80.37,235.29Z"/><path d="M83.23,239.61c-1.4-2.18-2.83-3.44-2.67-4.43a4.16,4.16,0,0,1,2.9-2.61c.72-.12,2.46,1.66,2.48,2.6C86,236.31,84.62,237.46,83.23,239.61Z"/><path d="M90.28,239.61c-1.31-2.25-2.69-3.57-2.48-4.56a4.16,4.16,0,0,1,3-2.47c.72-.09,2.36,1.76,2.35,2.73S91.78,237.51,90.28,239.61Z"/><path d="M104.94,239.61c-1.4-2.18-2.83-3.44-2.67-4.43a4.17,4.17,0,0,1,2.91-2.61c.72-.12,2.44,1.65,2.47,2.61S106.35,237.44,104.94,239.61Z"/><path d="M131,235.38c-2.23,1.34-3.53,2.74-4.52,2.55a4.17,4.17,0,0,1-2.53-3c-.09-.72,1.73-2.39,2.69-2.39C127.8,232.55,128.91,233.91,131,235.38Z"/><path d="M145.51,235.26c-2.18,1.4-3.43,2.83-4.43,2.67a4.16,4.16,0,0,1-2.61-2.9c-.12-.72,1.65-2.45,2.6-2.48C142.19,232.52,143.34,233.85,145.51,235.26Z"/><path d="M152.75,235.07c-2.11,1.49-3.3,3-4.3,2.86a4.11,4.11,0,0,1-2.74-2.77c-.16-.73,1.52-2.54,2.47-2.61C149.29,232.47,150.51,233.75,152.75,235.07Z"/><path d="M162.81,230.88c1.43,2.16,2.88,3.39,2.74,4.39a4.18,4.18,0,0,1-2.86,2.66c-.72.13-2.49-1.61-2.52-2.56C160.13,234.24,161.44,233.06,162.81,230.88Z"/><path d="M174.46,235.17c-2.14,1.44-3.36,2.9-4.36,2.76a4.16,4.16,0,0,1-2.68-2.84c-.13-.72,1.59-2.49,2.54-2.54C171.07,232.5,172.26,233.8,174.46,235.17Z"/><path d="M181.7,235.19c-2.15,1.43-3.38,2.88-4.38,2.74a4.17,4.17,0,0,1-2.66-2.85c-.13-.73,1.6-2.48,2.56-2.53C178.33,232.5,179.51,233.81,181.7,235.19Z"/><path d="M184.71,230.88c1.34,2.23,2.74,3.53,2.55,4.52a4.14,4.14,0,0,1-3,2.52c-.72.1-2.38-1.72-2.39-2.68C181.88,234.12,183.24,233,184.71,230.88Z"/><path d="M203.42,235.26c-2.18,1.4-3.44,2.83-4.43,2.67a4.14,4.14,0,0,1-2.61-2.9c-.12-.72,1.64-2.45,2.6-2.48C200.09,232.52,201.25,233.85,203.42,235.26Z"/><path d="M206.23,230.88c1.44,2.16,2.89,3.39,2.75,4.38a4.17,4.17,0,0,1-2.86,2.67c-.72.13-2.48-1.6-2.52-2.56C203.55,234.26,204.86,233.08,206.23,230.88Z"/><path d="M217.9,235.38c-2.23,1.34-3.53,2.74-4.52,2.55a4.19,4.19,0,0,1-2.53-3c-.09-.72,1.73-2.39,2.69-2.39C214.65,232.55,215.77,233.91,217.9,235.38Z"/><path d="M220.57,239.61c-1.31-2.25-2.69-3.57-2.48-4.56a4.16,4.16,0,0,1,3-2.47c.72-.09,2.36,1.76,2.35,2.73S222.07,237.51,220.57,239.61Z"/><path d="M239.61,235.17c-2.14,1.44-3.37,2.9-4.36,2.76a4.14,4.14,0,0,1-2.68-2.84c-.14-.72,1.58-2.49,2.54-2.54S237.4,233.8,239.61,235.17Z"/><path d="M246.85,235.35c-2.22,1.36-3.5,2.76-4.49,2.58a4.19,4.19,0,0,1-2.55-3c-.11-.72,1.71-2.41,2.66-2.41C243.6,232.56,244.73,233.91,246.85,235.35Z"/><path d="M254.09,235.35c-2.22,1.36-3.51,2.77-4.5,2.58a4.15,4.15,0,0,1-2.54-3c-.11-.72,1.7-2.4,2.67-2.41S252,233.9,254.09,235.35Z"/><path d="M257,230.88c1.39,2.2,2.7,3.36,2.66,4.48,0,.95-1.79,2.69-2.51,2.57a4.15,4.15,0,0,1-2.87-2.65C254.14,234.26,255.59,233,257,230.88Z"/><path d="M264.38,239.61c-1.49-2.11-3-3.29-2.86-4.3a4.13,4.13,0,0,1,2.77-2.74c.72-.16,2.55,1.53,2.6,2.47C267,236.17,265.69,237.39,264.38,239.61Z"/><path d="M275.8,235.26c-2.18,1.4-3.43,2.83-4.43,2.67a4.16,4.16,0,0,1-2.61-2.9c-.12-.72,1.65-2.45,2.61-2.48C272.48,232.52,273.63,233.85,275.8,235.26Z"/><path d="M90.42,238.12c1.43,2.16,2.89,3.38,2.74,4.38a4.11,4.11,0,0,1-2.85,2.66c-.72.14-2.48-1.59-2.52-2.55C87.73,241.5,89,240.32,90.42,238.12Z"/><path d="M102.08,242.4c-2.14,1.45-3.36,2.91-4.36,2.77A4.14,4.14,0,0,1,95,242.33c-.14-.72,1.58-2.49,2.54-2.54C98.69,239.73,99.87,241,102.08,242.4Z"/><path d="M109.32,242.4c-2.15,1.45-3.37,2.91-4.37,2.77a4.14,4.14,0,0,1-2.67-2.84c-.14-.72,1.58-2.49,2.54-2.54C105.93,239.73,107.11,241,109.32,242.4Z"/><path d="M123.8,242.31c-2.11,1.49-3.3,3-4.3,2.86a4.15,4.15,0,0,1-2.75-2.77c-.15-.73,1.53-2.54,2.48-2.61C120.34,239.71,121.55,241,123.8,242.31Z"/><path d="M126.47,246.85c-1.31-2.25-2.69-3.58-2.48-4.56a4.17,4.17,0,0,1,3-2.48c.72-.08,2.36,1.77,2.35,2.73C129.35,243.66,128,244.75,126.47,246.85Z"/><path d="M138.27,242.62c-2.22,1.34-3.52,2.74-4.51,2.55a4.19,4.19,0,0,1-2.53-3c-.1-.72,1.73-2.39,2.69-2.39C135,239.79,136.15,241.15,138.27,242.62Z"/><path d="M160,242.5c-2.18,1.4-3.44,2.83-4.43,2.67a4.13,4.13,0,0,1-2.61-2.91c-.12-.72,1.64-2.44,2.6-2.47S157.82,241.09,160,242.5Z"/><path d="M199.14,246.85c-1.45-2.15-2.91-3.37-2.77-4.37a4.14,4.14,0,0,1,2.84-2.67c.72-.14,2.49,1.58,2.54,2.54C201.81,243.46,200.5,244.64,199.14,246.85Z"/><path d="M220.67,246.85c-1.36-2.22-2.77-3.51-2.58-4.5a4.16,4.16,0,0,1,3-2.54c.72-.11,2.4,1.71,2.41,2.67C223.48,243.59,222.12,244.71,220.67,246.85Z"/><path d="M239.61,242.62c-2.23,1.34-3.53,2.74-4.52,2.55a4.18,4.18,0,0,1-2.52-3c-.1-.72,1.73-2.39,2.69-2.39C236.37,239.79,237.49,241.15,239.61,242.62Z"/><path d="M268.56,242.31c-2.11,1.49-3.29,3-4.29,2.86a4.15,4.15,0,0,1-2.75-2.77c-.15-.73,1.53-2.55,2.47-2.61C265.13,239.72,266.34,241,268.56,242.31Z"/><path d="M297.52,242.31c-2.11,1.49-3.3,3-4.3,2.86a4.15,4.15,0,0,1-2.75-2.77c-.15-.72,1.53-2.55,2.47-2.61C294.08,239.72,295.29,241,297.52,242.31Z"/><path d="M112.37,36.94c-1.49-2.11-3-3.3-2.86-4.3a4.15,4.15,0,0,1,2.77-2.75c.73-.15,2.54,1.52,2.61,2.47C115,33.48,113.69,34.69,112.37,36.94Z"/><path d="M90.28,254.09c-1.31-2.25-2.69-3.58-2.48-4.57a4.18,4.18,0,0,1,3-2.47c.72-.09,2.36,1.77,2.35,2.73S91.78,252,90.28,254.09Z"/><path d="M112,245.36c1.48,2.12,3,3.31,2.84,4.31a4.15,4.15,0,0,1-2.79,2.73c-.72.15-2.52-1.53-2.59-2.48C109.42,248.81,110.71,247.6,112,245.36Z"/><path d="M123.8,250c-2.26,1.29-3.59,2.67-4.58,2.46a4.22,4.22,0,0,1-2.46-3c-.08-.72,1.79-2.36,2.75-2.33C120.63,247.06,121.72,248.44,123.8,250Z"/><path d="M133.85,245.36c1.44,2.16,2.89,3.39,2.74,4.38a4.11,4.11,0,0,1-2.85,2.66c-.72.13-2.49-1.61-2.52-2.55C131.18,248.71,132.49,247.54,133.85,245.36Z"/><path d="M145.51,249.66c-2.15,1.44-3.38,2.89-4.38,2.75a4.18,4.18,0,0,1-2.66-2.86c-.13-.72,1.61-2.49,2.55-2.52C142.16,247,143.34,248.3,145.51,249.66Z"/><path d="M162.85,254.09c-1.4-2.19-2.83-3.44-2.67-4.44a4.14,4.14,0,0,1,2.91-2.6c.72-.12,2.44,1.65,2.47,2.6C165.59,250.77,164.26,251.92,162.85,254.09Z"/><path d="M174.46,249.83c-2.21,1.35-3.5,2.76-4.49,2.58a4.19,4.19,0,0,1-2.55-3c-.1-.72,1.72-2.41,2.67-2.41C171.22,247,172.35,248.39,174.46,249.83Z"/><path d="M181.7,249.86c-2.22,1.34-3.52,2.74-4.51,2.55a4.19,4.19,0,0,1-2.53-3c-.1-.72,1.73-2.39,2.69-2.39C178.46,247,179.58,248.39,181.7,249.86Z"/><path d="M188.94,249.74c-2.18,1.4-3.43,2.83-4.43,2.67a4.17,4.17,0,0,1-2.61-2.91c-.12-.72,1.65-2.44,2.61-2.47C185.62,247,186.77,248.33,188.94,249.74Z"/><path d="M191.9,254.09c-1.45-2.15-2.9-3.37-2.77-4.37A4.2,4.2,0,0,1,192,247c.72-.13,2.49,1.59,2.54,2.54C194.57,250.7,193.26,251.88,191.9,254.09Z"/><path d="M217.9,249.83c-2.22,1.35-3.51,2.76-4.5,2.58a4.19,4.19,0,0,1-2.55-3c-.1-.72,1.71-2.4,2.67-2.41C214.64,247,215.76,248.37,217.9,249.83Z"/><path d="M220.85,254.09c-1.44-2.15-2.9-3.37-2.76-4.37a4.18,4.18,0,0,1,2.84-2.68c.72-.13,2.49,1.59,2.54,2.54C223.52,250.7,222.22,251.88,220.85,254.09Z"/><path d="M235.19,245.36c1.43,2.15,2.88,3.38,2.74,4.38a4.15,4.15,0,0,1-2.85,2.66c-.72.14-2.48-1.6-2.53-2.55C232.5,248.74,233.81,247.56,235.19,245.36Z"/><path d="M254.09,249.55c-2.11,1.49-3.3,3-4.3,2.86a4.15,4.15,0,0,1-2.75-2.77c-.15-.73,1.53-2.55,2.47-2.61C250.65,247,251.86,248.24,254.09,249.55Z"/><path d="M268.56,249.55c-2.11,1.49-3.29,3-4.29,2.86a4.19,4.19,0,0,1-2.75-2.77c-.15-.73,1.53-2.55,2.47-2.61C265.13,247,266.34,248.24,268.56,249.55Z"/><path d="M293,254.09c-1.3-2.25-2.69-3.58-2.48-4.57a4.18,4.18,0,0,1,3-2.47c.72-.09,2.35,1.77,2.34,2.73S294.45,252,293,254.09Z"/><path d="M109.32,32.52c-2.16,1.43-3.38,2.88-4.38,2.74a4.16,4.16,0,0,1-2.66-2.86c-.13-.72,1.6-2.48,2.55-2.52C106,29.83,107.12,31.14,109.32,32.52Z"/><path d="M109.32,256.79c-2.11,1.49-3.3,3-4.3,2.86a4.15,4.15,0,0,1-2.74-2.78c-.16-.72,1.52-2.53,2.47-2.6C105.86,254.19,107.08,255.47,109.32,256.79Z"/><path d="M112.28,261.32c-1.45-2.14-2.91-3.36-2.77-4.36a4.16,4.16,0,0,1,2.84-2.68c.72-.13,2.49,1.59,2.54,2.54C115,257.94,113.64,259.12,112.28,261.32Z"/><path d="M123.79,257c-2.18,1.39-3.43,2.83-4.42,2.67a4.18,4.18,0,0,1-2.62-2.91c-.11-.72,1.65-2.44,2.61-2.47C120.47,254.24,121.62,255.57,123.79,257Z"/><path d="M133.71,261.33c-1.31-2.26-2.69-3.58-2.48-4.57a4.18,4.18,0,0,1,3-2.47c.72-.09,2.36,1.77,2.35,2.73C136.59,258.13,135.21,259.23,133.71,261.33Z"/><path d="M136.78,256.74c2.27-1.3,3.6-2.67,4.58-2.46a4.18,4.18,0,0,1,2.46,3c.08.72-1.79,2.35-2.74,2.33C140,259.63,138.86,258.24,136.78,256.74Z"/><path d="M152.75,257.1c-2.23,1.34-3.53,2.74-4.52,2.55a4.2,4.2,0,0,1-2.52-3c-.1-.72,1.72-2.39,2.69-2.39S150.62,255.63,152.75,257.1Z"/><path d="M181.7,257c-2.19,1.39-3.36,2.7-4.47,2.66-1,0-2.7-1.79-2.57-2.51a4.13,4.13,0,0,1,2.64-2.87C178.33,254.14,179.56,255.59,181.7,257Z"/><path d="M184.56,261.33c-1.39-2.19-2.83-3.44-2.66-4.44a4.16,4.16,0,0,1,2.9-2.61c.72-.12,2.46,1.66,2.47,2.61C187.29,258,186,259.18,184.56,261.33Z"/><path d="M203.42,257.18c-2.26,1.3-3.59,2.68-4.58,2.47a4.22,4.22,0,0,1-2.46-3.06c-.08-.71,1.79-2.35,2.75-2.32C200.25,254.3,201.34,255.68,203.42,257.18Z"/><path d="M210.66,256.79c-2.11,1.49-3.3,3-4.3,2.86a4.18,4.18,0,0,1-2.75-2.78c-.15-.72,1.54-2.54,2.47-2.6C207.22,254.2,208.43,255.48,210.66,256.79Z"/><path d="M213.66,252.6c1.35,2.23,2.75,3.52,2.56,4.52a4.2,4.2,0,0,1-3,2.52c-.72.1-2.39-1.72-2.39-2.69S212.2,254.73,213.66,252.6Z"/><path d="M232.37,256.79c-2.11,1.49-3.29,3-4.3,2.86a4.17,4.17,0,0,1-2.74-2.78c-.15-.72,1.53-2.54,2.47-2.6C228.93,254.2,230.15,255.48,232.37,256.79Z"/><path d="M235.43,261.33c-1.5-2.11-3-3.3-2.87-4.3a4.19,4.19,0,0,1,2.77-2.75c.73-.15,2.55,1.53,2.61,2.47C238,257.89,236.73,259.1,235.43,261.33Z"/><path d="M264.1,261.33c-1.36-2.22-2.77-3.51-2.58-4.5a4.17,4.17,0,0,1,3-2.55c.72-.1,2.4,1.71,2.41,2.67C266.91,258.07,265.55,259.19,264.1,261.33Z"/><path d="M271.28,252.6c1.48,2.12,3,3.31,2.84,4.31a4.13,4.13,0,0,1-2.78,2.73c-.73.15-2.53-1.53-2.59-2.48C268.67,256,270,254.84,271.28,252.6Z"/><path d="M283,256.78c-2.11,1.5-3.29,3-4.3,2.87a4.17,4.17,0,0,1-2.74-2.77c-.16-.73,1.53-2.55,2.47-2.61C279.6,254.2,280.82,255.48,283,256.78Z"/><path d="M290.28,257.1c-2.23,1.34-3.53,2.74-4.52,2.55a4.18,4.18,0,0,1-2.52-3c-.1-.72,1.72-2.39,2.69-2.39S288.15,255.63,290.28,257.1Z"/><path d="M297.52,256.78c-2.11,1.5-3.3,3-4.3,2.87a4.19,4.19,0,0,1-2.75-2.77c-.15-.73,1.53-2.55,2.47-2.61C294.08,254.2,295.29,255.48,297.52,256.78Z"/><path d="M94.84,32.4c-2.11,1.49-3.29,3-4.3,2.86a4.17,4.17,0,0,1-2.74-2.78c-.15-.72,1.52-2.53,2.47-2.6C91.39,29.8,92.6,31.08,94.84,32.4Z"/><path d="M90.42,259.84c1.44,2.15,2.89,3.38,2.74,4.38a4.13,4.13,0,0,1-2.85,2.66c-.72.13-2.49-1.61-2.52-2.55C87.75,263.19,89.06,262,90.42,259.84Z"/><path d="M123.79,264.3c-2.21,1.36-3.5,2.77-4.49,2.58a4.12,4.12,0,0,1-2.54-3c-.11-.72,1.71-2.42,2.66-2.41C120.55,261.51,121.68,262.86,123.79,264.3Z"/><path d="M126.89,259.84c1.3,2.26,2.68,3.59,2.47,4.58a4.18,4.18,0,0,1-3.06,2.45c-.72.09-2.35-1.78-2.32-2.74C124,263,125.39,261.92,126.89,259.84Z"/><path d="M138.27,264.3c-2.21,1.36-3.5,2.77-4.49,2.58a4.15,4.15,0,0,1-2.55-3c-.1-.72,1.72-2.42,2.67-2.41C135,261.51,136.16,262.86,138.27,264.3Z"/><path d="M152.75,264.12c-2.15,1.44-3.37,2.9-4.37,2.76a4.13,4.13,0,0,1-2.67-2.83c-.14-.73,1.58-2.5,2.54-2.54C149.36,261.45,150.54,262.75,152.75,264.12Z"/><path d="M169.9,268.56c-1.31-2.25-2.69-3.57-2.48-4.56a4.18,4.18,0,0,1,3-2.47c.71-.09,2.35,1.76,2.34,2.73S171.4,266.46,169.9,268.56Z"/><path d="M177.18,259.84c1.48,2.11,3,3.31,2.84,4.31a4.11,4.11,0,0,1-2.78,2.73c-.72.15-2.53-1.53-2.59-2.48C174.57,263.28,175.85,262.07,177.18,259.84Z"/><path d="M199.28,259.84c1.3,2.26,2.67,3.59,2.46,4.58a4.17,4.17,0,0,1-3.05,2.45c-.72.09-2.36-1.78-2.33-2.74C196.39,263,197.78,261.92,199.28,259.84Z"/><path d="M213.33,268.56c-1.31-2.25-2.69-3.57-2.48-4.56a4.18,4.18,0,0,1,3-2.47c.71-.09,2.35,1.76,2.34,2.73S214.83,266.46,213.33,268.56Z"/><path d="M235.23,268.56c-1.39-2.18-2.83-3.43-2.67-4.43a4.19,4.19,0,0,1,2.91-2.61c.72-.12,2.44,1.65,2.47,2.61C238,265.24,236.64,266.39,235.23,268.56Z"/><path d="M246.85,264c-2.11,1.49-3.29,3-4.3,2.86a4.12,4.12,0,0,1-2.74-2.76c-.16-.73,1.53-2.56,2.46-2.61C243.41,261.44,244.63,262.71,246.85,264Z"/><path d="M249.52,268.56c-1.3-2.25-2.69-3.57-2.48-4.56a4.18,4.18,0,0,1,3-2.47c.72-.09,2.35,1.76,2.34,2.73S251,266.46,249.52,268.56Z"/><path d="M257,268.56c-1.4-2.18-2.83-3.43-2.67-4.43a4.15,4.15,0,0,1,2.91-2.61c.72-.12,2.44,1.65,2.47,2.61C259.69,265.24,258.36,266.39,257,268.56Z"/><path d="M268.57,264.43c-2.27,1.29-3.6,2.67-4.59,2.46a4.18,4.18,0,0,1-2.45-3.06c-.08-.72,1.78-2.34,2.75-2.32S266.47,262.91,268.57,264.43Z"/><path d="M275.8,264c-2.11,1.49-3.29,3-4.29,2.86a4.15,4.15,0,0,1-2.75-2.76c-.15-.73,1.53-2.55,2.47-2.61C272.36,261.44,273.58,262.71,275.8,264Z"/><path d="M283,264.31c-2.22,1.35-3.5,2.76-4.5,2.57a4.16,4.16,0,0,1-2.54-3c-.1-.71,1.71-2.4,2.67-2.4S280.9,262.85,283,264.31Z"/><path d="M285.9,268.56c-1.4-2.18-2.83-3.43-2.67-4.43a4.17,4.17,0,0,1,2.91-2.61c.72-.12,2.44,1.65,2.47,2.61C288.64,265.24,287.31,266.39,285.9,268.56Z"/><path d="M102.08,271.54c-2.21,1.36-3.5,2.77-4.49,2.58a4.15,4.15,0,0,1-2.55-3c-.1-.71,1.71-2.41,2.67-2.41C98.84,268.75,100,270.1,102.08,271.54Z"/><path d="M109.32,271.26c-2.11,1.49-3.29,3-4.3,2.86a4.11,4.11,0,0,1-2.74-2.77c-.16-.72,1.53-2.55,2.46-2.6C105.88,268.68,107.1,270,109.32,271.26Z"/><path d="M126.66,275.8c-1.4-2.18-2.83-3.43-2.67-4.43a4.16,4.16,0,0,1,2.9-2.61c.72-.12,2.45,1.65,2.48,2.61C129.4,272.48,128.07,273.63,126.66,275.8Z"/><path d="M138.28,271.26c-2.11,1.49-3.3,3-4.3,2.86a4.15,4.15,0,0,1-2.75-2.77c-.15-.72,1.53-2.55,2.47-2.6C134.83,268.68,136.05,270,138.28,271.26Z"/><path d="M155.66,267.07c1.39,2.2,2.71,3.37,2.66,4.48,0,.95-1.79,2.7-2.51,2.57a4.14,4.14,0,0,1-2.87-2.65C152.79,270.47,154.24,269.24,155.66,267.07Z"/><path d="M167.23,271.48c-2.19,1.38-3.36,2.7-4.48,2.65-.95,0-2.69-1.78-2.57-2.51a4.15,4.15,0,0,1,2.65-2.86C163.85,268.62,165.09,270.07,167.23,271.48Z"/><path d="M174.47,271.54c-2.22,1.36-3.51,2.77-4.5,2.58a4.17,4.17,0,0,1-2.55-3c-.1-.72,1.71-2.4,2.67-2.41C171.21,268.73,172.33,270.09,174.47,271.54Z"/><path d="M184.66,275.8c-1.44-2.14-2.9-3.36-2.76-4.36a4.12,4.12,0,0,1,2.83-2.68c.73-.14,2.51,1.6,2.54,2.54C187.31,272.43,186,273.62,184.66,275.8Z"/><path d="M196.18,271.28c-2.12,1.48-3.31,3-4.31,2.84a4.11,4.11,0,0,1-2.73-2.78c-.15-.73,1.53-2.53,2.48-2.59C192.74,268.67,193.94,270,196.18,271.28Z"/><path d="M210.66,271.48c-2.19,1.38-3.36,2.7-4.48,2.65-1,0-2.69-1.78-2.56-2.51a4.14,4.14,0,0,1,2.64-2.86C207.28,268.62,208.52,270.07,210.66,271.48Z"/><path d="M217.9,271.46c-2.19,1.39-3.44,2.83-4.44,2.66a4.15,4.15,0,0,1-2.61-2.91c-.12-.71,1.65-2.44,2.61-2.47S215.73,270,217.9,271.46Z"/><path d="M220.71,267.07c1.43,2.16,2.89,3.39,2.74,4.39a4.15,4.15,0,0,1-2.85,2.66c-.72.13-2.48-1.6-2.52-2.55C218,270.45,219.33,269.28,220.71,267.07Z"/><path d="M249.67,267.07c1.43,2.16,2.88,3.39,2.74,4.39a4.18,4.18,0,0,1-2.86,2.66c-.72.13-2.49-1.61-2.52-2.55C247,270.43,248.3,269.25,249.67,267.07Z"/><path d="M261.33,271.28c-2.12,1.48-3.31,3-4.32,2.84a4.15,4.15,0,0,1-2.73-2.78c-.15-.73,1.54-2.53,2.49-2.59C257.88,268.67,259.09,270,261.33,271.28Z"/><path d="M271.62,275.8c-1.49-2.11-3-3.29-2.86-4.29a4.15,4.15,0,0,1,2.77-2.75c.72-.15,2.55,1.53,2.6,2.47C274.2,272.36,272.93,273.58,271.62,275.8Z"/><path d="M283,271.58c-2.23,1.34-3.53,2.74-4.52,2.54a4.16,4.16,0,0,1-2.52-3c-.1-.72,1.73-2.38,2.69-2.39C279.8,268.74,280.92,270.1,283,271.58Z"/><path d="M297.52,271.66c-2.26,1.3-3.6,2.68-4.58,2.46a4.16,4.16,0,0,1-2.46-3.05c-.08-.72,1.78-2.34,2.75-2.33S295.43,270.15,297.52,271.66Z"/><path d="M97.94,274.31c1.3,2.26,2.68,3.59,2.46,4.58a4.18,4.18,0,0,1-3.05,2.46c-.72.08-2.35-1.79-2.33-2.74C95.05,277.48,96.44,276.39,97.94,274.31Z"/><path d="M105.09,274.31c1.34,2.23,2.74,3.53,2.55,4.52a4.16,4.16,0,0,1-3,2.52c-.72.1-2.4-1.73-2.39-2.68C102.27,277.54,103.63,276.42,105.09,274.31Z"/><path d="M112,274.31c1.48,2.12,3,3.31,2.84,4.32a4.17,4.17,0,0,1-2.79,2.73c-.72.15-2.52-1.54-2.59-2.49C109.42,277.76,110.71,276.55,112,274.31Z"/><path d="M123.8,278.5c-2.11,1.49-3.3,3-4.3,2.86a4.15,4.15,0,0,1-2.75-2.77c-.15-.72,1.53-2.55,2.47-2.61C120.36,275.91,121.57,277.19,123.8,278.5Z"/><path d="M138.28,278.81c-2.23,1.34-3.53,2.74-4.53,2.55a4.18,4.18,0,0,1-2.52-3c-.1-.72,1.73-2.39,2.69-2.39C135,276,136.15,277.34,138.28,278.81Z"/><path d="M145.51,278.9c-2.26,1.3-3.59,2.67-4.58,2.46a4.17,4.17,0,0,1-2.45-3.05c-.09-.72,1.78-2.35,2.74-2.33C142.35,276,143.43,277.4,145.51,278.9Z"/><path d="M167.23,278.9c-2.26,1.3-3.59,2.67-4.58,2.46a4.2,4.2,0,0,1-2.46-3.05c-.08-.72,1.79-2.35,2.75-2.33C164.06,276,165.15,277.4,167.23,278.9Z"/><path d="M169.9,283c-1.31-2.25-2.69-3.57-2.48-4.56a4.16,4.16,0,0,1,3-2.47c.71-.09,2.35,1.76,2.34,2.73S171.4,280.94,169.9,283Z"/><path d="M188.94,278.6c-2.14,1.44-3.36,2.9-4.36,2.76a4.14,4.14,0,0,1-2.68-2.84c-.14-.72,1.59-2.49,2.54-2.54C185.55,275.93,186.73,277.23,188.94,278.6Z"/><path d="M203.42,278.9c-2.26,1.3-3.59,2.68-4.58,2.46a4.18,4.18,0,0,1-2.46-3.05c-.08-.72,1.78-2.35,2.75-2.33S201.33,277.39,203.42,278.9Z"/><path d="M206.47,283c-1.49-2.11-3-3.29-2.86-4.3a4.13,4.13,0,0,1,2.77-2.74c.72-.16,2.55,1.53,2.61,2.47C209.06,279.6,207.78,280.82,206.47,283Z"/><path d="M232.37,278.5c-2.11,1.49-3.29,3-4.29,2.86a4.15,4.15,0,0,1-2.75-2.77c-.15-.72,1.53-2.55,2.47-2.61C228.93,275.91,230.15,277.19,232.37,278.5Z"/><path d="M235.23,283c-1.4-2.18-2.83-3.44-2.67-4.43a4.17,4.17,0,0,1,2.91-2.61c.72-.12,2.44,1.65,2.47,2.61S236.64,280.87,235.23,283Z"/><path d="M271.66,274.31c1.3,2.27,2.68,3.6,2.46,4.59a4.17,4.17,0,0,1-3.05,2.45c-.72.08-2.34-1.78-2.33-2.75S270.15,276.41,271.66,274.31Z"/><path d="M290.28,278.81c-2.23,1.34-3.53,2.74-4.52,2.55a4.16,4.16,0,0,1-2.52-3c-.1-.72,1.72-2.39,2.69-2.39S288.15,277.34,290.28,278.81Z"/><path d="M97.94,281.55c1.3,2.26,2.68,3.6,2.46,4.58a4.18,4.18,0,0,1-3.05,2.46c-.72.08-2.35-1.78-2.33-2.75S96.43,283.64,97.94,281.55Z"/><path d="M104.94,290.28c-1.4-2.18-2.83-3.44-2.67-4.43a4.17,4.17,0,0,1,2.91-2.61c.72-.12,2.44,1.65,2.47,2.6C107.68,287,106.35,288.11,104.94,290.28Z"/><path d="M119.37,281.55c1.44,2.16,2.89,3.38,2.75,4.38a4.17,4.17,0,0,1-2.86,2.67c-.72.13-2.49-1.61-2.52-2.56C116.7,284.91,118,283.73,119.37,281.55Z"/><path d="M131,285.84c-2.14,1.44-3.36,2.9-4.36,2.76a4.16,4.16,0,0,1-2.68-2.84c-.13-.72,1.59-2.49,2.54-2.54C127.64,283.17,128.83,284.47,131,285.84Z"/><path d="M145.51,285.76c-2.11,1.48-3.31,3-4.31,2.84a4.15,4.15,0,0,1-2.73-2.79c-.15-.72,1.54-2.53,2.48-2.59C142.08,283.16,143.3,284.44,145.51,285.76Z"/><path d="M152.75,285.86c-2.15,1.43-3.38,2.88-4.38,2.74a4.15,4.15,0,0,1-2.66-2.85c-.13-.73,1.61-2.5,2.55-2.53C149.39,283.19,150.57,284.49,152.75,285.86Z"/><path d="M170.28,290.28c-1.49-2.11-3-3.3-2.86-4.3a4.11,4.11,0,0,1,2.77-2.74c.72-.16,2.54,1.52,2.61,2.47C172.88,286.82,171.6,288,170.28,290.28Z"/><path d="M181.71,285.74c-2.11,1.49-3.3,3-4.3,2.86a4.15,4.15,0,0,1-2.75-2.77c-.15-.72,1.53-2.55,2.47-2.61C178.26,283.15,179.48,284.43,181.71,285.74Z"/><path d="M203.42,285.93c-2.18,1.4-3.44,2.83-4.44,2.67a4.14,4.14,0,0,1-2.6-2.91c-.12-.72,1.65-2.44,2.6-2.47C200.1,283.19,201.25,284.52,203.42,285.93Z"/><path d="M225.13,286c-2.21,1.36-3.5,2.76-4.49,2.58a4.19,4.19,0,0,1-2.55-3c-.1-.72,1.71-2.4,2.67-2.41C221.87,283.21,223,284.57,225.13,286Z"/><path d="M232.37,285.93c-2.18,1.4-3.44,2.83-4.43,2.67a4.15,4.15,0,0,1-2.61-2.91c-.12-.72,1.65-2.44,2.61-2.47C229.05,283.19,230.2,284.52,232.37,285.93Z"/><path d="M239.61,286.05c-2.23,1.34-3.52,2.74-4.52,2.55a4.18,4.18,0,0,1-2.52-3c-.1-.72,1.72-2.39,2.69-2.39S237.48,284.58,239.61,286.05Z"/><path d="M249.62,290.28c-1.36-2.22-2.76-3.51-2.58-4.5a4.17,4.17,0,0,1,3-2.54c.72-.11,2.4,1.71,2.41,2.67S251.07,288.14,249.62,290.28Z"/><path d="M264.18,290.28c-1.39-2.18-2.83-3.44-2.66-4.43a4.13,4.13,0,0,1,2.91-2.61c.72-.12,2.44,1.65,2.47,2.6C266.93,287,265.6,288.11,264.18,290.28Z"/><path d="M290.28,286c-2.22,1.36-3.51,2.76-4.5,2.58a4.17,4.17,0,0,1-2.54-3c-.11-.72,1.71-2.4,2.67-2.41S288.14,284.57,290.28,286Z"/><path d="M90.56,297.52c-1.44-2.15-2.9-3.37-2.76-4.37a4.13,4.13,0,0,1,2.83-2.67c.73-.14,2.5,1.58,2.54,2.53C93.23,294.13,91.93,295.31,90.56,297.52Z"/><path d="M112.14,288.79c1.43,2.15,2.88,3.38,2.74,4.38a4.16,4.16,0,0,1-2.86,2.66c-.72.14-2.49-1.61-2.52-2.55C109.46,292.15,110.77,291,112.14,288.79Z"/><path d="M123.8,293.26c-2.22,1.35-3.51,2.76-4.5,2.58a4.15,4.15,0,0,1-2.54-3c-.11-.72,1.7-2.4,2.66-2.41C120.54,290.45,121.66,291.8,123.8,293.26Z"/><path d="M138.27,293.26c-2.21,1.35-3.5,2.76-4.49,2.58a4.19,4.19,0,0,1-2.55-3c-.1-.72,1.71-2.4,2.67-2.41S136.14,291.8,138.27,293.26Z"/><path d="M177.57,288.79c1.29,2.26,2.67,3.59,2.45,4.58a4.16,4.16,0,0,1-3.05,2.46c-.72.08-2.34-1.78-2.32-2.75S176.05,290.88,177.57,288.79Z"/><path d="M188.94,293.26c-2.21,1.35-3.5,2.76-4.49,2.58a4.19,4.19,0,0,1-2.55-3c-.1-.72,1.71-2.41,2.67-2.41C185.7,290.46,186.82,291.82,188.94,293.26Z"/><path d="M196.18,293.1c-2.15,1.43-3.38,2.88-4.38,2.74a4.16,4.16,0,0,1-2.66-2.86c-.13-.72,1.61-2.49,2.55-2.52C192.83,290.43,194,291.73,196.18,293.1Z"/><path d="M210.66,293.17c-2.18,1.4-3.44,2.83-4.43,2.67a4.15,4.15,0,0,1-2.61-2.91c-.12-.72,1.64-2.44,2.6-2.47C207.33,290.43,208.49,291.76,210.66,293.17Z"/><path d="M217.89,293c-2.1,1.49-3.29,3-4.29,2.86a4.19,4.19,0,0,1-2.75-2.77c-.15-.73,1.53-2.55,2.47-2.61C214.46,290.39,215.67,291.67,217.89,293Z"/><path d="M228,297.52c-1.39-2.18-2.83-3.44-2.66-4.43a4.14,4.14,0,0,1,2.9-2.61c.72-.12,2.45,1.64,2.47,2.6C230.74,294.19,229.41,295.35,228,297.52Z"/><path d="M235.47,288.79c1.3,2.26,2.68,3.59,2.46,4.58a4.18,4.18,0,0,1-3.05,2.46c-.72.08-2.35-1.78-2.33-2.75S234,290.88,235.47,288.79Z"/><path d="M252.6,292.93c2.26-1.3,3.59-2.67,4.58-2.46a4.17,4.17,0,0,1,2.45,3c.09.72-1.78,2.36-2.74,2.33C255.77,295.82,254.68,294.43,252.6,292.93Z"/><path d="M286.09,297.52c-1.49-2.11-3-3.3-2.86-4.3a4.17,4.17,0,0,1,2.77-2.75c.73-.15,2.55,1.53,2.61,2.47C288.68,294.08,287.4,295.29,286.09,297.52Z"/><path d="M297.52,293.26c-2.22,1.35-3.5,2.76-4.5,2.58a4.15,4.15,0,0,1-2.54-3c-.11-.72,1.71-2.41,2.66-2.41C294.27,290.46,295.4,291.82,297.52,293.26Z"/><path class="cls-2" d="M54.45,72.39c-3.62,0-7.23.06-10.84,0A7.29,7.29,0,0,1,36.2,65q-.11-10.65,0-21.31a7.27,7.27,0,0,1,7.63-7.5q10.49-.08,21,0a7.26,7.26,0,0,1,7.59,7.54q.09,10.48,0,21c0,4.65-3.1,7.64-7.82,7.69C61.19,72.42,57.82,72.39,54.45,72.39Zm-.16-28.95c-4.19,0-9.11-.58-10.1,4.83-.77,4.16-.18,8.62.27,12.9a4.41,4.41,0,0,0,3,3,90.79,90.79,0,0,0,13.6,0,4.42,4.42,0,0,0,3-3c.45-4.27,1-8.74.27-12.89C63.39,42.86,58.47,43.41,54.29,43.44Z"/><path class="cls-2" d="M253.33,54c0-3.25,0-6.5,0-9.75,0-5,3-8,7.87-8q10.29,0,20.59,0c4.65,0,7.71,3.11,7.73,7.78q.06,10.29,0,20.59c0,4.71-3,7.79-7.69,7.82-6.86.05-13.73,0-20.59,0-4.95,0-7.88-3-7.92-8C253.31,60.94,253.33,57.44,253.33,54ZM271.1,65.14c4.13,0,9.15.81,10.33-4.52.91-4.12.41-8.63-.05-12.9a5.06,5.06,0,0,0-3.5-3.41,74.36,74.36,0,0,0-13.26.13,4.42,4.42,0,0,0-3,3c-.44,4.28-1,8.74-.26,12.9C262.27,65.52,267,65.2,271.1,65.14Z"/><path class="cls-2" d="M54,289.54c-3.38,0-6.75,0-10.12,0-4.51-.06-7.65-3.05-7.69-7.45q-.11-10.66,0-21.32a7.26,7.26,0,0,1,7.35-7.42q10.65-.1,21.32,0A7.27,7.27,0,0,1,72.38,261q.08,10.48,0,21a7.28,7.28,0,0,1-7.53,7.6C61.23,289.59,57.62,289.54,54,289.54Zm11.12-18.49c.06-3.85.53-8.67-4.86-9.74a38.79,38.79,0,0,0-12.21.09c-1.44.19-3.61,2.24-3.74,3.61a70,70,0,0,0,.12,13.26,4.42,4.42,0,0,0,3,3c4.28.44,8.75,1,12.9.25C65.72,280.51,65.16,275.58,65.13,271.05Z"/><path d="M54.28,43.44c4.19,0,9.11-.58,10.11,4.83.76,4.15.18,8.62-.27,12.89a4.42,4.42,0,0,1-3,3,90.79,90.79,0,0,1-13.6,0,4.41,4.41,0,0,1-3-3c-.45-4.28-1-8.74-.27-12.9C45.18,42.86,50.1,43.41,54.28,43.44Z"/><path d="M271.1,65.13c-4.1.07-8.83.39-9.76-4.8-.74-4.16-.18-8.62.26-12.9a4.42,4.42,0,0,1,3-3,74.36,74.36,0,0,1,13.26-.13,5.06,5.06,0,0,1,3.5,3.41c.46,4.27,1,8.78.05,12.9C280.25,66,275.23,65.1,271.1,65.13Z"/><path d="M65.13,271.05c0,4.53.59,9.46-4.79,10.48-4.15.78-8.62.19-12.9-.25a4.42,4.42,0,0,1-3-3A70,70,0,0,1,44.32,265c.13-1.37,2.3-3.42,3.74-3.61a38.79,38.79,0,0,1,12.21-.09C65.66,262.38,65.19,267.2,65.13,271.05Z"/><path class="cls-3" d="M346.09,75.82q17.61,0,26.86-.63v6.25q-9.31-.63-27.36-.63t-27.29.63V75.19q8,.57,22,.63V45.59q0-13.11-.5-15.74a41.3,41.3,0,0,0,7.24.57c.62,0,.94.13.94.4s-.2.56-.6.85a3.41,3.41,0,0,0-.93,2,17.65,17.65,0,0,0-.35,3.71v8.24h8.25q7.86,0,13.23-.5v6.19a124.34,124.34,0,0,0-13.23-.5h-8.25Z"/><path class="cls-3" d="M392.74,64.2c-.75,1.92-1.72,4.65-2.9,8.21s-2,5.94-2.34,7.12-.82,2.91-1.32,5.15a25,25,0,0,0-6-4.18q1.94-2.69,4.53-9.84A93.53,93.53,0,0,0,388,60.39,10.16,10.16,0,0,0,392.74,64.2ZM393.49,51l-3.25,4.56a35.54,35.54,0,0,0-9.68-6l3-4.44Q390.61,49.41,393.49,51ZM396.8,37.1l-3.93,3.75a37.72,37.72,0,0,0-9.18-7.62l3.87-3.75Q392.42,33.35,396.8,37.1ZM401.73,45c-1.41,1.87-2.56,3.35-3.43,4.43a8.86,8.86,0,0,0-4.62-2,55.25,55.25,0,0,0,7.08-9.28A51.46,51.46,0,0,0,406,27.79a26.76,26.76,0,0,0,6.37,2.06c.41.09.62.28.62.57s-.25.48-.75.56a2.57,2.57,0,0,0-1.43.84,24,24,0,0,0-2.19,3h17.11a48.76,48.76,0,0,0,9.12-.69v5.12c-2.5-.2-5.54-.31-9.12-.31H405.92q-1.69,2.63-3.81,5.56h14.8q8.37,0,13.67-.5l-1.06,14.49a45,45,0,0,0,6.37-.38v4.69a66.44,66.44,0,0,0-6.68-.44l-.75,10.68a36.5,36.5,0,0,0,5.12-.38v5.12a29.48,29.48,0,0,0-5.37-.49c-.08,3.58-.81,5.84-2.18,6.8s-3.88,1.73-7.5,2.31a9.14,9.14,0,0,0-2.81-5.31q4.06.13,5.68-.68a3.86,3.86,0,0,0,1.94-3.25h-15c-3.74,0-7.1.15-10.05.44l1.56-15.18c-2.42.09-4.33.21-5.75.38V58.14q1.5.2,6.19.44Zm22.73,17.36H404.73l-1.25,10.74h20.17Zm-19.29-3.81h19.61l.75-10.3H406.35Zm12.67,12.3L412.91,72a11.86,11.86,0,0,0-.75-3.31A21.52,21.52,0,0,0,410.6,65l4.68-1.18C416.53,67,417.39,69.38,417.84,70.88Zm1.38-14.55-5.12.88a17.74,17.74,0,0,0-2.19-5.87l4.69-1.19A25.45,25.45,0,0,1,419.22,56.33Z"/><path class="cls-3" d="M327.48,134.52q-4.68,2.68-8.61,5.49a14.27,14.27,0,0,0-2-5.18,73.67,73.67,0,0,0,10.86-5.18q.19-8.12-.37-20.92,4,.55,20.17.62a53.47,53.47,0,0,0-1.87-5.31l5.87-1.5q.87,2.88,2.12,6.81,15.62-.06,19.48-.62v5.87q-5.43-.57-22.67-.56H333q0,17.29-1,24.6a51.46,51.46,0,0,1-3,12.18,71.77,71.77,0,0,1-5,9.86,24.74,24.74,0,0,0-5.06-3.93,34.4,34.4,0,0,0,6.06-10.15A46.56,46.56,0,0,0,327.48,134.52Zm-3-7.93-5.19.18c.09-1.24.13-2.76.13-4.55a50.92,50.92,0,0,0-.75-7.44l4.87-.37Q324.11,120.1,324.49,126.59Zm15.8,13.67c-1.75.09-3.09.17-4,.25v-5.24a129.73,129.73,0,0,0,14.46.56q10.08,0,17.2-.56a34.52,34.52,0,0,1-12.12,16.11A29.08,29.08,0,0,0,368,153.81a41.74,41.74,0,0,0,5.87-.43,13.49,13.49,0,0,0-3.12,7q-13.62-2.19-19.49-6.12a65.69,65.69,0,0,1-17.48,5.81,11.92,11.92,0,0,0-3.31-5.25,51.4,51.4,0,0,0,16.92-3.68A33.74,33.74,0,0,1,340.29,140.26Zm30.22-13.11a11.11,11.11,0,0,0-1,5.56c-1.42,0-3,.06-4.78.06a23.14,23.14,0,0,1-5-.53A2.81,2.81,0,0,1,357.4,129l.18-6.18H346.72a16,16,0,0,1-1.66,7.46,15,15,0,0,1-5.27,5,12.28,12.28,0,0,0-4.56-3.56,9.84,9.84,0,0,0,5.3-3.25c1.05-1.41,1.57-3.81,1.57-7.18,0-1-.05-2.12-.13-3.37a95.67,95.67,0,0,0,10.27.37q7.27,0,10.78-.37a18.09,18.09,0,0,0-.75,4.49c-.17,2.09-.25,3.46-.25,4.12,0,1.09.76,1.63,2.28,1.63A26.65,26.65,0,0,0,370.51,127.15Zm-25.29,13a25,25,0,0,0,6.37,8.74,24.24,24.24,0,0,0,8.37-8.74Z"/><path class="cls-3" d="M386.12,117.91q-.93,6.87-1.75,14.61l-5.49-.38a46.47,46.47,0,0,0,2.18-14.23Zm1.5-13.43a33.82,33.82,0,0,0,6,.5c.88,0,1.32.15,1.32.44s-.34.64-1,1.06-1,1.5-1,3.25v39.71c0,3,.16,6.44.5,10.18h-5.81q.44-5,.44-10.24V112.79A59.41,59.41,0,0,0,387.62,104.48ZM401.05,122,397,124.21a20.72,20.72,0,0,0-3.25-6.8l3.68-2.06A58.76,58.76,0,0,1,401.05,122Zm17.54-4.63q8.75-.12,12.87-.62v4.75c-2.75-.34-7-.54-12.87-.63v4a162.61,162.61,0,0,0,17.49-.63v4.87a181.85,181.85,0,0,0-18.27-.62,179.5,179.5,0,0,0-18.2.62v-4.87a138.18,138.18,0,0,0,14.24.63v-4a106.38,106.38,0,0,0-11.43.63v-4.75a108.38,108.38,0,0,0,11.43.62v-4a120.58,120.58,0,0,0-12.93.62V109a123.25,123.25,0,0,0,12.93.62,57.35,57.35,0,0,0-.19-5.93,17,17,0,0,0,3.19.25l2.24-.12c.34,0,.5.09.5.28s-.16.44-.5.78a3.14,3.14,0,0,0-.5,2.12v2.62a128,128,0,0,0,15.3-.62V114a130.23,130.23,0,0,0-15.3-.62Zm-11.3,32.73v9.68H402q.38-5.31.38-8.93V137.45c0-2.45-.07-4.22-.19-5.31q4,.2,14.46.19t14.14-.19q-.12,2.19-.12,5.31v15.49c0,2.75-.19,4.45-.57,5.12a3.29,3.29,0,0,1-1.9,1.47,33.28,33.28,0,0,1-6.59.78,8.87,8.87,0,0,0-1.75-5c1,0,1.79.07,2.38.07,1.54,0,2.49-.22,2.87-.66a5,5,0,0,0,.56-2.9v-1.75Zm18.36-10.43V136H407.29v3.69Zm-18.36,3.43v3.5h18.36v-3.5Z"/><text class="cls-4" transform="translate(136.15 377.1)">扫一扫加入</text><text class="cls-5" transform="translate(306.33 323.54)">写写<tspan x="0" y="86.7">画画</tspan></text><polygon class="cls-3" points="417.02 170.69 425.9 181.05 375.12 223.43 368.65 216.09 417.02 170.69"/><path class="cls-3" d="M363.45,222.88l7.63,8.56-3.2,8a23.72,23.72,0,0,1-12.81,13l-13.39,5.63S340.78,224.58,363.45,222.88Z"/><g class="cls-6"><g class="cls-6"><path class="cls-3" d="M32,366.37c.29,0,.59,0,.88,0h86.56l1,0v5H32Z"/><path class="cls-3" d="M32,378.75h4.92v1.12c0,6.89,0,13.79,0,20.68A7.28,7.28,0,0,0,42.77,408a9.78,9.78,0,0,0,2,.16H66.5v4.92h-26a4.09,4.09,0,0,0-.65-.21A9.5,9.5,0,0,1,33.29,408,23.73,23.73,0,0,1,32,404.57Z"/><path class="cls-3" d="M66.32,324.64v5h-.89c-6.92,0-13.84,0-20.76,0A7.38,7.38,0,0,0,37,335.85a10.33,10.33,0,0,0-.1,1.67q0,10.25,0,20.5v1.1H32V333.31a3.47,3.47,0,0,0,.16-.41,9.74,9.74,0,0,1,7.83-8c.63-.12,1.27-.18,1.91-.28Z"/><path class="cls-3" d="M120.43,359.12h-4.84v-1.89q0-9.76,0-19.52a8,8,0,0,0-1.46-5.07,7.41,7.41,0,0,0-6.18-3H86.13v-5h24.75a4.39,4.39,0,0,0,.6.15,9,9,0,0,1,6.94,3.82,26.81,26.81,0,0,1,2,4.34Z"/><path class="cls-3" d="M86.13,413.06v-4.92h1.05c6.8,0,13.61-.1,20.41,0a7.69,7.69,0,0,0,8-8c-.11-7.1,0-14.2,0-21.41h4.84v26.17a8,8,0,0,0-.29.82,9,9,0,0,1-4.23,5.74,27.59,27.59,0,0,1-4,1.58Z"/></g></g></svg>