<?xml version="1.0" encoding="utf-8"?>
<!-- Generator: Adobe Illustrator 24.1.1, SVG Export Plug-In . SVG Version: 6.00 Build 0)  -->
<svg version="1.1" id="图层_1" xmlns="http://www.w3.org/2000/svg" xmlns:xlink="http://www.w3.org/1999/xlink" x="0px" y="0px"
	 viewBox="0 0 470.5 436.9" style="enable-background:new 0 0 470.5 436.9;" xml:space="preserve">
<style type="text/css">
	.st0{fill:#FFFFFF;}
	.st1{fill:#231815;}
	.st2{font-family:'MicrosoftYaHei';}
	.st3{font-size:31.57px;}
	.st4{font-size:60.4962px;}
	.st5{clip-path:url(#SVGID_2_);}
	.st6{clip-path:url(#SVGID_4_);}
</style>
<path d="M165.8,181.3v9.4l3.2,3l-0.6,0.9h-5.4v-8l-0.8,0.3c-0.7-0.9-1.5-1.8-2.4-2.6c-0.6-0.5-2-1.1-2.2-0.9c-1.3,1.4-2.4,3-3.6,4.6
	c-0.2,0.4-0.5,0.7-0.8,1c-2.5,1.5-2.5,1.4,0,3.1c0.6,0.4,0.7,1.5,1.2,2.6h-6v-10l-14.4-14.2v-15.8c2.5-0.2,2.5-0.2,2.9,4.1l6.9,6.9
	h3.6l8-8.5h3.3l4.1-4.3v-17.8l4.3-3.9H188l3.6,4.1v13.1c-4.1,0-8.1-0.1-12.1,0.1c-0.9,0-1.6,1.1-2.5,1.7l0.6,1h7.9
	c0.8,2.1,0.5,3.1-1.8,3c-3-0.1-6,0-9.1,0v5.6h5.4v6.7l-4.6-3.9c-2.6,3,1.9,7.7-3.7,9.4v4.2L165.8,181.3z"/>
<path d="M54.2,79.6c-5.8,0-11.6,0-17.3,0c-4.9,0-7.9-3-7.9-8c0-11.6,0-23.1,0-34.7c0-5,3-8,7.9-8c11.7,0,23.3,0,35,0
	c4.7,0,7.7,3.1,7.7,7.8c0,11.7,0,23.3,0,35c0,4.9-3.1,7.8-8,7.8C65.8,79.6,60,79.6,54.2,79.6z M54.5,72.4c3.4,0,6.7,0,10.1,0
	c4.7,0,7.8-3,7.8-7.7c0.1-7,0.1-14,0-21c0.2-4-3-7.4-7-7.5c-0.2,0-0.4,0-0.6,0c-7-0.1-14-0.1-21,0c-4-0.2-7.4,2.9-7.6,6.9
	c0,0.2,0,0.4,0,0.6c-0.1,7.1-0.1,14.2,0,21.3c0,4,3.2,7.3,7.2,7.4c0.1,0,0.1,0,0.2,0C47.2,72.4,50.8,72.4,54.5,72.4z"/>
<path d="M296.8,54.3c0,5.8,0,11.6,0,17.3c0,5-3,8-7.9,8c-11.7,0-23.3,0-35,0c-4.7,0-7.7-3.1-7.7-7.8c0-11.7,0-23.3,0-35
	c0-4.7,3.1-7.8,7.7-7.8c11.8,0,23.6,0,35.4,0c4.5,0,7.5,3.1,7.5,7.6C296.8,42.5,296.8,48.4,296.8,54.3z M253.3,54c0,3.5,0,7,0,10.5
	c0,5,3,7.9,7.9,8c6.9,0,13.7,0,20.6,0c4.6,0,7.7-3.1,7.7-7.8c0-6.9,0-13.7,0-20.6c0-4.7-3.1-7.8-7.7-7.8c-6.9,0-13.7,0-20.6,0
	c-4.9,0-7.8,3-7.9,8C253.3,47.4,253.3,50.7,253.3,54z"/>
<path d="M79.6,271.8c0,5.5,0,11.1,0,16.6s-2.9,8.4-8.2,8.4c-11.4,0-22.9,0-34.3,0c-5.2,0-8.1-2.9-8.1-8.1c0-11.4,0-22.9,0-34.3
	c0-5.4,2.9-8.2,8.4-8.2h34c5.4,0,8.3,2.9,8.3,8.3C79.6,260.2,79.6,266,79.6,271.8z M54,289.5c3.6,0,7.2,0,10.8,0c4,0.1,7.4-3,7.5-7
	c0-0.2,0-0.4,0-0.6c0.1-7,0.1-14,0-21c0.2-4-2.9-7.4-6.9-7.6c-0.2,0-0.4,0-0.6,0c-7.1-0.1-14.2-0.1-21.3,0c-4-0.1-7.3,3.2-7.4,7.2
	c0,0.1,0,0.2,0,0.3c-0.1,7.1-0.1,14.2,0,21.3c0,4.4,3.2,7.4,7.7,7.5C47.3,289.6,50.6,289.5,54,289.5z"/>
<path d="M188.9,32.5c-2.1,1.4-3.4,2.9-4.4,2.7c-1.3-0.5-2.3-1.5-2.7-2.9c-0.1-0.7,1.6-2.5,2.6-2.5C185.6,29.8,186.7,31.1,188.9,32.5
	z"/>
<path d="M196.2,32.6c-2.2,1.4-3.4,2.7-4.5,2.7s-2.7-1.8-2.6-2.5c0.3-1.3,1.3-2.4,2.6-2.9C192.8,29.7,194,31.2,196.2,32.6z"/>
<path d="M206.3,36.9c-1.4-2.2-2.8-3.4-2.7-4.4c0.5-1.3,1.6-2.3,2.9-2.6c0.7-0.1,2.4,1.6,2.5,2.6C209,33.5,207.7,34.8,206.3,36.9z"/>
<path d="M213.6,36.9c-1.4-2.2-2.9-3.4-2.8-4.4c0.4-1.3,1.5-2.3,2.8-2.7c0.7-0.1,2.5,1.6,2.5,2.5C216.3,33.5,215,34.7,213.6,36.9z"/>
<path d="M225.1,32.8c-2.3,1.3-3.6,2.7-4.6,2.5c-1.3-0.5-2.2-1.7-2.5-3.1c-0.1-0.7,1.8-2.4,2.7-2.3C222,29.9,223.1,31.3,225.1,32.8z"
	/>
<path d="M235.1,28.2c1.5,2.1,3,3.3,2.8,4.3c-0.4,1.3-1.5,2.3-2.8,2.7c-0.7,0.2-2.5-1.5-2.6-2.5C232.5,31.6,233.8,30.4,235.1,28.2z"
	/>
<path d="M174.5,32.8c-2.3,1.3-3.6,2.7-4.6,2.5c-1.3-0.6-2.2-1.7-2.4-3.1c-0.1-0.7,1.8-2.3,2.8-2.3S172.4,31.3,174.5,32.8z"/>
<path d="M162.8,28.2c1.4,2.1,2.9,3.4,2.8,4.4c-0.5,1.3-1.5,2.3-2.9,2.7c-0.7,0.1-2.5-1.6-2.5-2.5C160.1,31.6,161.4,30.4,162.8,28.2z
	"/>
<path d="M102.1,39.9c-2.2,1.4-3.5,2.8-4.5,2.6c-1.3-0.5-2.3-1.6-2.6-3c-0.1-0.7,1.7-2.4,2.7-2.4C98.8,37.1,100,38.5,102.1,39.9z"/>
<path d="M116.6,39.9c-2.2,1.4-3.5,2.8-4.5,2.6c-1.3-0.5-2.3-1.6-2.5-3c-0.1-0.7,1.7-2.4,2.7-2.4C113.3,37.1,114.4,38.5,116.6,39.9z"
	/>
<path d="M126.8,35.4c1.4,2.2,2.8,3.5,2.6,4.5c-0.5,1.3-1.6,2.2-3,2.5c-0.7,0.1-2.4-1.7-2.4-2.7S125.3,37.6,126.8,35.4z"/>
<path d="M138.3,39.7c-2.1,1.4-3.4,2.9-4.4,2.7c-1.3-0.4-2.3-1.5-2.7-2.8c-0.1-0.7,1.6-2.5,2.6-2.5C134.9,37.1,136.1,38.4,138.3,39.7
	z"/>
<path d="M160,39.8c-2.2,1.4-3.4,2.8-4.4,2.7c-1.3-0.5-2.3-1.6-2.6-2.9c-0.1-0.7,1.6-2.5,2.6-2.5S157.8,38.4,160,39.8z"/>
<path d="M181.7,39.6c-2.1,1.5-3.3,3-4.3,2.8c-1.3-0.4-2.3-1.5-2.7-2.8c-0.1-0.7,1.5-2.5,2.5-2.6C178.3,37,179.5,38.3,181.7,39.6z"/>
<path d="M184.6,35.4c1.4,2.2,2.7,3.4,2.6,4.5s-1.8,2.7-2.5,2.6c-1.3-0.3-2.4-1.3-2.9-2.6C181.8,38.8,183.2,37.6,184.6,35.4z"/>
<path d="M196.2,39.6c-2.1,1.5-3.3,3-4.3,2.9c-1.3-0.4-2.4-1.4-2.7-2.8c-0.2-0.7,1.5-2.5,2.5-2.6C192.7,37,194,38.3,196.2,39.6z"/>
<path d="M213.5,35.4c1.4,2.2,2.9,3.4,2.8,4.4c-0.5,1.3-1.5,2.3-2.9,2.7c-0.7,0.1-2.5-1.6-2.5-2.5C210.8,38.8,212.1,37.6,213.5,35.4z
	"/>
<path d="M232.4,39.8c-2.2,1.4-3.4,2.8-4.4,2.7c-1.3-0.5-2.3-1.6-2.6-2.9c-0.1-0.7,1.7-2.5,2.6-2.5C229.1,37.1,230.2,38.4,232.4,39.8
	z"/>
<path d="M155.7,36.9c-1.4-2.2-2.9-3.4-2.8-4.4c0.4-1.3,1.5-2.3,2.8-2.7c0.7-0.1,2.5,1.6,2.5,2.5C158.4,33.5,157.1,34.7,155.7,36.9z"
	/>
<path d="M148.6,36.9c-1.5-2.1-3-3.3-2.9-4.3c0.4-1.3,1.5-2.4,2.8-2.8c0.7-0.1,2.5,1.5,2.6,2.5C151.2,33.5,149.9,34.7,148.6,36.9z"/>
<path d="M109.3,47.1c-2.2,1.4-3.5,2.8-4.5,2.6c-1.3-0.5-2.2-1.6-2.5-3c-0.1-0.7,1.7-2.4,2.7-2.4S107.2,45.7,109.3,47.1z"/>
<path d="M116.6,46.9c-2.1,1.5-3.3,3-4.3,2.8c-1.3-0.4-2.3-1.4-2.7-2.7c-0.1-0.7,1.6-2.5,2.5-2.6C113.1,44.3,114.3,45.6,116.6,46.9z"
	/>
<path d="M123.8,46.9c-2.1,1.5-3.3,3-4.3,2.9c-1.3-0.4-2.3-1.4-2.8-2.7c-0.2-0.7,1.5-2.5,2.5-2.6C120.4,44.3,121.6,45.6,123.8,46.9z"
	/>
<path d="M174.5,47.1c-2.2,1.4-3.5,2.8-4.5,2.6c-1.3-0.5-2.3-1.6-2.6-3c-0.1-0.7,1.7-2.4,2.7-2.4S172.3,45.7,174.5,47.1z"/>
<path d="M181.7,47.2c-2.2,1.3-3.5,2.7-4.5,2.5c-1.3-0.5-2.2-1.6-2.5-3c-0.1-0.7,1.7-2.4,2.7-2.4C178.5,44.4,179.6,45.7,181.7,47.2z"
	/>
<path d="M192,51.4c-1.5-2.1-3-3.3-2.9-4.3c0.4-1.3,1.5-2.3,2.8-2.7c0.7-0.2,2.5,1.5,2.6,2.5C194.6,48,193.3,49.2,192,51.4z"/>
<path d="M199,42.7c1.4,2.2,2.9,3.4,2.7,4.4c-0.5,1.3-1.5,2.3-2.9,2.7c-0.7,0.1-2.5-1.6-2.5-2.5C196.3,46,197.6,44.9,199,42.7z"/>
<path d="M90.4,58.6c-1.3-2.2-2.8-3.5-2.6-4.5c0.5-1.3,1.6-2.2,3-2.5c0.7-0.1,2.4,1.7,2.4,2.7S91.8,56.5,90.4,58.6z"/>
<path d="M97.7,58.6c-1.4-2.2-2.8-3.4-2.7-4.4c0.5-1.3,1.6-2.3,2.9-2.6c0.7-0.1,2.5,1.7,2.5,2.6C100.4,55.3,99.1,56.5,97.7,58.6z"/>
<path d="M131,54.4c-2.2,1.4-3.5,2.8-4.5,2.6c-1.3-0.5-2.2-1.6-2.5-3c-0.1-0.7,1.7-2.4,2.7-2.4C127.8,51.6,128.9,52.9,131,54.4z"/>
<path d="M133.9,58.6c-1.4-2.2-2.8-3.4-2.7-4.4c0.5-1.3,1.6-2.3,2.9-2.6c0.7-0.1,2.5,1.7,2.5,2.6C136.6,55.3,135.3,56.5,133.9,58.6z"
	/>
<path d="M145.5,54.2c-2.1,1.4-3.4,2.9-4.4,2.7c-1.3-0.4-2.3-1.5-2.7-2.8c-0.1-0.7,1.6-2.5,2.6-2.5C142.1,51.5,143.3,52.8,145.5,54.2
	z"/>
<path d="M152.8,54.4c-2.2,1.4-3.5,2.8-4.5,2.6c-1.3-0.5-2.3-1.6-2.6-3c-0.1-0.7,1.7-2.4,2.7-2.4S150.6,52.9,152.8,54.4z"/>
<path d="M155.5,58.6c-1.4-2.2-2.8-3.5-2.6-4.5c0.5-1.3,1.6-2.2,3-2.5c0.7-0.1,2.4,1.7,2.4,2.7S157,56.5,155.5,58.6z"/>
<path d="M162.9,58.6c-1.4-2.2-2.8-3.4-2.7-4.4c0.5-1.3,1.6-2.3,2.9-2.6c0.7-0.1,2.4,1.7,2.5,2.6C165.6,55.3,164.3,56.5,162.9,58.6z"
	/>
<path d="M174.5,54.5c-2.3,1.3-3.6,2.7-4.6,2.5c-1.3-0.5-2.2-1.7-2.5-3c-0.1-0.7,1.8-2.3,2.8-2.3S172.4,53,174.5,54.5z"/>
<path d="M177.2,49.9c1.5,2.1,3,3.3,2.8,4.3c-0.4,1.3-1.4,2.4-2.8,2.8c-0.7,0.2-2.5-1.5-2.6-2.5C174.6,53.3,175.9,52.1,177.2,49.9z"
	/>
<path d="M191.8,49.9c1.4,2.2,2.9,3.4,2.7,4.4c-0.4,1.3-1.5,2.3-2.9,2.7c-0.7,0.1-2.5-1.6-2.5-2.5C189.1,53.3,190.4,52.1,191.8,49.9z
	"/>
<path d="M199.1,58.6c-1.4-2.1-2.9-3.4-2.8-4.4c0.4-1.3,1.5-2.3,2.8-2.7c0.7-0.1,2.5,1.6,2.5,2.5S200.5,56.4,199.1,58.6z"/>
<path d="M213.3,58.6c-1.3-2.3-2.7-3.6-2.5-4.6c0.5-1.3,1.7-2.2,3-2.5c0.7-0.1,2.4,1.8,2.3,2.7C216.2,55.5,214.8,56.6,213.3,58.6z"/>
<path d="M225.1,54.2c-2.1,1.4-3.4,2.9-4.4,2.8c-1.3-0.4-2.3-1.5-2.7-2.8c-0.1-0.7,1.6-2.5,2.5-2.5C221.7,51.5,222.9,52.8,225.1,54.2
	z"/>
<path d="M239.6,54.4c-2.2,1.3-3.5,2.7-4.5,2.5c-1.3-0.5-2.2-1.6-2.5-3c-0.1-0.7,1.7-2.4,2.7-2.4C236.4,51.6,237.5,53,239.6,54.4z"/>
<path d="M94.8,61.7c-2.2,1.3-3.5,2.7-4.5,2.5c-1.3-0.5-2.2-1.6-2.5-3c-0.1-0.7,1.7-2.4,2.7-2.4C91.6,58.8,92.7,60.2,94.8,61.7z"/>
<path d="M97.9,65.9c-1.5-2.1-3-3.3-2.9-4.3c0.4-1.3,1.4-2.3,2.8-2.7c0.7-0.2,2.6,1.5,2.6,2.5C100.5,62.4,99.2,63.7,97.9,65.9z"/>
<path d="M112.2,65.9c-1.4-2.2-2.8-3.4-2.7-4.4c0.5-1.3,1.6-2.3,2.9-2.6c0.7-0.1,2.4,1.7,2.5,2.6C114.9,62.6,113.6,63.7,112.2,65.9z"
	/>
<path d="M123.8,61.5c-2.2,1.4-3.4,2.9-4.4,2.7c-1.3-0.5-2.3-1.5-2.7-2.9c-0.1-0.7,1.6-2.5,2.6-2.5C120.4,58.8,121.6,60.1,123.8,61.5
	z"/>
<path d="M133.8,65.9c-1.4-2.2-2.8-3.5-2.6-4.5c0.5-1.3,1.6-2.2,3-2.5c0.7-0.1,2.4,1.7,2.4,2.7S135.3,63.7,133.8,65.9z"/>
<path d="M167.2,61.5c-2.2,1.4-3.4,2.9-4.4,2.7c-1.3-0.5-2.3-1.5-2.7-2.9c-0.1-0.7,1.6-2.5,2.6-2.5C163.9,58.8,165,60.1,167.2,61.5z"
	/>
<path d="M174.5,61.3c-2.1,1.5-3.3,3-4.3,2.9c-1.3-0.4-2.4-1.4-2.8-2.8c-0.1-0.7,1.5-2.5,2.5-2.6C171,58.7,172.2,60,174.5,61.3z"/>
<path d="M177.3,57.2c1.4,2.2,2.9,3.4,2.7,4.4c-0.4,1.3-1.5,2.3-2.9,2.7c-0.7,0.1-2.5-1.6-2.5-2.6S175.9,59.4,177.3,57.2z"/>
<path d="M188.9,61.5c-2.1,1.4-3.4,2.9-4.4,2.7c-1.3-0.5-2.3-1.5-2.7-2.8c-0.1-0.7,1.6-2.5,2.6-2.5C185.6,58.8,186.8,60.1,188.9,61.5
	z"/>
<path d="M206.3,65.9c-1.4-2.2-2.8-3.4-2.7-4.4c0.5-1.3,1.6-2.3,2.9-2.6c0.7-0.1,2.4,1.7,2.5,2.6C209,62.6,207.7,63.7,206.3,65.9z"/>
<path d="M217.9,61.6c-2.2,1.4-3.4,2.7-4.5,2.7c-0.9,0-2.7-1.8-2.6-2.5c0.4-1.3,1.3-2.4,2.6-2.9C214.5,58.7,215.7,60.1,217.9,61.6z"
	/>
<path d="M220.6,65.9c-1.3-2.3-2.7-3.6-2.5-4.6c0.5-1.3,1.7-2.2,3-2.5c0.7-0.1,2.4,1.8,2.4,2.7C223.4,62.7,222.1,63.8,220.6,65.9z"/>
<path d="M228.1,57.2c1.4,2.2,2.8,3.5,2.6,4.5c-0.5,1.3-1.6,2.2-3,2.5c-0.7,0.1-2.4-1.7-2.4-2.7S226.7,59.3,228.1,57.2z"/>
<path d="M235.4,65.9c-1.5-2.1-3-3.3-2.9-4.3c0.4-1.3,1.4-2.3,2.8-2.7c0.7-0.2,2.5,1.5,2.6,2.5C238,62.4,236.8,63.6,235.4,65.9z"/>
<path d="M90.6,64.4c1.3,2.2,2.8,3.5,2.6,4.5c-0.5,1.3-1.6,2.2-3,2.5c-0.7,0.1-2.4-1.7-2.4-2.7S89.1,66.5,90.6,64.4z"/>
<path d="M102.1,68.6c-2.1,1.5-3.3,3-4.3,2.8C96.4,71,95.4,70,95,68.7c-0.2-0.7,1.5-2.5,2.5-2.6C98.6,66,99.8,67.3,102.1,68.6z"/>
<path d="M116.6,68.8c-2.2,1.4-3.4,2.8-4.4,2.7c-1.3-0.5-2.3-1.6-2.6-2.9c-0.1-0.7,1.7-2.4,2.6-2.5C113.3,66,114.4,67.4,116.6,68.8z"
	/>
<path d="M115.1,68.5c2.3-1.3,3.6-2.7,4.6-2.5c1.3,0.5,2.2,1.7,2.4,3c0.1,0.7-1.8,2.3-2.7,2.3S117.2,70,115.1,68.5z"/>
<path d="M131,68.7c-2.2,1.4-3.4,2.9-4.4,2.7c-1.3-0.5-2.3-1.5-2.6-2.9c-0.1-0.7,1.6-2.5,2.6-2.5C127.7,66,128.8,67.3,131,68.7z"/>
<path d="M138.3,68.6c-2.1,1.5-3.3,3-4.3,2.9c-1.3-0.4-2.4-1.4-2.8-2.8c-0.1-0.7,1.5-2.5,2.5-2.6C134.8,66,136,67.3,138.3,68.6z"/>
<path d="M152.8,68.9c-2.2,1.3-3.5,2.8-4.5,2.6c-1.3-0.5-2.3-1.6-2.6-3c-0.1-0.7,1.7-2.4,2.7-2.4S150.6,67.4,152.8,68.9z"/>
<path d="M167.2,68.6c-2.1,1.5-3.3,3-4.3,2.9c-1.3-0.4-2.3-1.4-2.8-2.8c-0.1-0.7,1.5-2.5,2.5-2.6C163.8,66,165,67.3,167.2,68.6z"/>
<path d="M170.1,73.1c-1.4-2.2-2.8-3.4-2.7-4.4c0.5-1.3,1.6-2.3,2.9-2.6c0.7-0.1,2.5,1.7,2.5,2.6C172.8,69.8,171.5,71,170.1,73.1z"/>
<path d="M184.8,64.4c1.3,2.3,2.7,3.6,2.5,4.6c-0.5,1.3-1.7,2.2-3,2.5c-0.7,0.1-2.3-1.8-2.3-2.8S183.3,66.5,184.8,64.4z"/>
<path d="M196.2,68.8c-2.2,1.4-3.4,2.8-4.4,2.7c-1.3-0.5-2.3-1.6-2.6-2.9c-0.1-0.7,1.6-2.4,2.6-2.5C192.9,66,194,67.4,196.2,68.8z"/>
<path d="M217.9,69c-2.3,1.3-3.6,2.7-4.6,2.5c-1.3-0.5-2.2-1.7-2.5-3c-0.1-0.7,1.8-2.4,2.7-2.3C214.7,66.1,215.8,67.5,217.9,69z"/>
<path d="M225.1,68.9c-2.2,1.3-3.5,2.8-4.5,2.6c-1.3-0.5-2.3-1.6-2.6-3c-0.1-0.7,1.7-2.4,2.7-2.4C221.9,66.1,223,67.4,225.1,68.9z"/>
<path d="M228.2,73.1c-1.5-2.1-3-3.3-2.9-4.3c0.4-1.3,1.4-2.3,2.8-2.8c0.7-0.2,2.5,1.5,2.6,2.5C230.8,69.7,229.5,70.9,228.2,73.1z"/>
<path d="M235.4,73.1c-1.5-2.1-3-3.3-2.9-4.3c0.4-1.3,1.5-2.4,2.8-2.8c0.7-0.2,2.5,1.5,2.6,2.5C238,69.7,236.7,70.9,235.4,73.1z"/>
<path d="M90.5,80.4c-1.4-2.2-2.8-3.4-2.7-4.4c0.5-1.3,1.6-2.3,2.9-2.6c0.7-0.1,2.4,1.7,2.5,2.6S91.9,78.2,90.5,80.4z"/>
<path d="M105.1,80.4c-1.5-2.1-3-3.3-2.9-4.3c0.4-1.3,1.4-2.3,2.7-2.8c0.7-0.2,2.6,1.5,2.6,2.5C107.7,76.9,106.4,78.1,105.1,80.4z"/>
<path d="M119.7,71.6c1.3,2.3,2.7,3.6,2.5,4.6c-0.6,1.3-1.7,2.2-3.1,2.4c-0.7,0.1-2.3-1.8-2.3-2.7S118.1,73.7,119.7,71.6z"/>
<path d="M138.3,76.1c-2.2,1.3-3.5,2.7-4.5,2.6c-1.3-0.5-2.2-1.6-2.5-3c-0.1-0.7,1.7-2.4,2.7-2.4C135.1,73.3,136.2,74.7,138.3,76.1z"
	/>
<path d="M152.8,75.8c-2.1,1.5-3.3,3-4.3,2.9c-1.3-0.4-2.3-1.5-2.7-2.8c-0.2-0.7,1.5-2.5,2.5-2.6C149.3,73.2,150.5,74.5,152.8,75.8z"
	/>
<path d="M167.2,76.1c-2.2,1.3-3.5,2.8-4.5,2.6c-1.3-0.5-2.3-1.6-2.5-3c-0.1-0.7,1.7-2.4,2.7-2.4S165.1,74.6,167.2,76.1z"/>
<path d="M177.3,80.4c-1.4-2.2-2.8-3.4-2.7-4.4c0.5-1.3,1.6-2.3,2.9-2.6c0.7-0.1,2.5,1.7,2.5,2.6C180.1,77.1,178.7,78.2,177.3,80.4z"
	/>
<path d="M196.2,76c-2.2,1.4-3.4,2.7-4.5,2.7s-2.7-1.8-2.6-2.5c0.3-1.3,1.3-2.4,2.6-2.9C192.8,73.2,194,74.6,196.2,76z"/>
<path d="M201.9,75.8c2.3-1.3,3.6-2.7,4.6-2.5c1.3,0.5,2.2,1.7,2.5,3.1c0.1,0.7-1.8,2.3-2.8,2.3C205.1,78.7,204,77.3,201.9,75.8z"/>
<path d="M225.1,75.8c-2.1,1.5-3.3,3-4.3,2.9c-1.3-0.4-2.4-1.5-2.8-2.8c-0.1-0.7,1.5-2.5,2.5-2.6C221.7,73.2,222.9,74.5,225.1,75.8z"
	/>
<path d="M235.1,71.6c1.5,2.1,3,3.3,2.8,4.3c-0.4,1.3-1.5,2.3-2.8,2.7c-0.7,0.2-2.5-1.5-2.6-2.5C232.5,75.1,233.8,73.9,235.1,71.6z"
	/>
<path d="M94.8,83.4c-2.2,1.3-3.5,2.7-4.5,2.6c-1.3-0.5-2.2-1.6-2.5-3c-0.1-0.7,1.7-2.4,2.7-2.4C91.6,80.5,92.7,81.9,94.8,83.4z"/>
<path d="M112,87.6c-1.3-2.3-2.7-3.6-2.5-4.6c0.5-1.3,1.7-2.2,3-2.5c0.7-0.1,2.4,1.8,2.3,2.7C114.9,84.4,113.5,85.5,112,87.6z"/>
<path d="M123.8,83.3c-2.2,1.4-3.4,2.7-4.5,2.7c-0.9,0-2.7-1.8-2.6-2.5c0.4-1.3,1.3-2.4,2.7-2.9C120.4,80.4,121.6,81.9,123.8,83.3z"
	/>
<path d="M138.3,83.1c-2.1,1.5-3.3,3-4.3,2.8c-1.3-0.4-2.3-1.4-2.7-2.8c-0.1-0.7,1.5-2.5,2.5-2.6C134.8,80.5,136,81.7,138.3,83.1z"/>
<path d="M160,83.3c-2.2,1.4-3.5,2.8-4.5,2.6c-1.3-0.5-2.2-1.6-2.5-2.9c-0.1-0.7,1.7-2.4,2.7-2.4C156.7,80.5,157.9,81.9,160,83.3z"/>
<path d="M163,78.9c1.3,2.2,2.7,3.5,2.6,4.5c-0.5,1.3-1.6,2.2-3,2.5c-0.7,0.1-2.4-1.7-2.4-2.7C160.2,82.1,161.5,81,163,78.9z"/>
<path d="M196.2,83.4c-2.2,1.3-3.5,2.7-4.5,2.6c-1.3-0.5-2.2-1.6-2.5-3c-0.1-0.7,1.7-2.4,2.7-2.4S194.1,81.9,196.2,83.4z"/>
<path d="M203.4,83.2c-2.1,1.4-3.4,2.9-4.4,2.8c-1.3-0.4-2.3-1.5-2.7-2.8c-0.1-0.7,1.6-2.5,2.5-2.5C200,80.5,201.2,81.8,203.4,83.2z"
	/>
<path d="M206.3,87.6c-1.4-2.2-2.8-3.4-2.7-4.4c0.5-1.3,1.6-2.3,2.9-2.6c0.7-0.1,2.4,1.7,2.5,2.6S207.7,85.4,206.3,87.6z"/>
<path d="M225.1,83.3c-2.2,1.4-3.4,2.8-4.4,2.7c-1.3-0.5-2.3-1.6-2.6-2.9c-0.1-0.7,1.6-2.4,2.6-2.5C221.8,80.5,223,81.8,225.1,83.3z"
	/>
<path d="M228.2,87.6c-1.5-2.1-3-3.3-2.9-4.3c0.4-1.3,1.4-2.3,2.8-2.8c0.7-0.2,2.5,1.5,2.6,2.5C230.8,84.1,229.5,85.4,228.2,87.6z"/>
<path d="M36.9,90.5c-2.2,1.4-3.4,2.7-4.5,2.7c-1,0-2.7-1.8-2.6-2.5c0.4-1.3,1.3-2.4,2.7-2.9C33.6,87.7,34.8,89.1,36.9,90.5z"/>
<path d="M61.5,86.1c1.4,2.2,2.9,3.4,2.7,4.4c-0.5,1.3-1.5,2.3-2.9,2.7c-0.7,0.1-2.5-1.6-2.5-2.6S60.1,88.3,61.5,86.1z"/>
<path d="M75.9,86.1c1.4,2.2,2.9,3.4,2.8,4.4c-0.5,1.3-1.5,2.3-2.9,2.7c-0.7,0.1-2.5-1.6-2.5-2.6C73.3,89.5,74.6,88.3,75.9,86.1z"/>
<path d="M83.2,94.8c-1.4-2.2-2.8-3.4-2.7-4.4c0.5-1.3,1.6-2.3,2.9-2.6c0.7-0.1,2.4,1.7,2.5,2.6C86,91.5,84.6,92.7,83.2,94.8z"/>
<path d="M94.8,90.3c-2.1,1.5-3.3,3-4.3,2.8c-1.3-0.4-2.3-1.5-2.7-2.8c-0.2-0.7,1.5-2.5,2.5-2.6C91.4,87.7,92.6,89,94.8,90.3z"/>
<path d="M102.1,90.5c-2.2,1.4-3.4,2.8-4.4,2.7c-1.3-0.5-2.3-1.5-2.7-2.9c-0.1-0.7,1.7-2.5,2.6-2.5C98.8,87.8,99.9,89.1,102.1,90.5z"
	/>
<path d="M109.3,90.4c-2.2,1.4-3.4,2.9-4.4,2.8c-1.3-0.4-2.3-1.5-2.7-2.8c-0.1-0.7,1.6-2.5,2.5-2.5C106,87.7,107.1,89,109.3,90.4z"/>
<path d="M126.6,94.8c-1.4-2.2-2.8-3.5-2.6-4.5c0.5-1.3,1.6-2.3,3-2.6c0.7-0.1,2.4,1.7,2.4,2.7C129.4,91.6,128,92.7,126.6,94.8z"/>
<path d="M133.9,86.1c1.4,2.2,2.9,3.4,2.7,4.4c-0.4,1.3-1.5,2.3-2.9,2.7c-0.7,0.1-2.5-1.6-2.5-2.6C131.2,89.5,132.5,88.3,133.9,86.1z
	"/>
<path d="M163.1,86.1c1.3,2.3,2.7,3.6,2.5,4.6c-0.5,1.3-1.7,2.2-3.1,2.5c-0.7,0.1-2.3-1.8-2.3-2.7C160.2,89.3,161.6,88.2,163.1,86.1z
	"/>
<path d="M169.9,94.8c-1.3-2.3-2.7-3.6-2.5-4.6c0.5-1.3,1.7-2.2,3-2.5c0.7-0.1,2.4,1.8,2.3,2.7S171.4,92.7,169.9,94.8z"/>
<path d="M196.2,90.5c-2.2,1.4-3.4,2.8-4.4,2.7c-1.3-0.5-2.3-1.6-2.6-2.9c-0.1-0.7,1.6-2.4,2.6-2.5C192.9,87.7,194,89.1,196.2,90.5z"
	/>
<path d="M203.4,90.7c-2.3,1.3-3.6,2.7-4.6,2.5c-1.3-0.5-2.2-1.7-2.5-3c-0.1-0.7,1.8-2.4,2.7-2.3C200.2,87.8,201.3,89.2,203.4,90.7z"
	/>
<path d="M210.7,90.5c-2.2,1.4-3.4,2.8-4.4,2.7c-1.3-0.5-2.3-1.6-2.6-2.9c-0.1-0.7,1.6-2.4,2.6-2.5C207.3,87.7,208.5,89.1,210.7,90.5
	z"/>
<path d="M217.9,90.5c-2.2,1.4-3.4,2.8-4.4,2.7c-1.3-0.5-2.3-1.6-2.6-2.9c-0.1-0.7,1.6-2.4,2.6-2.5S215.7,89.1,217.9,90.5z"/>
<path d="M225.1,90.6c-2.2,1.4-3.5,2.8-4.5,2.6c-1.3-0.5-2.3-1.6-2.6-3c-0.1-0.7,1.7-2.4,2.7-2.4C221.9,87.8,223,89.1,225.1,90.6z"/>
<path d="M228,86.1c1.4,2.2,2.9,3.4,2.7,4.4c-0.4,1.3-1.5,2.3-2.9,2.7c-0.7,0.1-2.5-1.6-2.5-2.6C225.3,89.5,226.6,88.3,228,86.1z"/>
<path d="M239.6,90.6c-2.2,1.3-3.5,2.7-4.5,2.5c-1.3-0.5-2.2-1.6-2.5-3c-0.1-0.7,1.7-2.4,2.7-2.4C236.4,87.8,237.5,89.1,239.6,90.6z"
	/>
<path d="M242.5,94.8c-1.4-2.2-2.8-3.4-2.7-4.4c0.5-1.3,1.6-2.3,2.9-2.6c0.7-0.1,2.5,1.7,2.5,2.6C245.2,91.5,243.9,92.7,242.5,94.8z"
	/>
<path d="M250,86.1c1.3,2.3,2.7,3.6,2.5,4.6c-0.6,1.3-1.7,2.2-3.1,2.4c-0.7,0.1-2.3-1.8-2.3-2.8S248.4,88.2,250,86.1z"/>
<path d="M256.9,94.8c-1.4-2.2-2.8-3.5-2.6-4.5c0.5-1.3,1.6-2.3,3-2.6c0.7-0.1,2.4,1.7,2.4,2.7C259.6,91.6,258.3,92.7,256.9,94.8z"/>
<path d="M264.1,86.1c1.4,2.2,2.9,3.4,2.7,4.4c-0.5,1.3-1.5,2.3-2.9,2.7c-0.7,0.1-2.5-1.6-2.5-2.6S262.8,88.3,264.1,86.1z"/>
<path d="M271.3,94.8c-1.4-2.2-2.8-3.5-2.6-4.5c0.5-1.3,1.6-2.3,3-2.6c0.7-0.1,2.4,1.7,2.4,2.7C274.1,91.6,272.8,92.7,271.3,94.8z"/>
<path d="M293.1,94.8c-1.4-2.2-2.8-3.4-2.7-4.4c0.5-1.3,1.6-2.3,2.9-2.6c0.7-0.1,2.5,1.7,2.5,2.6C295.9,91.5,294.5,92.7,293.1,94.8z"
	/>
<path d="M44.2,97.8c-2.2,1.3-3.5,2.7-4.5,2.6c-1.3-0.5-2.2-1.6-2.5-3C37,96.7,38.9,95,39.8,95S42,96.4,44.2,97.8z"/>
<path d="M51.4,97.9c-2.3,1.3-3.6,2.7-4.6,2.5c-1.3-0.5-2.2-1.7-2.5-3c-0.1-0.7,1.8-2.3,2.7-2.3S49.3,96.4,51.4,97.9z"/>
<path d="M54.2,102.1c-1.3-2.2-2.8-3.5-2.6-4.5c0.5-1.3,1.6-2.3,3-2.6c0.7-0.1,2.4,1.7,2.4,2.7C57,98.8,55.6,100,54.2,102.1z"/>
<path d="M73.1,97.6c-2.2,1.4-3.4,2.9-4.4,2.8c-1.3-0.4-2.3-1.5-2.7-2.8c-0.1-0.7,1.6-2.5,2.5-2.5C69.8,95,70.9,96.3,73.1,97.6z"/>
<path d="M87.6,97.8c-2.2,1.3-3.5,2.7-4.5,2.6c-1.3-0.5-2.2-1.6-2.5-3c-0.1-0.7,1.7-2.4,2.7-2.4C84.4,95,85.5,96.4,87.6,97.8z"/>
<path d="M97.9,102.1c-1.5-2.1-3-3.3-2.9-4.3c0.4-1.3,1.4-2.4,2.8-2.8c0.7-0.2,2.6,1.5,2.6,2.5C100.5,98.6,99.2,99.9,97.9,102.1z"/>
<path d="M119.7,93.3c1.3,2.3,2.7,3.6,2.5,4.6c-0.6,1.3-1.7,2.2-3.1,2.4c-0.7,0.1-2.3-1.8-2.3-2.8S118.1,95.4,119.7,93.3z"/>
<path d="M138.3,97.8c-2.2,1.4-3.5,2.8-4.5,2.6c-1.3-0.5-2.3-1.6-2.6-3c-0.1-0.7,1.7-2.4,2.7-2.4S136.1,96.4,138.3,97.8z"/>
<path d="M148.2,102.1c-1.3-2.3-2.7-3.6-2.5-4.6c0.5-1.3,1.7-2.2,3-2.5c0.7-0.1,2.4,1.8,2.3,2.7C151.1,98.9,149.7,100,148.2,102.1z"
	/>
<path d="M170,102.1c-1.4-2.2-2.8-3.5-2.6-4.5c0.5-1.3,1.6-2.3,3-2.6c0.7-0.1,2.4,1.7,2.4,2.7C172.8,98.8,171.4,100,170,102.1z"/>
<path d="M181.7,97.8c-2.2,1.4-3.5,2.8-4.5,2.6c-1.3-0.5-2.3-1.6-2.6-3c-0.1-0.7,1.7-2.4,2.7-2.4S179.6,96.4,181.7,97.8z"/>
<path d="M188.9,97.5c-2.1,1.5-3.3,3-4.3,2.9c-1.3-0.4-2.4-1.4-2.8-2.8c-0.1-0.7,1.5-2.6,2.5-2.6C185.5,95,186.7,96.2,188.9,97.5z"/>
<path d="M213.4,102.1c-1.4-2.2-2.8-3.5-2.6-4.5c0.5-1.3,1.6-2.3,3-2.6c0.7-0.1,2.4,1.7,2.4,2.7C216.2,98.8,214.9,100,213.4,102.1z"
	/>
<path d="M242.4,93.3c1.4,2.2,2.9,3.4,2.7,4.4c-0.5,1.3-1.5,2.3-2.9,2.7c-0.7,0.1-2.5-1.6-2.5-2.6C239.8,96.7,241.1,95.5,242.4,93.3z
	"/>
<path d="M254.1,97.7c-2.2,1.4-3.4,2.8-4.4,2.7c-1.3-0.5-2.3-1.6-2.6-2.9c-0.1-0.7,1.6-2.4,2.6-2.5S251.9,96.3,254.1,97.7z"/>
<path d="M261.3,97.8c-2.2,1.3-3.5,2.7-4.5,2.6c-1.3-0.5-2.2-1.6-2.5-3c-0.1-0.7,1.7-2.4,2.7-2.4C258.1,95,259.2,96.4,261.3,97.8z"/>
<path d="M264.1,102.1c-1.4-2.2-2.8-3.5-2.6-4.5c0.5-1.3,1.6-2.3,3-2.6c0.7-0.1,2.4,1.7,2.4,2.7C266.9,98.8,265.5,100,264.1,102.1z"
	/>
<path d="M290.3,97.6c-2.1,1.4-3.4,2.9-4.4,2.8c-1.3-0.4-2.3-1.5-2.7-2.8c-0.1-0.7,1.6-2.5,2.5-2.5C286.9,95,288.1,96.3,290.3,97.6z"
	/>
<path d="M39.8,100.6c1.4,2.2,2.7,3.4,2.7,4.5c0,1-1.8,2.7-2.5,2.6c-1.3-0.4-2.4-1.3-2.9-2.6C37,104,38.4,102.8,39.8,100.6z"/>
<path d="M47.1,109.3c-1.4-2.2-2.9-3.4-2.8-4.4c0.4-1.3,1.5-2.3,2.8-2.7c0.7-0.1,2.5,1.6,2.5,2.5C49.8,105.9,48.5,107.1,47.1,109.3z"
	/>
<path d="M65.9,105.1c-2.2,1.3-3.5,2.8-4.5,2.6c-1.3-0.5-2.3-1.6-2.5-3c-0.1-0.7,1.7-2.4,2.7-2.4S63.8,103.6,65.9,105.1z"/>
<path d="M80.4,105.2c-2.3,1.3-3.6,2.7-4.6,2.5c-1.3-0.5-2.2-1.7-2.5-3c-0.1-0.7,1.8-2.4,2.7-2.3C77.2,102.3,78.3,103.7,80.4,105.2z"
	/>
<path d="M83.2,109.3c-1.4-2.2-2.8-3.4-2.7-4.4c0.5-1.3,1.6-2.3,2.9-2.6c0.7-0.1,2.4,1.7,2.5,2.6C86,106,84.6,107.2,83.2,109.3z"/>
<path d="M86.1,104.7c2.3-1.3,3.6-2.7,4.6-2.5c1.3,0.5,2.2,1.7,2.5,3.1c0.1,0.7-1.8,2.3-2.7,2.3C89.3,107.6,88.2,106.2,86.1,104.7z"
	/>
<path d="M102.1,104.8c-2.1,1.5-3.3,3-4.3,2.9c-1.3-0.4-2.4-1.4-2.8-2.8c-0.2-0.7,1.5-2.6,2.5-2.6C98.6,102.2,99.9,103.5,102.1,104.8
	z"/>
<path d="M112.1,109.3c-1.3-2.2-2.8-3.5-2.6-4.5c0.5-1.3,1.6-2.2,3-2.5c0.7-0.1,2.4,1.7,2.4,2.7S113.6,107.2,112.1,109.3z"/>
<path d="M123.8,105c-2.2,1.4-3.4,2.7-4.5,2.7c-0.9,0-2.7-1.8-2.6-2.5c0.4-1.3,1.3-2.4,2.7-2.9C120.4,102.1,121.6,103.6,123.8,105z"
	/>
<path d="M126.5,109.3c-1.3-2.3-2.7-3.6-2.5-4.6c0.5-1.3,1.7-2.2,3-2.5c0.7-0.1,2.4,1.8,2.3,2.7C129.3,106.1,128,107.2,126.5,109.3z"
	/>
<path d="M138.3,105.1c-2.2,1.3-3.5,2.8-4.5,2.6c-1.3-0.5-2.3-1.6-2.6-3c-0.1-0.7,1.7-2.4,2.7-2.4S136.1,103.6,138.3,105.1z"/>
<path d="M152.8,105.2c-2.3,1.3-3.6,2.7-4.6,2.5c-1.3-0.5-2.2-1.7-2.5-3c-0.1-0.7,1.8-2.4,2.7-2.3
	C149.6,102.3,150.7,103.7,152.8,105.2z"/>
<path d="M155.8,109.3c-1.5-2.1-3-3.3-2.9-4.3c0.4-1.3,1.4-2.4,2.8-2.7c0.7-0.2,2.6,1.5,2.6,2.5C158.4,105.9,157.1,107.1,155.8,109.3
	z"/>
<path d="M177.2,100.6c1.5,2.1,3,3.3,2.8,4.3c-0.4,1.3-1.5,2.3-2.8,2.7c-0.7,0.2-2.5-1.5-2.6-2.5C174.6,104,175.9,102.8,177.2,100.6z
	"/>
<path d="M184.8,100.6c1.3,2.3,2.7,3.6,2.5,4.6c-0.5,1.3-1.7,2.2-3,2.5c-0.7,0.1-2.4-1.8-2.3-2.8
	C181.9,103.8,183.3,102.7,184.8,100.6z"/>
<path d="M217.9,104.9c-2.1,1.4-3.4,2.9-4.4,2.8c-1.3-0.4-2.3-1.5-2.7-2.8c-0.1-0.7,1.6-2.5,2.5-2.5
	C214.5,102.2,215.7,103.5,217.9,104.9z"/>
<path d="M227.8,109.3c-1.3-2.3-2.7-3.6-2.5-4.6c0.5-1.3,1.7-2.2,3-2.5c0.7-0.1,2.4,1.8,2.3,2.7S229.3,107.2,227.8,109.3z"/>
<path d="M242.6,109.3c-1.4-2.2-2.9-3.4-2.8-4.4c0.4-1.3,1.5-2.3,2.8-2.7c0.7-0.1,2.5,1.6,2.5,2.5
	C245.2,105.9,243.9,107.1,242.6,109.3z"/>
<path d="M249.9,109.3c-1.5-2.1-3-3.3-2.9-4.3c0.4-1.3,1.4-2.4,2.8-2.7c0.7-0.2,2.6,1.5,2.6,2.5C252.5,105.9,251.2,107.1,249.9,109.3
	z"/>
<path d="M257.1,109.3c-1.5-2.1-3-3.3-2.9-4.3c0.4-1.3,1.4-2.4,2.8-2.7c0.7-0.2,2.5,1.5,2.6,2.5C259.7,105.9,258.5,107.1,257.1,109.3
	z"/>
<path d="M283,105c-2.2,1.4-3.4,2.8-4.4,2.7c-1.3-0.5-2.3-1.6-2.6-2.9c-0.1-0.7,1.6-2.4,2.6-2.5S280.9,103.6,283,105z"/>
<path d="M36.9,112.3c-2.2,1.3-3.5,2.8-4.5,2.6c-1.3-0.5-2.3-1.6-2.5-3c-0.1-0.7,1.7-2.4,2.7-2.4S34.8,110.8,36.9,112.3z"/>
<path d="M64.4,112c2.3-1.3,3.6-2.7,4.6-2.5c1.3,0.5,2.2,1.7,2.5,3c0.1,0.7-1.8,2.3-2.8,2.3S66.5,113.5,64.4,112z"/>
<path d="M87.6,112c-2.1,1.5-3.3,3-4.3,2.9c-1.3-0.4-2.4-1.4-2.8-2.8c-0.2-0.7,1.5-2.6,2.5-2.6C84.2,109.4,85.4,110.7,87.6,112z"/>
<path d="M116.6,112.3c-2.2,1.3-3.5,2.7-4.5,2.6c-1.3-0.5-2.2-1.6-2.5-3c-0.1-0.7,1.7-2.4,2.7-2.4
	C113.3,109.5,114.4,110.9,116.6,112.3z"/>
<path d="M123.8,112.2c-2.2,1.4-3.4,2.7-4.5,2.7c-0.9,0-2.7-1.8-2.6-2.5c0.4-1.3,1.3-2.4,2.7-2.9
	C120.4,109.4,121.6,110.8,123.8,112.2z"/>
<path d="M131,112.2c-2.2,1.4-3.4,2.7-4.5,2.7c-1,0-2.7-1.8-2.6-2.5c0.3-1.3,1.3-2.4,2.7-2.9C127.6,109.4,128.9,110.8,131,112.2z"/>
<path d="M160,112.1c-2.1,1.4-3.4,2.9-4.4,2.8c-1.3-0.5-2.3-1.5-2.6-2.9c-0.1-0.7,1.6-2.5,2.5-2.5C156.6,109.5,157.8,110.8,160,112.1
	z"/>
<path d="M167.2,112c-2.1,1.5-3.3,3-4.3,2.9c-1.3-0.4-2.4-1.4-2.8-2.8c-0.1-0.7,1.5-2.5,2.5-2.6C163.8,109.4,165,110.7,167.2,112z"/>
<path d="M188.9,112.2c-2.2,1.4-3.4,2.8-4.4,2.7c-1.3-0.5-2.3-1.5-2.6-2.9c-0.1-0.7,1.6-2.4,2.6-2.5
	C185.6,109.5,186.8,110.8,188.9,112.2z"/>
<path d="M192,107.8c1.3,2.2,2.7,3.5,2.6,4.5c-0.5,1.3-1.6,2.2-3,2.5c-0.7,0.1-2.4-1.7-2.4-2.7S190.5,110,192,107.8z"/>
<path d="M206.5,107.8c1.3,2.3,2.7,3.6,2.5,4.6c-0.5,1.3-1.7,2.2-3,2.5c-0.7,0.1-2.4-1.8-2.3-2.8C203.6,111,205,109.9,206.5,107.8z"
	/>
<path d="M232.4,112.1c-2.1,1.4-3.4,2.9-4.4,2.8c-1.3-0.4-2.3-1.5-2.7-2.8c-0.1-0.7,1.6-2.5,2.5-2.5
	C229,109.4,230.2,110.7,232.4,112.1z"/>
<path d="M239.6,112.4c-2.3,1.3-3.6,2.7-4.6,2.5c-1.3-0.5-2.2-1.7-2.5-3c-0.1-0.7,1.8-2.3,2.7-2.3S237.5,110.9,239.6,112.4z"/>
<path d="M242.4,116.6c-1.4-2.2-2.8-3.5-2.6-4.5c0.5-1.3,1.6-2.3,3-2.5c0.7-0.1,2.4,1.7,2.4,2.7S243.8,114.4,242.4,116.6z"/>
<path d="M271.7,107.8c1.3,2.3,2.7,3.6,2.5,4.6c-0.5,1.3-1.7,2.2-3,2.5c-0.7,0.1-2.4-1.8-2.3-2.8C268.8,111,270.2,109.9,271.7,107.8z
	"/>
<path d="M278.9,107.8c1.3,2.3,2.7,3.6,2.5,4.6c-0.5,1.3-1.7,2.2-3,2.5c-0.7,0.1-2.4-1.8-2.3-2.8C276,111,277.4,109.9,278.9,107.8z"
	/>
<path d="M290.3,112.2c-2.2,1.4-3.4,2.7-4.5,2.7c-1,0-2.7-1.8-2.6-2.5c0.3-1.3,1.3-2.4,2.6-2.9C286.9,109.4,288.1,110.8,290.3,112.2z
	"/>
<path d="M36.9,119.6c-2.3,1.3-3.6,2.7-4.6,2.5c-1.3-0.5-2.2-1.7-2.5-3c-0.1-0.7,1.8-2.4,2.7-2.3C33.8,116.8,34.8,118.1,36.9,119.6z"
	/>
<path d="M39.6,123.8c-1.3-2.3-2.7-3.6-2.5-4.6c0.5-1.3,1.7-2.2,3-2.5c0.7-0.1,2.4,1.8,2.3,2.7C42.5,120.6,41.1,121.7,39.6,123.8z"/>
<path d="M54.4,123.8c-1.4-2.2-2.9-3.4-2.8-4.4c0.4-1.3,1.5-2.3,2.8-2.7c0.7-0.1,2.5,1.6,2.5,2.5C57,120.4,55.7,121.6,54.4,123.8z"/>
<path d="M61.4,123.8c-1.3-2.2-2.8-3.5-2.6-4.5c0.5-1.3,1.6-2.3,3-2.5c0.7-0.1,2.4,1.7,2.4,2.7C64.2,120.5,62.9,121.7,61.4,123.8z"/>
<path d="M68.9,123.8c-1.5-2.1-3-3.3-2.9-4.3c0.4-1.3,1.4-2.4,2.8-2.8c0.7-0.2,2.5,1.5,2.6,2.5C71.5,120.3,70.3,121.5,68.9,123.8z"/>
<path d="M75.9,123.8c-1.4-2.2-2.8-3.5-2.6-4.5c0.5-1.3,1.6-2.3,3-2.5c0.7-0.1,2.4,1.7,2.4,2.7C78.7,120.5,77.3,121.7,75.9,123.8z"/>
<path d="M83.2,115.1c1.4,2.2,2.9,3.4,2.7,4.4c-0.4,1.3-1.5,2.3-2.8,2.7c-0.7,0.1-2.5-1.6-2.5-2.6C80.5,118.4,81.8,117.3,83.2,115.1z
	"/>
<path d="M104.8,115.1c1.5,2.1,3,3.3,2.8,4.3c-0.4,1.3-1.5,2.3-2.8,2.7c-0.7,0.2-2.5-1.5-2.6-2.5
	C102.2,118.5,103.5,117.3,104.8,115.1z"/>
<path d="M112.1,115.1c1.4,2.2,2.9,3.4,2.7,4.4c-0.5,1.3-1.5,2.3-2.9,2.7c-0.7,0.1-2.5-1.6-2.5-2.6
	C109.5,118.4,110.8,117.2,112.1,115.1z"/>
<path d="M145.5,119.4c-2.1,1.4-3.4,2.9-4.4,2.8c-1.3-0.5-2.3-1.5-2.7-2.9c-0.1-0.7,1.6-2.5,2.6-2.5
	C142.1,116.7,143.3,118,145.5,119.4z"/>
<path d="M152.8,119.4c-2.1,1.4-3.4,2.9-4.4,2.7c-1.3-0.5-2.3-1.5-2.7-2.9c-0.1-0.7,1.6-2.5,2.6-2.5
	C149.4,116.7,150.6,118,152.8,119.4z"/>
<path d="M167.2,119.3c-2.1,1.5-3.3,3-4.3,2.9c-1.3-0.4-2.4-1.5-2.8-2.8c-0.1-0.7,1.5-2.5,2.5-2.6C163.8,116.7,165,117.9,167.2,119.3
	z"/>
<path d="M170.1,115.1c1.4,2.2,2.9,3.4,2.7,4.4c-0.5,1.3-1.5,2.3-2.9,2.7c-0.7,0.1-2.5-1.6-2.5-2.6
	C167.4,118.4,168.7,117.2,170.1,115.1z"/>
<path d="M177.5,115.1c1.3,2.2,2.7,3.5,2.5,4.5c-0.5,1.3-1.6,2.2-3,2.5c-0.7,0.1-2.4-1.7-2.4-2.7C174.6,118.3,176,117.2,177.5,115.1z
	"/>
<path d="M192,115.1c1.3,2.2,2.7,3.5,2.6,4.5c-0.5,1.3-1.6,2.2-3,2.5c-0.7,0.1-2.4-1.7-2.4-2.7C189.1,118.3,190.5,117.2,192,115.1z"
	/>
<path d="M199,123.8c-1.4-2.2-2.8-3.5-2.6-4.5c0.5-1.3,1.6-2.3,3-2.5c0.7-0.1,2.4,1.7,2.4,2.7C201.8,120.5,200.4,121.7,199,123.8z"/>
<path d="M206.3,123.8c-1.4-2.2-2.8-3.4-2.7-4.4c0.5-1.3,1.6-2.3,2.9-2.6c0.7-0.1,2.4,1.7,2.5,2.6C209,120.5,207.7,121.6,206.3,123.8
	z"/>
<path d="M213.4,123.8c-1.4-2.2-2.8-3.5-2.6-4.5c0.5-1.3,1.6-2.3,3-2.5c0.7-0.1,2.4,1.7,2.4,2.7C216.2,120.5,214.9,121.7,213.4,123.8
	z"/>
<path d="M220.8,115.1c1.4,2.2,2.7,3.4,2.7,4.5c0,1-1.8,2.7-2.5,2.6c-1.3-0.3-2.4-1.3-2.9-2.6C218,118.4,219.4,117.2,220.8,115.1z"/>
<path d="M239.6,119.3c-2.1,1.4-3.4,2.9-4.4,2.8c-1.3-0.4-2.3-1.5-2.7-2.8c-0.1-0.7,1.6-2.5,2.5-2.5S237.4,118,239.6,119.3z"/>
<path d="M246.9,119.3c-2.1,1.4-3.4,2.9-4.4,2.8c-1.3-0.4-2.3-1.5-2.7-2.8c-0.1-0.7,1.6-2.5,2.5-2.5
	C243.5,116.7,244.6,118,246.9,119.3z"/>
<path d="M249.7,115.1c1.4,2.2,2.9,3.4,2.8,4.4c-0.5,1.3-1.5,2.3-2.9,2.7c-0.7,0.1-2.5-1.6-2.5-2.6
	C247,118.4,248.3,117.2,249.7,115.1z"/>
<path d="M275.8,119.5c-2.2,1.4-3.4,2.7-4.5,2.7c-1,0-2.7-1.8-2.6-2.5c0.3-1.3,1.3-2.4,2.6-2.9C272.4,116.6,273.6,118,275.8,119.5z"
	/>
<path d="M290.3,119.2c-2.1,1.5-3.3,3-4.3,2.9c-1.3-0.4-2.3-1.4-2.7-2.8c-0.2-0.7,1.5-2.6,2.5-2.6C286.8,116.7,288.1,118,290.3,119.2
	z"/>
<path d="M293.4,115.1c1.3,2.3,2.7,3.6,2.5,4.6c-0.6,1.3-1.7,2.2-3.1,2.4c-0.7,0.1-2.4-1.8-2.3-2.7
	C290.5,118.2,291.9,117.1,293.4,115.1z"/>
<path d="M36.9,126.6c-2.2,1.4-3.4,2.9-4.4,2.7c-1.3-0.4-2.3-1.5-2.7-2.9c-0.1-0.7,1.6-2.5,2.6-2.5C33.6,123.9,34.8,125.2,36.9,126.6
	z"/>
<path d="M51.4,126.6c-2.1,1.4-3.4,2.9-4.4,2.8c-1.3-0.4-2.3-1.5-2.7-2.8c-0.1-0.7,1.6-2.5,2.5-2.5C48,123.9,49.2,125.2,51.4,126.6z"
	/>
<path d="M58.7,126.6c-2.2,1.4-3.4,2.9-4.4,2.7c-1.3-0.4-2.3-1.5-2.7-2.9c-0.1-0.7,1.6-2.5,2.5-2.5C55.3,123.9,56.5,125.2,58.7,126.6
	z"/>
<path d="M61.8,122.3c1.3,2.3,2.7,3.6,2.5,4.6c-0.5,1.3-1.7,2.2-3,2.5c-0.7,0.1-2.3-1.8-2.3-2.7S60.2,124.4,61.8,122.3z"/>
<path d="M68.6,122.3c1.5,2.1,3,3.3,2.8,4.3c-0.4,1.3-1.5,2.3-2.8,2.7c-0.7,0.1-2.5-1.5-2.6-2.5C66,125.7,67.3,124.5,68.6,122.3z"/>
<path d="M94.8,126.7c-2.2,1.4-3.4,2.8-4.4,2.7c-1.3-0.5-2.3-1.6-2.6-2.9c-0.1-0.7,1.7-2.4,2.6-2.5C91.5,123.9,92.7,125.3,94.8,126.7
	z"/>
<path d="M97.7,122.3c1.4,2.2,2.9,3.4,2.7,4.4c-0.4,1.3-1.5,2.3-2.8,2.7c-0.7,0.1-2.5-1.6-2.5-2.6C95,125.7,96.3,124.5,97.7,122.3z"
	/>
<path d="M104.8,131c-1.3-2.2-2.8-3.5-2.6-4.5c0.5-1.3,1.6-2.3,3-2.6c0.7-0.1,2.4,1.7,2.4,2.7C107.7,127.8,106.3,128.9,104.8,131z"/>
<path d="M119.4,131c-1.4-2.2-2.8-3.4-2.7-4.4c0.5-1.3,1.6-2.3,2.9-2.6c0.7-0.1,2.4,1.7,2.5,2.6C122.2,127.7,120.8,128.9,119.4,131z"
	/>
<path d="M210.7,126.8c-2.2,1.4-3.5,2.8-4.5,2.6c-1.3-0.5-2.3-1.6-2.5-3c-0.1-0.7,1.7-2.4,2.7-2.4S208.5,125.3,210.7,126.8z"/>
<path d="M220.9,131c-1.4-2.1-2.9-3.4-2.8-4.4c0.4-1.3,1.5-2.3,2.8-2.7c0.7-0.1,2.5,1.6,2.5,2.5C223.5,127.6,222.2,128.8,220.9,131z"
	/>
<path d="M239.6,126.6c-2.1,1.4-3.4,2.9-4.4,2.8c-1.3-0.4-2.3-1.5-2.7-2.8c-0.1-0.7,1.6-2.5,2.5-2.5S237.4,125.2,239.6,126.6z"/>
<path d="M246.9,126.6c-2.2,1.4-3.4,2.9-4.4,2.7c-1.3-0.4-2.3-1.5-2.7-2.9c-0.1-0.7,1.6-2.5,2.6-2.5
	C243.5,123.9,244.7,125.2,246.9,126.6z"/>
<path d="M268.6,126.7c-2.2,1.4-3.4,2.8-4.4,2.7c-1.3-0.5-2.3-1.6-2.6-2.9c-0.1-0.7,1.6-2.4,2.6-2.5
	C265.2,123.9,266.4,125.3,268.6,126.7z"/>
<path d="M271.7,122.3c1.3,2.3,2.7,3.6,2.5,4.6c-0.5,1.3-1.7,2.2-3,2.5c-0.7,0.1-2.4-1.8-2.3-2.7
	C268.8,125.5,270.2,124.4,271.7,122.3z"/>
<path d="M297.5,126.7c-2.2,1.4-3.4,2.8-4.4,2.7c-1.3-0.5-2.3-1.6-2.6-2.9c-0.1-0.7,1.6-2.4,2.6-2.5
	C294.2,124,295.4,125.3,297.5,126.7z"/>
<path d="M39.7,129.6c1.5,2.1,3,3.3,2.8,4.3c-0.4,1.3-1.5,2.3-2.8,2.7c-0.7,0.1-2.5-1.5-2.6-2.5C37,133,38.3,131.8,39.7,129.6z"/>
<path d="M51.4,133.9c-2.2,1.4-3.4,2.8-4.4,2.7c-1.3-0.5-2.3-1.6-2.6-2.9c-0.1-0.7,1.7-2.4,2.6-2.5C48.1,131.2,49.2,132.5,51.4,133.9
	z"/>
<path d="M65.9,133.9c-2.2,1.4-3.4,2.9-4.4,2.7c-1.3-0.4-2.3-1.5-2.7-2.9c-0.1-0.7,1.6-2.5,2.5-2.5C62.5,131.2,63.7,132.5,65.9,133.9
	z"/>
<path d="M73.1,133.7c-2.1,1.5-3.3,3-4.3,2.9c-1.3-0.4-2.4-1.4-2.8-2.8c-0.2-0.7,1.5-2.5,2.5-2.6C69.7,131.1,70.9,132.4,73.1,133.7z"
	/>
<path d="M76.1,129.5c1.3,2.2,2.7,3.5,2.6,4.5c-0.5,1.3-1.6,2.2-3,2.5c-0.7,0.1-2.4-1.7-2.4-2.7C73.3,132.8,74.7,131.6,76.1,129.5z"
	/>
<path d="M87.6,133.7c-2.1,1.5-3.3,3-4.3,2.9c-1.3-0.4-2.4-1.4-2.8-2.8c-0.2-0.7,1.5-2.6,2.5-2.6C84.2,131.1,85.4,132.4,87.6,133.7z"
	/>
<path d="M126.7,138.3c-1.4-2.2-2.8-3.4-2.7-4.4c0.5-1.3,1.6-2.3,2.9-2.6c0.7-0.1,2.4,1.6,2.5,2.6S128.1,136.1,126.7,138.3z"/>
<path d="M138.3,32.7c-2.2,1.3-3.5,2.7-4.5,2.5c-1.3-0.5-2.2-1.6-2.5-3c-0.1-0.7,1.7-2.4,2.7-2.4C135,29.9,136.1,31.2,138.3,32.7z"/>
<path d="M213.5,129.6c1.4,2.1,2.9,3.4,2.8,4.4c-0.5,1.3-1.5,2.3-2.9,2.7c-0.7,0.1-2.5-1.6-2.5-2.6
	C210.8,132.9,212.1,131.7,213.5,129.6z"/>
<path d="M220.6,129.6c1.5,2.1,3,3.3,2.8,4.3c-0.4,1.3-1.5,2.3-2.8,2.7c-0.7,0.1-2.5-1.5-2.6-2.5C218,133,219.3,131.8,220.6,129.6z"
	/>
<path d="M232.4,133.7c-2.1,1.5-3.3,3-4.3,2.9c-1.3-0.4-2.3-1.4-2.7-2.8c-0.1-0.7,1.5-2.5,2.5-2.6
	C228.9,131.1,230.1,132.4,232.4,133.7z"/>
<path d="M249.9,138.3c-1.5-2.1-3-3.3-2.9-4.3c0.4-1.3,1.4-2.4,2.8-2.8c0.7-0.1,2.6,1.5,2.6,2.5C252.5,134.8,251.2,136.1,249.9,138.3
	z"/>
<path d="M261.3,133.8c-2.1,1.4-3.4,2.9-4.4,2.8c-1.3-0.4-2.3-1.5-2.7-2.8c-0.1-0.7,1.6-2.5,2.5-2.5
	C257.9,131.2,259.1,132.5,261.3,133.8z"/>
<path d="M268.6,133.8c-2.1,1.4-3.4,2.9-4.4,2.8c-1.3-0.4-2.3-1.5-2.7-2.8c-0.1-0.7,1.6-2.5,2.5-2.5
	C265.2,131.2,266.4,132.5,268.6,133.8z"/>
<path d="M271.2,138.3c-1.3-2.3-2.7-3.6-2.5-4.6c0.5-1.3,1.7-2.2,3-2.5c0.7-0.1,2.4,1.8,2.3,2.7S272.7,136.2,271.2,138.3z"/>
<path d="M278.5,129.6c1.5,2.1,3,3.3,2.8,4.3c-0.4,1.3-1.5,2.3-2.8,2.7c-0.7,0.1-2.5-1.5-2.6-2.5C275.9,133,277.2,131.8,278.5,129.6z
	"/>
<path d="M293.3,138.3c-1.5-2.1-3-3.3-2.9-4.3c0.4-1.3,1.4-2.4,2.8-2.8c0.7-0.1,2.5,1.5,2.6,2.5C295.9,134.8,294.6,136.1,293.3,138.3
	z"/>
<path d="M32.7,145.5c-1.4-2.1-2.9-3.4-2.8-4.4c0.4-1.3,1.5-2.3,2.8-2.7c0.7-0.1,2.5,1.6,2.5,2.5C35.3,142.1,34,143.3,32.7,145.5z"/>
<path d="M44.2,141.4c-2.3,1.3-3.6,2.7-4.6,2.5c-1.3-0.5-2.2-1.7-2.5-3.1c-0.1-0.7,1.8-2.3,2.7-2.3C41,138.5,42.1,139.9,44.2,141.4z"
	/>
<path d="M65.9,141.2c-2.2,1.4-3.4,2.8-4.4,2.7c-1.3-0.5-2.3-1.6-2.6-2.9c-0.1-0.7,1.7-2.5,2.6-2.5C62.6,138.4,63.7,139.8,65.9,141.2
	z"/>
<path d="M83.1,136.8c1.5,2.1,3,3.3,2.8,4.3c-0.4,1.3-1.5,2.3-2.8,2.7c-0.7,0.1-2.5-1.5-2.6-2.5C80.5,140.2,81.8,139,83.1,136.8z"/>
<path d="M94.8,141.3c-2.2,1.3-3.5,2.7-4.5,2.6c-1.3-0.5-2.2-1.6-2.5-3c-0.1-0.7,1.7-2.4,2.7-2.4C91.6,138.5,92.7,139.8,94.8,141.3z"
	/>
<path d="M102.1,141.2c-2.2,1.4-3.4,2.7-4.5,2.6c-1,0-2.7-1.8-2.6-2.5c0.3-1.3,1.3-2.4,2.7-2.9C98.7,138.3,99.9,139.8,102.1,141.2z"
	/>
<path d="M109.3,141.1c-2.2,1.4-3.4,2.9-4.4,2.8c-1.3-0.4-2.3-1.5-2.7-2.8c-0.1-0.7,1.6-2.5,2.5-2.5
	C106,138.4,107.1,139.7,109.3,141.1z"/>
<path d="M116.6,141c-2.1,1.5-3.3,3-4.3,2.9c-1.3-0.4-2.4-1.4-2.8-2.8c-0.2-0.7,1.5-2.5,2.5-2.6C113.1,138.4,114.3,139.6,116.6,141z"
	/>
<path d="M119.4,145.5c-1.4-2.2-2.8-3.4-2.7-4.4c0.5-1.3,1.6-2.3,2.9-2.6c0.7-0.1,2.4,1.6,2.5,2.6
	C122.2,142.2,120.8,143.3,119.4,145.5z"/>
<path d="M210.7,141.1c-2.2,1.4-3.4,2.9-4.4,2.7c-1.3-0.4-2.3-1.5-2.7-2.9c-0.1-0.7,1.6-2.5,2.6-2.5
	C207.3,138.4,208.5,139.7,210.7,141.1z"/>
<path d="M213.6,136.8c1.4,2.2,2.7,3.4,2.7,4.5c0,1-1.8,2.7-2.5,2.6c-1.3-0.3-2.4-1.3-2.9-2.6C210.7,140.2,212.2,138.9,213.6,136.8z"
	/>
<path d="M228,145.5c-1.4-2.2-2.8-3.4-2.7-4.4c0.5-1.3,1.6-2.3,2.9-2.6c0.7-0.1,2.4,1.6,2.5,2.6S229.4,143.3,228,145.5z"/>
<path d="M238.1,140.9c2.3-1.3,3.6-2.7,4.6-2.5c1.3,0.6,2.2,1.7,2.5,3.1c0.1,0.7-1.8,2.4-2.8,2.3
	C241.3,143.8,240.2,142.4,238.1,140.9z"/>
<path d="M254.1,141.1c-2.1,1.4-3.4,2.9-4.4,2.8c-1.3-0.4-2.3-1.5-2.7-2.8c-0.1-0.7,1.6-2.5,2.5-2.5
	C250.7,138.4,251.9,139.7,254.1,141.1z"/>
<path d="M257.1,136.8c1.3,2.2,2.7,3.5,2.5,4.5c-0.5,1.3-1.6,2.2-3,2.5c-0.7,0.1-2.4-1.7-2.4-2.7C254.3,140,255.6,138.9,257.1,136.8z
	"/>
<path d="M268.6,141.3c-2.2,1.4-3.5,2.8-4.5,2.6c-1.3-0.5-2.3-1.6-2.5-3c-0.1-0.7,1.7-2.4,2.7-2.4
	C265.3,138.5,266.5,139.8,268.6,141.3z"/>
<path d="M278.9,136.8c1.3,2.3,2.7,3.6,2.5,4.6c-0.5,1.3-1.7,2.2-3,2.4c-0.7,0.1-2.4-1.8-2.3-2.8C276,140,277.4,138.9,278.9,136.8z"
	/>
<path d="M290.3,141.2c-2.2,1.4-3.4,2.8-4.4,2.7c-1.3-0.5-2.3-1.6-2.6-2.9c-0.1-0.7,1.6-2.4,2.6-2.5
	C287,138.4,288.1,139.8,290.3,141.2z"/>
<path d="M293.4,136.8c1.3,2.3,2.7,3.6,2.5,4.6c-0.5,1.3-1.7,2.2-3,2.5c-0.7,0.1-2.4-1.8-2.3-2.7C290.5,140,291.9,138.9,293.4,136.8z
	"/>
<path d="M46.9,152.8c-1.3-2.2-2.8-3.5-2.6-4.5c0.5-1.3,1.6-2.2,3-2.5c0.7-0.1,2.4,1.7,2.4,2.7C49.8,149.5,48.4,150.6,46.9,152.8z"/>
<path d="M58.7,148.2c-2.1,1.5-3.3,3-4.3,2.9c-1.3-0.4-2.3-1.4-2.7-2.8c-0.2-0.7,1.5-2.6,2.5-2.6C55.2,145.6,56.4,146.9,58.7,148.2z"
	/>
<path d="M73.1,148.6c-2.3,1.3-3.6,2.7-4.6,2.5c-1.3-0.5-2.2-1.7-2.5-3c-0.1-0.7,1.8-2.4,2.8-2.3S71,147.1,73.1,148.6z"/>
<path d="M75.8,152.8c-1.3-2.3-2.7-3.6-2.5-4.6c0.5-1.3,1.7-2.2,3-2.5c0.7-0.1,2.4,1.8,2.3,2.7C78.7,149.6,77.3,150.7,75.8,152.8z"/>
<path d="M83.2,152.8c-1.4-2.2-2.8-3.4-2.7-4.4c0.5-1.3,1.6-2.3,2.9-2.6c0.7-0.1,2.4,1.7,2.5,2.6C86,149.4,84.6,150.6,83.2,152.8z"/>
<path d="M94.8,148.4c-2.2,1.4-3.4,2.8-4.4,2.7c-1.3-0.5-2.3-1.6-2.6-2.9c-0.1-0.7,1.7-2.4,2.6-2.5C91.5,145.7,92.7,147,94.8,148.4z"
	/>
<path d="M97.9,152.8c-1.5-2.1-3-3.3-2.8-4.3c0.4-1.3,1.4-2.4,2.8-2.7c0.7-0.2,2.5,1.5,2.6,2.5C100.5,149.3,99.2,150.5,97.9,152.8z"
	/>
<path d="M109.3,148.6c-2.3,1.3-3.6,2.7-4.6,2.5c-1.3-0.5-2.2-1.7-2.5-3c-0.1-0.7,1.8-2.4,2.7-2.3
	C106.1,145.7,107.2,147.1,109.3,148.6z"/>
<path d="M123.8,148.2c-2.1,1.5-3.3,3-4.3,2.9c-1.3-0.4-2.4-1.4-2.8-2.8c-0.2-0.7,1.5-2.6,2.5-2.6
	C120.4,145.6,121.6,146.9,123.8,148.2z"/>
<path d="M126.5,152.8c-1.3-2.3-2.7-3.6-2.5-4.6c0.5-1.3,1.7-2.2,3-2.5c0.7-0.1,2.4,1.8,2.3,2.7C129.3,149.6,128,150.7,126.5,152.8z"
	/>
<path d="M203.4,148.5c-2.2,1.4-3.5,2.8-4.5,2.6c-1.3-0.5-2.3-1.6-2.6-3c-0.1-0.7,1.7-2.4,2.7-2.4
	C200.2,145.7,201.3,147.1,203.4,148.5z"/>
<path d="M213.3,152.8c-1.3-2.3-2.7-3.6-2.5-4.6c0.5-1.3,1.7-2.2,3-2.5c0.7-0.1,2.4,1.8,2.3,2.7S214.8,150.6,213.3,152.8z"/>
<path d="M228.2,152.8c-1.5-2.1-3-3.3-2.9-4.3c0.4-1.3,1.4-2.4,2.8-2.7c0.7-0.2,2.5,1.5,2.6,2.5C230.8,149.3,229.5,150.5,228.2,152.8
	z"/>
<path d="M242.4,152.8c-1.4-2.2-2.8-3.5-2.6-4.5c0.5-1.3,1.6-2.2,3-2.5c0.7-0.1,2.4,1.7,2.4,2.7C245.2,149.5,243.8,150.6,242.4,152.8
	z"/>
<path d="M261.3,148.3c-2.1,1.4-3.4,2.9-4.4,2.8c-1.3-0.4-2.3-1.5-2.7-2.8c-0.1-0.7,1.6-2.5,2.5-2.5
	C257.9,145.6,259.1,146.9,261.3,148.3z"/>
<path d="M264.1,152.8c-1.4-2.2-2.8-3.5-2.6-4.5c0.5-1.3,1.6-2.2,3-2.5c0.7-0.1,2.4,1.7,2.4,2.7C266.9,149.5,265.5,150.6,264.1,152.8
	z"/>
<path d="M271.7,144c1.3,2.3,2.7,3.6,2.5,4.6c-0.5,1.3-1.7,2.2-3,2.5c-0.7,0.1-2.4-1.8-2.3-2.8C268.8,147.2,270.2,146.1,271.7,144z"
	/>
<path d="M283,148.2c-2.1,1.5-3.3,3-4.3,2.9c-1.3-0.4-2.3-1.5-2.7-2.8c-0.1-0.7,1.5-2.5,2.5-2.6C279.6,145.6,280.8,146.9,283,148.2z"
	/>
<path d="M290.3,148.2c-2.1,1.5-3.3,3-4.3,2.9c-1.3-0.4-2.4-1.4-2.7-2.8c-0.2-0.7,1.5-2.6,2.5-2.6
	C286.8,145.6,288.1,146.9,290.3,148.2z"/>
<path d="M44.2,155.7c-2.2,1.4-3.4,2.7-4.5,2.7c-1,0-2.7-1.8-2.6-2.5c0.3-1.3,1.3-2.4,2.7-2.9C40.8,152.8,42,154.3,44.2,155.7z"/>
<path d="M47.2,151.3c1.3,2.2,2.7,3.5,2.5,4.5c-0.5,1.3-1.6,2.2-3,2.5c-0.7,0.1-2.4-1.7-2.4-2.7S45.7,153.4,47.2,151.3z"/>
<path d="M57.2,155.4c2.3-1.3,3.6-2.7,4.6-2.5c1.3,0.6,2.2,1.7,2.5,3.1c0.1,0.7-1.8,2.4-2.8,2.3S59.3,156.9,57.2,155.4z"/>
<path d="M83.4,160c-1.5-2.1-3-3.3-2.9-4.3c0.4-1.3,1.5-2.3,2.8-2.7c0.7-0.2,2.5,1.5,2.6,2.5C86,156.5,84.7,157.7,83.4,160z"/>
<path d="M131,155.6c-2.2,1.4-3.4,2.9-4.4,2.7c-1.3-0.5-2.3-1.5-2.7-2.9c-0.1-0.7,1.6-2.5,2.6-2.5C127.7,152.9,128.8,154.2,131,155.6
	z"/>
<path d="M210.7,155.7c-2.2,1.4-3.5,2.8-4.5,2.6c-1.3-0.5-2.3-1.6-2.5-3c-0.1-0.7,1.7-2.4,2.7-2.4
	C207.4,152.9,208.5,154.3,210.7,155.7z"/>
<path d="M217.9,155.4c-2.1,1.5-3.3,3-4.3,2.9c-1.3-0.4-2.4-1.4-2.8-2.8c-0.1-0.7,1.5-2.6,2.5-2.6
	C214.4,152.9,215.7,154.1,217.9,155.4z"/>
<path d="M225.1,155.8c-2.3,1.3-3.6,2.7-4.6,2.5c-1.3-0.5-2.2-1.7-2.5-3c-0.1-0.7,1.8-2.4,2.7-2.3S223,154.3,225.1,155.8z"/>
<path d="M239.6,155.5c-2.1,1.4-3.4,2.9-4.4,2.8c-1.3-0.4-2.3-1.5-2.7-2.8c-0.1-0.7,1.6-2.5,2.5-2.5S237.4,154.2,239.6,155.5z"/>
<path d="M254.1,155.6c-2.2,1.4-3.4,2.8-4.4,2.7c-1.3-0.5-2.3-1.6-2.6-2.9c-0.1-0.7,1.6-2.4,2.6-2.5S251.9,154.2,254.1,155.6z"/>
<path d="M275.8,155.4c-2.1,1.5-3.3,3-4.3,2.9c-1.3-0.4-2.3-1.4-2.7-2.8c-0.1-0.7,1.5-2.5,2.5-2.6
	C272.4,152.9,273.6,154.1,275.8,155.4z"/>
<path d="M278.8,151.3c1.3,2.2,2.7,3.5,2.5,4.5c-0.5,1.3-1.6,2.2-3,2.5c-0.7,0.1-2.4-1.7-2.4-2.7S277.3,153.4,278.8,151.3z"/>
<path d="M290.3,155.6c-2.2,1.4-3.4,2.9-4.4,2.7c-1.3-0.4-2.3-1.5-2.7-2.9c-0.1-0.7,1.6-2.5,2.5-2.5
	C286.9,152.9,288.1,154.2,290.3,155.6z"/>
<path d="M54.2,158.5c1.4,2.1,2.9,3.4,2.7,4.4c-0.4,1.3-1.5,2.3-2.8,2.7c-0.7,0.1-2.5-1.6-2.5-2.6C51.5,161.9,52.8,160.7,54.2,158.5z
	"/>
<path d="M69,158.5c1.3,2.3,2.7,3.6,2.5,4.6c-0.6,1.3-1.7,2.2-3.1,2.4c-0.7,0.1-2.3-1.8-2.3-2.7S67.5,160.6,69,158.5z"/>
<path d="M80.4,162.9c-2.2,1.4-3.4,2.8-4.4,2.7c-1.3-0.5-2.3-1.6-2.6-2.9c-0.1-0.7,1.7-2.5,2.6-2.5C77.1,160.1,78.2,161.5,80.4,162.9
	z"/>
<path d="M90.3,167.2c-1.3-2.3-2.7-3.6-2.5-4.6c0.5-1.3,1.7-2.2,3-2.5c0.7-0.1,2.4,1.8,2.3,2.7C93.2,164.1,91.8,165.1,90.3,167.2z"/>
<path d="M116.6,162.7c-2.1,1.5-3.3,3-4.3,2.9c-1.3-0.4-2.3-1.4-2.8-2.8c-0.2-0.7,1.5-2.6,2.5-2.6
	C113.1,160.1,114.3,161.4,116.6,162.7z"/>
<path d="M123.8,163.1c-2.3,1.3-3.6,2.7-4.6,2.5c-1.3-0.5-2.2-1.7-2.5-3.1c-0.1-0.7,1.8-2.3,2.8-2.3S121.7,161.6,123.8,163.1z"/>
<path d="M199,167.2c-1.4-2.2-2.8-3.5-2.6-4.5c0.5-1.3,1.6-2.3,3-2.5c0.7-0.1,2.4,1.7,2.4,2.7S200.4,165.1,199,167.2z"/>
<path d="M206.5,167.2c-1.5-2.1-3-3.3-2.9-4.3c0.4-1.3,1.4-2.4,2.8-2.8c0.7-0.1,2.6,1.5,2.6,2.5C209.1,163.8,207.8,165,206.5,167.2z"
	/>
<path d="M235.3,167.2c-1.4-2.1-2.9-3.4-2.8-4.4c0.4-1.3,1.5-2.3,2.8-2.7c0.7-0.1,2.5,1.6,2.5,2.5C238,163.8,236.7,165,235.3,167.2z"
	/>
<path d="M242.5,158.5c1.4,2.2,2.7,3.4,2.7,4.5s-1.8,2.7-2.5,2.6c-1.3-0.3-2.4-1.3-2.9-2.6C239.7,161.9,241.1,160.6,242.5,158.5z"/>
<path d="M254.1,162.9c-2.2,1.4-3.4,2.8-4.4,2.7c-1.3-0.5-2.3-1.6-2.6-2.9c-0.1-0.7,1.6-2.4,2.6-2.5S251.9,161.5,254.1,162.9z"/>
<path d="M264.2,167.2c-1.4-2.2-2.8-3.4-2.7-4.4c0.5-1.3,1.6-2.3,2.9-2.6c0.7-0.1,2.5,1.6,2.5,2.6
	C266.9,163.9,265.6,165.1,264.2,167.2z"/>
<path d="M275.8,162.9c-2.2,1.4-3.4,2.7-4.5,2.7c-1,0-2.7-1.8-2.6-2.5c0.3-1.3,1.3-2.4,2.6-2.9C272.4,160,273.6,161.5,275.8,162.9z"
	/>
<path d="M36.9,170.2c-2.2,1.4-3.5,2.8-4.5,2.6c-1.3-0.5-2.3-1.6-2.5-3c-0.1-0.7,1.7-2.4,2.7-2.4S34.8,168.8,36.9,170.2z"/>
<path d="M44.2,169.9c-2.1,1.5-3.3,3-4.3,2.9c-1.3-0.4-2.4-1.5-2.8-2.8c-0.2-0.7,1.5-2.5,2.5-2.6C40.7,167.3,41.9,168.6,44.2,169.9z"
	/>
<path d="M58.7,170c-2.2,1.4-3.4,2.9-4.4,2.8c-1.3-0.5-2.3-1.5-2.7-2.9c-0.1-0.7,1.6-2.5,2.5-2.5C55.3,167.4,56.5,168.7,58.7,170z"/>
<path d="M65.9,170.3c-2.3,1.3-3.6,2.7-4.6,2.5c-1.3-0.6-2.2-1.7-2.5-3.1c-0.1-0.7,1.8-2.3,2.7-2.3S63.8,168.8,65.9,170.3z"/>
<path d="M97.8,165.7c1.3,2.2,2.7,3.5,2.6,4.5c-0.5,1.3-1.6,2.2-3,2.5c-0.7,0.1-2.4-1.7-2.4-2.7C95,169,96.4,167.9,97.8,165.7z"/>
<path d="M104.8,174.5c-1.3-2.2-2.8-3.5-2.6-4.5c0.5-1.3,1.6-2.3,3-2.6c0.7-0.1,2.4,1.7,2.4,2.7C107.7,171.2,106.3,172.3,104.8,174.5
	z"/>
<path d="M126.7,174.5c-1.4-2.2-2.8-3.4-2.7-4.4c0.5-1.3,1.6-2.3,2.9-2.6c0.7-0.1,2.5,1.6,2.5,2.6S128.1,172.3,126.7,174.5z"/>
<path d="M203.4,170.2c-2.2,1.4-3.5,2.8-4.5,2.6c-1.3-0.5-2.3-1.6-2.6-3c-0.1-0.7,1.7-2.4,2.7-2.4
	C200.2,167.4,201.3,168.8,203.4,170.2z"/>
<path d="M217.9,170.1c-2.2,1.4-3.4,2.7-4.5,2.7c-0.9,0-2.7-1.8-2.6-2.5c0.4-1.3,1.3-2.4,2.6-2.9
	C214.5,167.3,215.7,168.7,217.9,170.1z"/>
<path d="M257,174.5c-1.4-2.2-2.8-3.4-2.7-4.4c0.5-1.3,1.6-2.3,2.9-2.6c0.7-0.1,2.5,1.6,2.5,2.6S258.4,172.3,257,174.5z"/>
<path d="M268.6,170.1c-2.2,1.4-3.4,2.9-4.4,2.7c-1.3-0.5-2.3-1.5-2.7-2.9c-0.1-0.7,1.6-2.5,2.5-2.5
	C265.2,167.4,266.4,168.7,268.6,170.1z"/>
<path d="M290.3,170c-2.1,1.4-3.4,2.9-4.4,2.8c-1.3-0.4-2.3-1.5-2.7-2.8c-0.1-0.7,1.6-2.5,2.5-2.5C286.9,167.4,288.1,168.6,290.3,170
	z"/>
<path d="M32.7,173c1.3,2.2,2.7,3.5,2.5,4.5c-0.5,1.3-1.6,2.2-3,2.5c-0.7,0.1-2.4-1.7-2.4-2.7C29.9,176.2,31.2,175.1,32.7,173z"/>
<path d="M47.1,181.7c-1.4-2.1-2.9-3.4-2.8-4.4c0.4-1.3,1.5-2.3,2.8-2.7c0.7-0.1,2.5,1.6,2.5,2.5C49.8,178.3,48.5,179.5,47.1,181.7z"
	/>
<path d="M61.8,173c1.3,2.3,2.7,3.6,2.5,4.6c-0.5,1.3-1.7,2.2-3,2.4c-0.7,0.1-2.3-1.8-2.3-2.7C58.8,176.1,60.2,175.1,61.8,173z"/>
<path d="M76,173c1.4,2.1,2.9,3.4,2.7,4.4c-0.5,1.3-1.6,2.3-2.9,2.6c-0.7,0.1-2.5-1.6-2.5-2.6C73.3,176.4,74.6,175.2,76,173z"/>
<path d="M90.7,173c1.3,2.3,2.7,3.6,2.5,4.6c-0.5,1.3-1.7,2.2-3,2.5c-0.7,0.1-2.3-1.8-2.3-2.7C87.8,176.2,89.2,175.1,90.7,173z"/>
<path d="M102.1,177.3c-2.2,1.4-3.4,2.9-4.4,2.7c-1.3-0.4-2.3-1.5-2.7-2.9c-0.1-0.7,1.6-2.5,2.6-2.5
	C98.7,174.6,99.9,175.9,102.1,177.3z"/>
<path d="M109.3,177.4c-2.2,1.4-3.4,2.7-4.5,2.6c-1,0-2.7-1.8-2.6-2.5c0.3-1.3,1.3-2.4,2.6-2.9C105.9,174.5,107.2,176,109.3,177.4z"
	/>
<path d="M116.6,177.4c-2.2,1.4-3.4,2.8-4.4,2.7c-1.3-0.5-2.3-1.6-2.6-2.9c-0.1-0.7,1.6-2.4,2.6-2.5S114.4,175.9,116.6,177.4z"/>
<path d="M119.3,173c1.5,2.1,3,3.3,2.8,4.3c-0.4,1.3-1.5,2.3-2.8,2.7c-0.7,0.1-2.5-1.5-2.6-2.5C116.7,176.4,118,175.2,119.3,173z"/>
<path d="M206.3,181.7c-1.4-2.2-2.8-3.4-2.7-4.4c0.5-1.3,1.6-2.3,2.9-2.6c0.7-0.1,2.4,1.6,2.5,2.6S207.7,179.5,206.3,181.7z"/>
<path d="M217.9,177.2c-2.1,1.5-3.3,3-4.3,2.9c-1.3-0.4-2.4-1.4-2.8-2.8c-0.1-0.7,1.5-2.6,2.5-2.6
	C214.4,174.6,215.7,175.9,217.9,177.2z"/>
<path d="M228.1,173c1.3,2.2,2.7,3.5,2.6,4.5c-0.5,1.3-1.6,2.2-3,2.5c-0.7,0.1-2.4-1.7-2.4-2.7C225.3,176.2,226.7,175.1,228.1,173z"
	/>
<path d="M246.9,177.2c-2.1,1.5-3.3,3-4.3,2.9c-1.3-0.4-2.4-1.4-2.7-2.8c-0.2-0.7,1.5-2.6,2.5-2.6
	C243.4,174.6,244.6,175.9,246.9,177.2z"/>
<path d="M254.1,177.2c-2.1,1.5-3.3,3-4.3,2.9c-1.3-0.4-2.4-1.4-2.8-2.8c-0.1-0.7,1.5-2.5,2.5-2.6
	C250.6,174.6,251.8,175.8,254.1,177.2z"/>
<path d="M261.3,177.3c-2.2,1.4-3.4,2.9-4.4,2.7c-1.3-0.4-2.3-1.5-2.7-2.9c-0.1-0.7,1.6-2.5,2.6-2.5
	C258,174.6,259.1,175.9,261.3,177.3z"/>
<path d="M54.3,188.9c-1.4-2.2-2.8-3.4-2.7-4.4c0.5-1.3,1.6-2.3,2.9-2.6c0.7-0.1,2.5,1.6,2.5,2.6C57,185.6,55.7,186.8,54.3,188.9z"/>
<path d="M61.3,188.9c-1.3-2.3-2.7-3.6-2.5-4.6c0.5-1.3,1.7-2.2,3-2.5c0.7-0.1,2.4,1.8,2.3,2.7S62.8,186.8,61.3,188.9z"/>
<path d="M68.7,188.9c-1.4-2.2-2.8-3.5-2.6-4.5c0.5-1.3,1.6-2.3,3-2.6c0.7-0.1,2.4,1.7,2.4,2.7C71.5,185.7,70.1,186.8,68.7,188.9z"/>
<path d="M116.6,184.4c-2.1,1.5-3.3,3-4.3,2.9c-1.3-0.4-2.4-1.4-2.8-2.8c-0.2-0.7,1.5-2.5,2.5-2.6
	C113.1,181.8,114.3,183.1,116.6,184.4z"/>
<path d="M123.8,184.8c-2.3,1.3-3.6,2.7-4.6,2.5c-1.3-0.5-2.2-1.7-2.5-3c-0.1-0.7,1.8-2.4,2.7-2.4
	C120.6,181.9,121.7,183.3,123.8,184.8z"/>
<path d="M203.4,184.6c-2.2,1.4-3.4,2.8-4.4,2.7c-1.3-0.5-2.3-1.6-2.6-2.9c-0.1-0.7,1.6-2.4,2.6-2.5
	C200.1,181.9,201.3,183.2,203.4,184.6z"/>
<path d="M206.3,188.9c-1.4-2.2-2.8-3.4-2.7-4.4c0.5-1.3,1.6-2.3,2.9-2.6c0.7-0.1,2.4,1.6,2.5,2.6C209,185.6,207.7,186.8,206.3,188.9
	z"/>
<path d="M217.9,184.7c-2.2,1.4-3.5,2.8-4.5,2.6c-1.3-0.5-2.3-1.6-2.6-3c-0.1-0.7,1.7-2.4,2.7-2.4
	C214.6,181.9,215.8,183.2,217.9,184.7z"/>
<path d="M235.4,180.2c1.3,2.2,2.7,3.5,2.6,4.5c-0.5,1.3-1.6,2.2-3,2.5c-0.7,0.1-2.4-1.7-2.4-2.7
	C232.6,183.4,233.9,182.3,235.4,180.2z"/>
<path d="M246.9,184.7c-2.2,1.3-3.5,2.7-4.5,2.6c-1.3-0.5-2.2-1.6-2.5-3c-0.1-0.7,1.7-2.4,2.7-2.4
	C243.6,181.9,244.7,183.3,246.9,184.7z"/>
<path d="M257.1,188.9c-1.5-2.1-3-3.3-2.9-4.3c0.4-1.3,1.4-2.4,2.8-2.8c0.7-0.1,2.5,1.5,2.6,2.5C259.7,185.5,258.5,186.7,257.1,188.9
	z"/>
<path d="M268.6,184.5c-2.2,1.4-3.4,2.9-4.4,2.7c-1.3-0.4-2.3-1.5-2.7-2.9c-0.1-0.7,1.6-2.5,2.5-2.5
	C265.2,181.9,266.4,183.2,268.6,184.5z"/>
<path d="M290.3,184.6c-2.2,1.4-3.4,2.8-4.4,2.7c-1.3-0.5-2.3-1.6-2.6-2.9c-0.1-0.7,1.6-2.4,2.6-2.5
	C287,181.9,288.1,183.2,290.3,184.6z"/>
<path d="M297.5,184.5c-2.1,1.4-3.4,2.9-4.4,2.8c-1.3-0.4-2.3-1.5-2.7-2.8c-0.1-0.7,1.6-2.5,2.5-2.5
	C294.1,181.8,295.3,183.1,297.5,184.5z"/>
<path d="M123.8,32.7c-2.2,1.3-3.5,2.7-4.5,2.5c-1.3-0.5-2.2-1.6-2.5-3c-0.1-0.7,1.7-2.4,2.7-2.4S121.7,31.2,123.8,32.7z"/>
<path d="M36.9,191.9c-2.2,1.4-3.5,2.8-4.5,2.6c-1.3-0.5-2.3-1.6-2.5-3c-0.1-0.7,1.7-2.4,2.7-2.4C33.7,189.1,34.8,190.5,36.9,191.9z"
	/>
<path d="M58.7,192c-2.2,1.3-3.5,2.7-4.5,2.6c-1.3-0.5-2.2-1.6-2.5-3c-0.1-0.7,1.7-2.4,2.7-2.4S56.5,190.5,58.7,192z"/>
<path d="M73.1,191.6c-2.1,1.5-3.3,3-4.3,2.9c-1.3-0.4-2.4-1.4-2.8-2.8c-0.2-0.7,1.5-2.5,2.5-2.6C69.7,189,70.9,190.3,73.1,191.6z"/>
<path d="M80.4,192c-2.3,1.3-3.6,2.7-4.6,2.5c-1.3-0.5-2.2-1.7-2.5-3.1c-0.1-0.7,1.8-2.4,2.8-2.3S78.3,190.5,80.4,192z"/>
<path d="M87.6,191.6c-2.1,1.5-3.3,3-4.3,2.9c-1.3-0.4-2.4-1.4-2.8-2.8c-0.2-0.7,1.5-2.5,2.5-2.6C84.2,189,85.4,190.3,87.6,191.6z"/>
<path d="M90.7,187.4c1.3,2.3,2.7,3.6,2.5,4.6c-0.5,1.3-1.7,2.2-3,2.5c-0.7,0.1-2.3-1.8-2.3-2.8S89.2,189.5,90.7,187.4z"/>
<path d="M97.9,196.2c-1.5-2.1-3-3.3-2.8-4.3c0.4-1.3,1.4-2.4,2.8-2.7c0.7-0.2,2.5,1.5,2.6,2.5C100.5,192.7,99.2,193.9,97.9,196.2z"
	/>
<path d="M109.3,191.6c-2.1,1.5-3.3,3-4.3,2.9c-1.3-0.4-2.4-1.4-2.7-2.8c-0.2-0.7,1.5-2.5,2.5-2.6C105.9,189,107.1,190.3,109.3,191.6
	z"/>
<path d="M199.2,196.2c-1.5-2.1-3-3.3-2.9-4.3c0.4-1.3,1.4-2.4,2.8-2.7c0.7-0.2,2.6,1.5,2.6,2.5C201.8,192.7,200.5,194,199.2,196.2z"
	/>
<path d="M206.1,196.2c-1.3-2.3-2.7-3.6-2.5-4.6c0.5-1.3,1.7-2.2,3-2.5c0.7-0.1,2.4,1.8,2.3,2.7S207.6,194.1,206.1,196.2z"/>
<path d="M242.5,196.2c-1.4-2.2-2.8-3.4-2.7-4.4c0.5-1.3,1.6-2.3,2.9-2.6c0.7-0.1,2.4,1.6,2.5,2.6C245.2,192.9,243.9,194,242.5,196.2
	z"/>
<path d="M261.3,191.8c-2.2,1.4-3.4,2.9-4.4,2.7c-1.3-0.5-2.3-1.5-2.7-2.9c-0.1-0.7,1.6-2.5,2.6-2.5
	C258,189.1,259.1,190.4,261.3,191.8z"/>
<path d="M264.4,187.4c1.3,2.3,2.7,3.6,2.5,4.6c-0.5,1.3-1.7,2.2-3,2.5c-0.7,0.1-2.3-1.8-2.3-2.8S262.9,189.5,264.4,187.4z"/>
<path d="M275.8,191.9c-2.2,1.4-3.5,2.8-4.5,2.6c-1.3-0.5-2.3-1.6-2.5-3c-0.1-0.7,1.7-2.4,2.7-2.4
	C272.5,189.1,273.7,190.5,275.8,191.9z"/>
<path d="M283,192c-2.2,1.3-3.5,2.7-4.5,2.6c-1.3-0.5-2.2-1.6-2.5-3c-0.1-0.7,1.7-2.4,2.7-2.4C279.8,189.1,280.9,190.5,283,192z"/>
<path d="M290.3,192c-2.3,1.3-3.6,2.7-4.6,2.5c-1.3-0.5-2.2-1.7-2.5-3.1c-0.1-0.7,1.8-2.4,2.8-2.3C287.1,189.1,288.2,190.5,290.3,192
	z"/>
<path d="M44.2,198.9c-2.1,1.5-3.3,3-4.3,2.8c-1.3-0.4-2.3-1.4-2.7-2.7c-0.2-0.7,1.5-2.5,2.5-2.6C40.7,196.3,41.9,197.6,44.2,198.9z"
	/>
<path d="M47.1,203.4c-1.4-2.1-2.9-3.4-2.8-4.4c0.4-1.3,1.5-2.3,2.8-2.7c0.7-0.1,2.5,1.6,2.5,2.5C49.8,200.1,48.5,201.2,47.1,203.4z"
	/>
<path d="M58.7,199.2c-2.2,1.3-3.5,2.7-4.5,2.6c-1.3-0.5-2.2-1.6-2.5-3c-0.1-0.7,1.7-2.4,2.7-2.4S56.5,197.7,58.7,199.2z"/>
<path d="M73.1,199.1c-2.2,1.4-3.4,2.7-4.5,2.7c-1,0-2.7-1.8-2.6-2.5c0.3-1.3,1.3-2.4,2.6-2.9C69.7,196.2,71,197.7,73.1,199.1z"/>
<path d="M86.1,198.8c2.3-1.3,3.6-2.7,4.6-2.5c1.3,0.5,2.2,1.7,2.5,3c0.1,0.7-1.8,2.4-2.7,2.3C89.3,201.7,88.2,200.3,86.1,198.8z"/>
<path d="M126.8,203.4c-1.5-2.1-3-3.3-2.9-4.3c0.4-1.3,1.4-2.4,2.8-2.7c0.7-0.2,2.6,1.5,2.6,2.5C129.4,200,128.2,201.2,126.8,203.4z"
	/>
<path d="M199.2,203.4c-1.5-2.1-3-3.3-2.9-4.3c0.4-1.3,1.4-2.4,2.8-2.7c0.7-0.2,2.6,1.5,2.6,2.5C201.8,200,200.5,201.2,199.2,203.4z"
	/>
<path d="M206.2,194.7c1.4,2.2,2.9,3.4,2.7,4.4c-0.5,1.3-1.5,2.3-2.9,2.6c-0.7,0.1-2.5-1.6-2.5-2.6
	C203.6,198.1,204.9,196.9,206.2,194.7z"/>
<path d="M225.1,199.2c-2.2,1.3-3.5,2.7-4.5,2.6c-1.3-0.5-2.2-1.6-2.5-3c-0.1-0.7,1.7-2.4,2.7-2.4S223,197.7,225.1,199.2z"/>
<path d="M261.3,199c-2.1,1.4-3.4,2.9-4.4,2.8c-1.3-0.4-2.3-1.5-2.7-2.8c-0.1-0.7,1.6-2.5,2.5-2.5C257.9,196.3,259.1,197.6,261.3,199
	z"/>
<path d="M259.8,198.8c2.3-1.3,3.6-2.7,4.6-2.5c1.3,0.5,2.2,1.7,2.5,3c0.1,0.7-1.8,2.4-2.7,2.3C263,201.7,261.9,200.3,259.8,198.8z"
	/>
<path d="M283,198.9c-2.1,1.5-3.3,3-4.3,2.9c-1.3-0.4-2.3-1.4-2.7-2.7c-0.1-0.7,1.5-2.6,2.5-2.6C279.6,196.3,280.8,197.6,283,198.9z"
	/>
<path d="M44.2,206.1c-2.1,1.5-3.3,3-4.3,2.9c-1.3-0.4-2.3-1.4-2.8-2.8c-0.2-0.7,1.5-2.5,2.5-2.6C40.7,203.5,41.9,204.8,44.2,206.1z"
	/>
<path d="M75.8,210.7c-1.3-2.3-2.7-3.6-2.5-4.6c0.5-1.3,1.7-2.2,3-2.5c0.7-0.1,2.3,1.8,2.3,2.7C78.7,207.5,77.3,208.6,75.8,210.7z"/>
<path d="M94.8,206.1c-2.1,1.5-3.3,3-4.3,2.9c-1.3-0.4-2.3-1.4-2.8-2.8c-0.2-0.7,1.5-2.5,2.5-2.6C91.4,203.5,92.6,204.8,94.8,206.1z"
	/>
<path d="M116.6,206.5c-2.3,1.3-3.6,2.7-4.6,2.5c-1.3-0.5-2.2-1.7-2.5-3c-0.1-0.7,1.8-2.4,2.8-2.3C113.4,203.6,114.5,205,116.6,206.5
	z"/>
<path d="M123.8,206.2c-2.2,1.4-3.4,2.9-4.4,2.8c-1.3-0.4-2.3-1.5-2.7-2.8c-0.1-0.7,1.6-2.5,2.5-2.5
	C120.4,203.5,121.6,204.9,123.8,206.2z"/>
<path d="M133.7,210.7c-1.3-2.3-2.7-3.6-2.5-4.6c0.5-1.3,1.7-2.2,3-2.5c0.7-0.1,2.4,1.8,2.4,2.7C136.6,207.5,135.2,208.6,133.7,210.7
	z"/>
<path d="M141.3,210.7c-1.5-2.1-3-3.3-2.9-4.3c0.4-1.3,1.4-2.3,2.8-2.8c0.7-0.1,2.6,1.5,2.6,2.5C143.9,207.2,142.6,208.4,141.3,210.7
	z"/>
<path d="M163,201.9c1.3,2.2,2.7,3.5,2.6,4.5c-0.5,1.3-1.6,2.2-3,2.5c-0.7,0.1-2.4-1.7-2.4-2.7C160.2,205.2,161.5,204,163,201.9z"/>
<path d="M174.5,206.3c-2.2,1.4-3.4,2.8-4.4,2.7c-1.3-0.5-2.3-1.6-2.6-2.9c-0.1-0.7,1.6-2.4,2.6-2.5S172.3,204.9,174.5,206.3z"/>
<path d="M191.8,201.9c1.4,2.1,2.9,3.4,2.7,4.4c-0.4,1.3-1.5,2.3-2.9,2.7c-0.7,0.1-2.5-1.6-2.5-2.6
	C189.1,205.3,190.4,204.1,191.8,201.9z"/>
<path d="M199.3,201.9c1.3,2.3,2.7,3.6,2.5,4.6c-0.6,1.3-1.7,2.2-3.1,2.5c-0.7,0.1-2.3-1.8-2.3-2.8S197.8,204,199.3,201.9z"/>
<path d="M206.5,210.7c-1.5-2.1-3-3.3-2.9-4.3c0.4-1.3,1.4-2.4,2.8-2.8c0.7-0.1,2.6,1.5,2.6,2.5C209.1,207.2,207.8,208.4,206.5,210.7
	z"/>
<path d="M217.9,206.1c-2.1,1.5-3.3,3-4.3,2.8c-1.3-0.4-2.3-1.5-2.7-2.8c-0.1-0.7,1.5-2.5,2.5-2.6
	C214.4,203.5,215.7,204.8,217.9,206.1z"/>
<path d="M221,201.9c1.3,2.3,2.7,3.6,2.4,4.6c-0.5,1.3-1.7,2.2-3,2.5c-0.7,0.1-2.3-1.8-2.3-2.8S219.5,204,221,201.9z"/>
<path d="M239.6,206.3c-2.2,1.4-3.4,2.8-4.4,2.7c-1.3-0.5-2.3-1.6-2.6-2.9c-0.1-0.7,1.6-2.4,2.6-2.5
	C236.3,203.6,237.4,204.9,239.6,206.3z"/>
<path d="M245.4,206.1c2.3-1.3,3.6-2.7,4.6-2.5c1.3,0.5,2.2,1.7,2.5,3c0.1,0.7-1.8,2.4-2.8,2.3C248.5,209,247.4,207.6,245.4,206.1z"
	/>
<path d="M268.6,206.2c-2.1,1.4-3.4,2.9-4.4,2.8c-1.3-0.4-2.3-1.5-2.7-2.8c-0.1-0.7,1.6-2.5,2.5-2.5
	C265.2,203.5,266.4,204.9,268.6,206.2z"/>
<path d="M271.5,201.9c1.4,2.2,2.7,3.4,2.6,4.5c0,1-1.8,2.7-2.5,2.6c-1.3-0.3-2.4-1.3-2.9-2.6C268.6,205.3,270.1,204.1,271.5,201.9z"
	/>
<path d="M278.9,210.7c-1.5-2.1-3-3.3-2.9-4.3c0.4-1.3,1.5-2.3,2.8-2.8c0.7-0.1,2.5,1.5,2.6,2.5C281.4,207.2,280.2,208.4,278.9,210.7
	z"/>
<path d="M297.5,206.4c-2.2,1.4-3.5,2.8-4.5,2.6c-1.3-0.5-2.3-1.6-2.5-3c-0.1-0.7,1.7-2.4,2.7-2.4C294.3,203.6,295.4,205,297.5,206.4
	z"/>
<path d="M32.5,209.2c1.4,2.1,2.9,3.4,2.8,4.4c-0.5,1.3-1.5,2.3-2.9,2.7c-0.7,0.1-2.5-1.6-2.5-2.6C29.8,212.5,31.1,211.4,32.5,209.2z
	"/>
<path d="M57.2,213.3c2.3-1.3,3.6-2.7,4.6-2.5c1.3,0.5,2.2,1.7,2.5,3.1c0.1,0.7-1.8,2.4-2.8,2.3C60.3,216.2,59.2,214.8,57.2,213.3z"
	/>
<path d="M83,217.9c-1.3-2.3-2.7-3.6-2.5-4.6c0.5-1.3,1.7-2.2,3-2.5c0.7-0.1,2.4,1.8,2.3,2.7S84.5,215.8,83,217.9z"/>
<path d="M90.3,209.2c1.5,2.1,3,3.3,2.8,4.3c-0.4,1.3-1.5,2.3-2.8,2.7c-0.7,0.1-2.5-1.5-2.6-2.5C87.7,212.6,89,211.4,90.3,209.2z"/>
<path d="M116.6,213.4c-2.1,1.5-3.3,3-4.3,2.9c-1.3-0.4-2.4-1.5-2.8-2.8c-0.2-0.7,1.5-2.5,2.5-2.6C113.1,210.8,114.3,212,116.6,213.4
	z"/>
<path d="M126.6,217.9c-1.4-2.2-2.8-3.5-2.6-4.5c0.5-1.3,1.6-2.3,3-2.6c0.7-0.1,2.4,1.7,2.4,2.7C129.4,214.6,128,215.8,126.6,217.9z"
	/>
<path d="M138.3,213.6c-2.2,1.4-3.4,2.8-4.4,2.7c-1.3-0.5-2.3-1.6-2.6-2.9c-0.1-0.7,1.6-2.4,2.6-2.5S136.1,212.1,138.3,213.6z"/>
<path d="M152.8,213.4c-2.1,1.5-3.3,3-4.3,2.9c-1.3-0.4-2.3-1.5-2.7-2.8c-0.2-0.7,1.5-2.5,2.5-2.6C149.3,210.8,150.5,212,152.8,213.4
	z"/>
<path d="M170.2,217.9c-1.4-2.1-2.9-3.4-2.8-4.4c0.4-1.3,1.5-2.3,2.8-2.7c0.7-0.1,2.5,1.6,2.5,2.5
	C172.9,214.5,171.6,215.7,170.2,217.9z"/>
<path d="M181.7,213.4c-2.1,1.5-3.3,3-4.3,2.9c-1.3-0.4-2.3-1.5-2.7-2.8c-0.1-0.7,1.5-2.5,2.5-2.6C178.3,210.8,179.5,212,181.7,213.4
	z"/>
<path d="M188.9,213.4c-2.1,1.4-3.4,2.9-4.4,2.8c-1.3-0.4-2.3-1.5-2.7-2.8c-0.1-0.7,1.6-2.5,2.5-2.5
	C185.6,210.8,186.7,212.1,188.9,213.4z"/>
<path d="M213.3,217.9c-1.3-2.3-2.7-3.6-2.5-4.6c0.5-1.3,1.7-2.2,3-2.5c0.7-0.1,2.4,1.8,2.3,2.7S214.8,215.8,213.3,217.9z"/>
<path d="M246.9,213.4c-2.1,1.4-3.4,2.9-4.4,2.8c-1.3-0.4-2.3-1.5-2.7-2.8c-0.1-0.7,1.6-2.5,2.5-2.5
	C243.5,210.8,244.6,212.1,246.9,213.4z"/>
<path d="M254.1,213.6c-2.2,1.4-3.4,2.8-4.4,2.7c-1.3-0.5-2.3-1.6-2.6-2.9c-0.1-0.7,1.6-2.4,2.6-2.5S251.9,212.1,254.1,213.6z"/>
<path d="M256.8,209.2c1.5,2.1,3,3.3,2.9,4.3c-0.4,1.3-1.5,2.3-2.8,2.7c-0.7,0.1-2.5-1.5-2.6-2.5
	C254.2,212.6,255.5,211.4,256.8,209.2z"/>
<path d="M268.6,213.6c-2.2,1.4-3.4,2.8-4.4,2.7c-1.3-0.5-2.3-1.6-2.6-2.9c-0.1-0.7,1.6-2.4,2.6-2.5
	C265.2,210.8,266.4,212.1,268.6,213.6z"/>
<path d="M61.3,225.1c-1.3-2.3-2.7-3.6-2.5-4.6c0.5-1.3,1.7-2.2,3-2.5c0.7-0.1,2.4,1.8,2.3,2.7S62.8,223,61.3,225.1z"/>
<path d="M73.1,221c-2.3,1.3-3.6,2.7-4.6,2.5c-1.3-0.5-2.2-1.7-2.5-3c-0.1-0.7,1.8-2.4,2.7-2.3C70,218.1,71,219.5,73.1,221z"/>
<path d="M80.4,220.8c-2.2,1.4-3.4,2.8-4.4,2.7c-1.3-0.5-2.3-1.6-2.6-2.9c-0.1-0.7,1.7-2.5,2.6-2.5C77.1,218.1,78.2,219.4,80.4,220.8
	z"/>
<path d="M109.3,220.8c-2.2,1.4-3.4,2.7-4.5,2.7c-1,0-2.7-1.8-2.6-2.5c0.3-1.3,1.3-2.4,2.6-2.9C106,218,107.2,219.4,109.3,220.8z"/>
<path d="M131,220.7c-2.2,1.4-3.4,2.9-4.4,2.7c-1.3-0.5-2.3-1.5-2.6-2.9c-0.1-0.7,1.6-2.5,2.6-2.5C127.7,218,128.9,219.4,131,220.7z"
	/>
<path d="M152.8,220.7c-2.1,1.4-3.4,2.9-4.4,2.7c-1.3-0.4-2.3-1.5-2.7-2.9c-0.1-0.7,1.6-2.5,2.6-2.5
	C149.4,218,150.6,219.3,152.8,220.7z"/>
<path d="M155.5,225.1c-1.4-2.2-2.8-3.5-2.6-4.5c0.5-1.3,1.6-2.3,3-2.6c0.7-0.1,2.4,1.7,2.4,2.7C158.3,221.9,157,223,155.5,225.1z"/>
<path d="M181.7,220.7c-2.1,1.4-3.4,2.9-4.4,2.7c-1.3-0.4-2.3-1.5-2.7-2.9c-0.1-0.7,1.6-2.5,2.6-2.5
	C178.4,218,179.5,219.4,181.7,220.7z"/>
<path d="M184.8,216.4c1.3,2.3,2.7,3.6,2.5,4.6c-0.5,1.3-1.7,2.2-3,2.4c-0.7,0.1-2.4-1.8-2.3-2.7
	C181.9,219.6,183.3,218.5,184.8,216.4z"/>
<path d="M225.1,220.8c-2.2,1.4-3.4,2.8-4.4,2.7c-1.3-0.5-2.3-1.6-2.6-2.9c-0.1-0.7,1.6-2.4,2.6-2.5C221.8,218,223,219.4,225.1,220.8
	z"/>
<path d="M232.4,220.7c-2.1,1.4-3.4,2.9-4.4,2.8c-1.3-0.4-2.3-1.5-2.7-2.8c-0.1-0.7,1.6-2.5,2.5-2.5C229,218,230.2,219.3,232.4,220.7
	z"/>
<path d="M246.9,220.6c-2.1,1.5-3.3,3-4.3,2.9c-1.3-0.4-2.4-1.4-2.7-2.8c-0.2-0.7,1.5-2.6,2.5-2.6C243.4,218,244.6,219.3,246.9,220.6
	z"/>
<path d="M249.9,225.1c-1.5-2.1-3-3.3-2.9-4.3c0.4-1.3,1.4-2.4,2.8-2.8c0.7-0.1,2.6,1.5,2.6,2.5C252.5,221.7,251.2,222.9,249.9,225.1
	z"/>
<path d="M256.9,216.4c1.4,2.1,2.9,3.4,2.8,4.4c-0.5,1.3-1.5,2.3-2.9,2.7c-0.7,0.1-2.5-1.6-2.5-2.6
	C254.2,219.8,255.5,218.6,256.9,216.4z"/>
<path d="M283,220.9c-2.2,1.3-3.5,2.8-4.5,2.6c-1.3-0.5-2.2-1.6-2.5-3c-0.1-0.7,1.7-2.4,2.7-2.4S280.9,219.4,283,220.9z"/>
<path d="M46.9,232.4c-1.3-2.2-2.8-3.5-2.6-4.5c0.5-1.3,1.6-2.3,3-2.6c0.7-0.1,2.4,1.7,2.4,2.7C49.8,229.1,48.4,230.2,46.9,232.4z"/>
<path d="M54.5,232.4c-1.5-2.1-3-3.3-2.8-4.3c0.4-1.3,1.4-2.3,2.8-2.7c0.7-0.1,2.5,1.5,2.6,2.5C57.1,228.9,55.8,230.1,54.5,232.4z"/>
<path d="M65.9,227.8c-2.1,1.5-3.3,3-4.3,2.9c-1.3-0.4-2.4-1.4-2.7-2.8c-0.2-0.7,1.5-2.5,2.5-2.6C62.4,225.2,63.7,226.5,65.9,227.8z"
	/>
<path d="M68.8,232.4c-1.4-2.2-2.8-3.4-2.7-4.4c0.5-1.3,1.6-2.3,2.9-2.6c0.7-0.1,2.4,1.6,2.5,2.6C71.5,229.1,70.2,230.2,68.8,232.4z"
	/>
<path d="M87.6,228.1c-2.2,1.4-3.4,2.7-4.5,2.6c-0.9,0-2.7-1.8-2.6-2.5c0.3-1.3,1.3-2.4,2.7-2.9C84.2,225.2,85.4,226.6,87.6,228.1z"
	/>
<path d="M102.1,227.9c-2.1,1.4-3.4,2.9-4.4,2.8c-1.3-0.4-2.3-1.5-2.7-2.8c-0.1-0.7,1.6-2.5,2.5-2.5
	C98.7,225.3,99.9,226.6,102.1,227.9z"/>
<path d="M116.6,228c-2.2,1.4-3.4,2.9-4.4,2.7c-1.3-0.4-2.3-1.5-2.7-2.9c-0.1-0.7,1.6-2.5,2.6-2.5C113.2,225.3,114.4,226.6,116.6,228
	z"/>
<path d="M131,228c-2.2,1.4-3.4,2.9-4.4,2.7c-1.3-0.5-2.3-1.5-2.7-2.9c-0.1-0.7,1.6-2.5,2.6-2.5C127.7,225.3,128.8,226.6,131,228z"/>
<path d="M134.1,223.6c1.3,2.2,2.7,3.5,2.5,4.5c-0.5,1.3-1.6,2.2-3,2.5c-0.7,0.1-2.4-1.7-2.4-2.7
	C131.2,226.9,132.6,225.8,134.1,223.6z"/>
<path d="M160,227.9c-2.1,1.4-3.4,2.9-4.4,2.8c-1.3-0.4-2.3-1.5-2.7-2.8c-0.1-0.7,1.6-2.5,2.5-2.5C156.6,225.3,157.8,226.6,160,227.9
	z"/>
<path d="M162.7,232.4c-1.3-2.3-2.7-3.6-2.5-4.6c0.5-1.3,1.7-2.2,3-2.5c0.7-0.1,2.4,1.8,2.3,2.7S164.2,230.3,162.7,232.4z"/>
<path d="M188.9,228c-2.2,1.4-3.4,2.8-4.4,2.7c-1.3-0.5-2.3-1.6-2.6-2.9c-0.1-0.7,1.6-2.4,2.6-2.5C185.6,225.3,186.8,226.6,188.9,228
	z"/>
<path d="M210.7,227.8c-2.1,1.5-3.3,3-4.3,2.9c-1.3-0.4-2.4-1.4-2.8-2.8c-0.1-0.7,1.5-2.6,2.5-2.6
	C207.2,225.3,208.4,226.5,210.7,227.8z"/>
<path d="M213.8,223.6c1.3,2.3,2.7,3.6,2.5,4.6c-0.5,1.3-1.7,2.2-3.1,2.5c-0.7,0.1-2.4-1.8-2.3-2.7
	C210.9,226.8,212.3,225.7,213.8,223.6z"/>
<path d="M232.4,227.9c-2.1,1.4-3.4,2.9-4.4,2.8c-1.3-0.4-2.3-1.5-2.7-2.8c-0.1-0.7,1.6-2.5,2.5-2.5
	C229,225.3,230.2,226.6,232.4,227.9z"/>
<path d="M239.6,228.1c-2.2,1.4-3.5,2.8-4.5,2.6c-1.3-0.5-2.2-1.6-2.5-3c-0.1-0.7,1.7-2.4,2.7-2.4
	C236.4,225.3,237.5,226.7,239.6,228.1z"/>
<path d="M275.8,228.1c-2.2,1.4-3.4,2.7-4.5,2.6c-1,0-2.7-1.8-2.6-2.5c0.3-1.3,1.3-2.4,2.6-2.9C272.4,225.2,273.7,226.6,275.8,228.1z
	"/>
<path d="M283,227.8c-2.1,1.5-3.3,3-4.3,2.9c-1.3-0.4-2.3-1.4-2.7-2.8c-0.1-0.7,1.5-2.6,2.5-2.6C279.6,225.3,280.8,226.5,283,227.8z"
	/>
<path d="M293.2,232.4c-1.5-2.1-2.9-3.4-2.8-4.4c0.4-1.3,1.5-2.3,2.8-2.7c0.7-0.1,2.5,1.6,2.5,2.5C295.9,229,294.6,230.2,293.2,232.4
	z"/>
<path d="M32.5,230.9c1.4,2.2,2.9,3.4,2.8,4.4c-0.5,1.3-1.5,2.3-2.9,2.7c-0.7,0.1-2.5-1.6-2.5-2.6C29.8,234.3,31.1,233.1,32.5,230.9z
	"/>
<path d="M39.8,239.6c-1.4-2.2-2.8-3.4-2.7-4.4c0.5-1.3,1.6-2.3,2.9-2.6c0.7-0.1,2.5,1.7,2.5,2.6C42.5,236.3,41.2,237.5,39.8,239.6z"
	/>
<path d="M80.4,235.3c-2.2,1.4-3.4,2.7-4.5,2.6c-1,0-2.7-1.8-2.6-2.5c0.4-1.3,1.4-2.4,2.7-2.9C77,232.4,78.2,233.9,80.4,235.3z"/>
<path d="M83.2,239.6c-1.4-2.2-2.8-3.4-2.7-4.4c0.5-1.3,1.6-2.3,2.9-2.6c0.7-0.1,2.5,1.7,2.5,2.6C86,236.3,84.6,237.5,83.2,239.6z"/>
<path d="M90.3,239.6c-1.3-2.3-2.7-3.6-2.5-4.6c0.5-1.3,1.7-2.2,3-2.5c0.7-0.1,2.4,1.8,2.3,2.7S91.8,237.5,90.3,239.6z"/>
<path d="M104.9,239.6c-1.4-2.2-2.8-3.4-2.7-4.4c0.5-1.3,1.6-2.3,2.9-2.6c0.7-0.1,2.4,1.6,2.5,2.6S106.3,237.4,104.9,239.6z"/>
<path d="M131,235.4c-2.2,1.3-3.5,2.7-4.5,2.6c-1.3-0.5-2.2-1.6-2.5-3c-0.1-0.7,1.7-2.4,2.7-2.4C127.8,232.6,128.9,233.9,131,235.4z"
	/>
<path d="M145.5,235.3c-2.2,1.4-3.4,2.8-4.4,2.7c-1.3-0.5-2.3-1.6-2.6-2.9c-0.1-0.7,1.6-2.4,2.6-2.5
	C142.2,232.5,143.3,233.9,145.5,235.3z"/>
<path d="M152.8,235.1c-2.1,1.5-3.3,3-4.3,2.9c-1.3-0.4-2.4-1.4-2.7-2.8c-0.2-0.7,1.5-2.5,2.5-2.6
	C149.3,232.5,150.5,233.8,152.8,235.1z"/>
<path d="M162.8,230.9c1.4,2.2,2.9,3.4,2.7,4.4c-0.5,1.3-1.5,2.3-2.9,2.7c-0.7,0.1-2.5-1.6-2.5-2.6
	C160.1,234.2,161.4,233.1,162.8,230.9z"/>
<path d="M174.5,235.2c-2.1,1.4-3.4,2.9-4.4,2.8c-1.3-0.4-2.3-1.5-2.7-2.8c-0.1-0.7,1.6-2.5,2.5-2.5
	C171.1,232.5,172.3,233.8,174.5,235.2z"/>
<path d="M181.7,235.2c-2.1,1.4-3.4,2.9-4.4,2.7c-1.3-0.5-2.3-1.5-2.7-2.9c-0.1-0.7,1.6-2.5,2.6-2.5
	C178.3,232.5,179.5,233.8,181.7,235.2z"/>
<path d="M184.7,230.9c1.3,2.2,2.7,3.5,2.6,4.5c-0.5,1.3-1.6,2.2-3,2.5c-0.7,0.1-2.4-1.7-2.4-2.7C181.9,234.1,183.2,233,184.7,230.9z
	"/>
<path d="M203.4,235.3c-2.2,1.4-3.4,2.8-4.4,2.7c-1.3-0.5-2.3-1.6-2.6-2.9c-0.1-0.7,1.6-2.4,2.6-2.5
	C200.1,232.5,201.3,233.9,203.4,235.3z"/>
<path d="M206.2,230.9c1.4,2.2,2.9,3.4,2.8,4.4c-0.5,1.3-1.5,2.3-2.9,2.7c-0.7,0.1-2.5-1.6-2.5-2.6
	C203.6,234.3,204.9,233.1,206.2,230.9z"/>
<path d="M217.9,235.4c-2.2,1.3-3.5,2.7-4.5,2.6c-1.3-0.5-2.2-1.6-2.5-3c-0.1-0.7,1.7-2.4,2.7-2.4
	C214.6,232.6,215.8,233.9,217.9,235.4z"/>
<path d="M220.6,239.6c-1.3-2.3-2.7-3.6-2.5-4.6c0.5-1.3,1.7-2.2,3-2.5c0.7-0.1,2.4,1.8,2.4,2.7S222.1,237.5,220.6,239.6z"/>
<path d="M239.6,235.2c-2.1,1.4-3.4,2.9-4.4,2.8c-1.3-0.4-2.3-1.5-2.7-2.8c-0.1-0.7,1.6-2.5,2.5-2.5S237.4,233.8,239.6,235.2z"/>
<path d="M246.9,235.4c-2.2,1.4-3.5,2.8-4.5,2.6c-1.3-0.5-2.3-1.6-2.6-3c-0.1-0.7,1.7-2.4,2.7-2.4
	C243.6,232.6,244.7,233.9,246.9,235.4z"/>
<path d="M254.1,235.4c-2.2,1.4-3.5,2.8-4.5,2.6c-1.3-0.5-2.3-1.6-2.5-3c-0.1-0.7,1.7-2.4,2.7-2.4S252,233.9,254.1,235.4z"/>
<path d="M257,230.9c1.4,2.2,2.7,3.4,2.7,4.5c0,0.9-1.8,2.7-2.5,2.6c-1.3-0.3-2.4-1.3-2.9-2.6C254.1,234.3,255.6,233,257,230.9z"/>
<path d="M264.4,239.6c-1.5-2.1-3-3.3-2.9-4.3c0.4-1.3,1.4-2.3,2.8-2.7c0.7-0.2,2.5,1.5,2.6,2.5C267,236.2,265.7,237.4,264.4,239.6z"
	/>
<path d="M275.8,235.3c-2.2,1.4-3.4,2.8-4.4,2.7c-1.3-0.5-2.3-1.6-2.6-2.9c-0.1-0.7,1.6-2.4,2.6-2.5
	C272.5,232.5,273.6,233.9,275.8,235.3z"/>
<path d="M90.4,238.1c1.4,2.2,2.9,3.4,2.7,4.4c-0.4,1.3-1.5,2.3-2.8,2.7c-0.7,0.1-2.5-1.6-2.5-2.6C87.7,241.5,89,240.3,90.4,238.1z"
	/>
<path d="M102.1,242.4c-2.1,1.4-3.4,2.9-4.4,2.8c-1.3-0.4-2.3-1.5-2.7-2.8c-0.1-0.7,1.6-2.5,2.5-2.5C98.7,239.7,99.9,241,102.1,242.4
	z"/>
<path d="M109.3,242.4c-2.2,1.4-3.4,2.9-4.4,2.8c-1.3-0.4-2.3-1.5-2.7-2.8c-0.1-0.7,1.6-2.5,2.5-2.5
	C105.9,239.7,107.1,241,109.3,242.4z"/>
<path d="M123.8,242.3c-2.1,1.5-3.3,3-4.3,2.9c-1.3-0.4-2.4-1.4-2.8-2.8c-0.2-0.7,1.5-2.5,2.5-2.6C120.3,239.7,121.6,241,123.8,242.3
	z"/>
<path d="M126.5,246.9c-1.3-2.3-2.7-3.6-2.5-4.6c0.5-1.3,1.7-2.2,3-2.5c0.7-0.1,2.4,1.8,2.3,2.7C129.4,243.7,128,244.8,126.5,246.9z"
	/>
<path d="M138.3,242.6c-2.2,1.3-3.5,2.7-4.5,2.6c-1.3-0.5-2.2-1.6-2.5-3c-0.1-0.7,1.7-2.4,2.7-2.4C135,239.8,136.1,241.1,138.3,242.6
	z"/>
<path d="M160,242.5c-2.2,1.4-3.4,2.8-4.4,2.7c-1.3-0.5-2.3-1.6-2.6-2.9c-0.1-0.7,1.6-2.4,2.6-2.5S157.8,241.1,160,242.5z"/>
<path d="M199.1,246.9c-1.4-2.1-2.9-3.4-2.8-4.4c0.4-1.3,1.5-2.3,2.8-2.7c0.7-0.1,2.5,1.6,2.5,2.5
	C201.8,243.5,200.5,244.6,199.1,246.9z"/>
<path d="M220.7,246.9c-1.4-2.2-2.8-3.5-2.6-4.5c0.5-1.3,1.6-2.2,3-2.5c0.7-0.1,2.4,1.7,2.4,2.7C223.5,243.6,222.1,244.7,220.7,246.9
	z"/>
<path d="M239.6,242.6c-2.2,1.3-3.5,2.7-4.5,2.6c-1.3-0.5-2.2-1.6-2.5-3c-0.1-0.7,1.7-2.4,2.7-2.4
	C236.4,239.8,237.5,241.1,239.6,242.6z"/>
<path d="M268.6,242.3c-2.1,1.5-3.3,3-4.3,2.9c-1.3-0.4-2.4-1.4-2.8-2.8c-0.1-0.7,1.5-2.6,2.5-2.6C265.1,239.7,266.3,241,268.6,242.3
	z"/>
<path d="M297.5,242.3c-2.1,1.5-3.3,3-4.3,2.9c-1.3-0.4-2.4-1.4-2.8-2.8c-0.1-0.7,1.5-2.6,2.5-2.6C294.1,239.7,295.3,241,297.5,242.3
	z"/>
<path d="M112.4,36.9c-1.5-2.1-3-3.3-2.9-4.3c0.4-1.3,1.4-2.4,2.8-2.8c0.7-0.1,2.5,1.5,2.6,2.5C115,33.5,113.7,34.7,112.4,36.9z"/>
<path d="M90.3,254.1c-1.3-2.3-2.7-3.6-2.5-4.6c0.5-1.3,1.7-2.2,3-2.5c0.7-0.1,2.4,1.8,2.3,2.7S91.8,252,90.3,254.1z"/>
<path d="M112,245.4c1.5,2.1,3,3.3,2.8,4.3c-0.4,1.3-1.5,2.3-2.8,2.7c-0.7,0.1-2.5-1.5-2.6-2.5C109.4,248.8,110.7,247.6,112,245.4z"
	/>
<path d="M123.8,250c-2.3,1.3-3.6,2.7-4.6,2.5c-1.3-0.5-2.2-1.7-2.5-3c-0.1-0.7,1.8-2.4,2.8-2.3C120.6,247.1,121.7,248.4,123.8,250z"
	/>
<path d="M133.9,245.4c1.4,2.2,2.9,3.4,2.7,4.4c-0.4,1.3-1.5,2.3-2.9,2.7c-0.7,0.1-2.5-1.6-2.5-2.6
	C131.2,248.7,132.5,247.5,133.9,245.4z"/>
<path d="M145.5,249.7c-2.1,1.4-3.4,2.9-4.4,2.8c-1.3-0.5-2.3-1.5-2.7-2.9c-0.1-0.7,1.6-2.5,2.6-2.5
	C142.2,247,143.3,248.3,145.5,249.7z"/>
<path d="M162.9,254.1c-1.4-2.2-2.8-3.4-2.7-4.4c0.5-1.3,1.6-2.3,2.9-2.6c0.7-0.1,2.4,1.6,2.5,2.6
	C165.6,250.8,164.3,251.9,162.9,254.1z"/>
<path d="M174.5,249.8c-2.2,1.4-3.5,2.8-4.5,2.6c-1.3-0.5-2.3-1.6-2.6-3c-0.1-0.7,1.7-2.4,2.7-2.4C171.2,247,172.4,248.4,174.5,249.8
	z"/>
<path d="M181.7,249.9c-2.2,1.3-3.5,2.7-4.5,2.6c-1.3-0.5-2.2-1.6-2.5-3c-0.1-0.7,1.7-2.4,2.7-2.4C178.5,247,179.6,248.4,181.7,249.9
	z"/>
<path d="M188.9,249.7c-2.2,1.4-3.4,2.8-4.4,2.7c-1.3-0.5-2.3-1.6-2.6-2.9c-0.1-0.7,1.6-2.4,2.6-2.5
	C185.6,247,186.8,248.3,188.9,249.7z"/>
<path d="M191.9,254.1c-1.4-2.1-2.9-3.4-2.8-4.4c0.4-1.3,1.5-2.3,2.9-2.7c0.7-0.1,2.5,1.6,2.5,2.5
	C194.6,250.7,193.3,251.9,191.9,254.1z"/>
<path d="M217.9,249.8c-2.2,1.4-3.5,2.8-4.5,2.6c-1.3-0.5-2.3-1.6-2.6-3c-0.1-0.7,1.7-2.4,2.7-2.4C214.6,247,215.8,248.4,217.9,249.8
	z"/>
<path d="M220.9,254.1c-1.4-2.1-2.9-3.4-2.8-4.4c0.4-1.3,1.5-2.3,2.8-2.7c0.7-0.1,2.5,1.6,2.5,2.5
	C223.5,250.7,222.2,251.9,220.9,254.1z"/>
<path d="M235.2,245.4c1.4,2.1,2.9,3.4,2.7,4.4c-0.4,1.3-1.5,2.3-2.9,2.7c-0.7,0.1-2.5-1.6-2.5-2.6
	C232.5,248.7,233.8,247.6,235.2,245.4z"/>
<path d="M254.1,249.6c-2.1,1.5-3.3,3-4.3,2.9c-1.3-0.4-2.4-1.4-2.8-2.8c-0.1-0.7,1.5-2.6,2.5-2.6C250.6,247,251.9,248.2,254.1,249.6
	z"/>
<path d="M268.6,249.6c-2.1,1.5-3.3,3-4.3,2.9c-1.3-0.4-2.3-1.5-2.8-2.8c-0.1-0.7,1.5-2.6,2.5-2.6C265.1,247,266.3,248.2,268.6,249.6
	z"/>
<path d="M293,254.1c-1.3-2.3-2.7-3.6-2.5-4.6c0.5-1.3,1.7-2.2,3-2.5c0.7-0.1,2.4,1.8,2.3,2.7S294.5,252,293,254.1z"/>
<path d="M109.3,32.5c-2.2,1.4-3.4,2.9-4.4,2.7c-1.3-0.5-2.3-1.5-2.7-2.9c-0.1-0.7,1.6-2.5,2.6-2.5C106,29.8,107.1,31.1,109.3,32.5z"
	/>
<path d="M109.3,256.8c-2.1,1.5-3.3,3-4.3,2.9c-1.3-0.4-2.3-1.5-2.7-2.8c-0.2-0.7,1.5-2.5,2.5-2.6
	C105.9,254.2,107.1,255.5,109.3,256.8z"/>
<path d="M112.3,261.3c-1.4-2.1-2.9-3.4-2.8-4.4c0.4-1.3,1.5-2.3,2.8-2.7c0.7-0.1,2.5,1.6,2.5,2.5C115,257.9,113.6,259.1,112.3,261.3
	z"/>
<path d="M123.8,257c-2.2,1.4-3.4,2.8-4.4,2.7c-1.3-0.5-2.3-1.6-2.6-2.9c-0.1-0.7,1.7-2.4,2.6-2.5C120.5,254.2,121.6,255.6,123.8,257
	z"/>
<path d="M133.7,261.3c-1.3-2.3-2.7-3.6-2.5-4.6c0.5-1.3,1.7-2.2,3-2.5c0.7-0.1,2.4,1.8,2.4,2.7C136.6,258.1,135.2,259.2,133.7,261.3
	z"/>
<path d="M136.8,256.7c2.3-1.3,3.6-2.7,4.6-2.5c1.3,0.5,2.2,1.7,2.5,3c0.1,0.7-1.8,2.4-2.7,2.3C140,259.6,138.9,258.2,136.8,256.7z"
	/>
<path d="M152.8,257.1c-2.2,1.3-3.5,2.7-4.5,2.5c-1.3-0.5-2.2-1.6-2.5-3c-0.1-0.7,1.7-2.4,2.7-2.4S150.6,255.6,152.8,257.1z"/>
<path d="M181.7,257c-2.2,1.4-3.4,2.7-4.5,2.7c-1,0-2.7-1.8-2.6-2.5c0.3-1.3,1.3-2.4,2.6-2.9C178.3,254.1,179.6,255.6,181.7,257z"/>
<path d="M184.6,261.3c-1.4-2.2-2.8-3.4-2.7-4.4c0.5-1.3,1.6-2.3,2.9-2.6c0.7-0.1,2.5,1.7,2.5,2.6C187.3,258,186,259.2,184.6,261.3z"
	/>
<path d="M203.4,257.2c-2.3,1.3-3.6,2.7-4.6,2.5c-1.3-0.6-2.2-1.7-2.5-3.1c-0.1-0.7,1.8-2.4,2.8-2.3
	C200.3,254.3,201.3,255.7,203.4,257.2z"/>
<path d="M210.7,256.8c-2.1,1.5-3.3,3-4.3,2.9c-1.3-0.4-2.4-1.5-2.8-2.8c-0.1-0.7,1.5-2.5,2.5-2.6
	C207.2,254.2,208.4,255.5,210.7,256.8z"/>
<path d="M213.7,252.6c1.4,2.2,2.8,3.5,2.6,4.5c-0.5,1.3-1.6,2.2-3,2.5c-0.7,0.1-2.4-1.7-2.4-2.7S212.2,254.7,213.7,252.6z"/>
<path d="M232.4,256.8c-2.1,1.5-3.3,3-4.3,2.9c-1.3-0.4-2.3-1.5-2.7-2.8c-0.1-0.7,1.5-2.5,2.5-2.6
	C228.9,254.2,230.1,255.5,232.4,256.8z"/>
<path d="M235.4,261.3c-1.5-2.1-3-3.3-2.9-4.3c0.4-1.3,1.5-2.3,2.8-2.8c0.7-0.1,2.6,1.5,2.6,2.5C238,257.9,236.7,259.1,235.4,261.3z"
	/>
<path d="M264.1,261.3c-1.4-2.2-2.8-3.5-2.6-4.5c0.5-1.3,1.6-2.3,3-2.6c0.7-0.1,2.4,1.7,2.4,2.7C266.9,258.1,265.5,259.2,264.1,261.3
	z"/>
<path d="M271.3,252.6c1.5,2.1,3,3.3,2.8,4.3c-0.4,1.3-1.5,2.3-2.8,2.7c-0.7,0.1-2.5-1.5-2.6-2.5C268.7,256,270,254.8,271.3,252.6z"
	/>
<path d="M283,256.8c-2.1,1.5-3.3,3-4.3,2.9c-1.3-0.4-2.3-1.5-2.7-2.8c-0.2-0.7,1.5-2.6,2.5-2.6C279.6,254.2,280.8,255.5,283,256.8z"
	/>
<path d="M290.3,257.1c-2.2,1.3-3.5,2.7-4.5,2.5c-1.3-0.5-2.2-1.6-2.5-3c-0.1-0.7,1.7-2.4,2.7-2.4S288.1,255.6,290.3,257.1z"/>
<path d="M297.5,256.8c-2.1,1.5-3.3,3-4.3,2.9c-1.3-0.4-2.3-1.5-2.8-2.8c-0.1-0.7,1.5-2.6,2.5-2.6
	C294.1,254.2,295.3,255.5,297.5,256.8z"/>
<path d="M94.8,32.4c-2.1,1.5-3.3,3-4.3,2.9c-1.3-0.4-2.3-1.5-2.7-2.8c-0.2-0.7,1.5-2.5,2.5-2.6C91.4,29.8,92.6,31.1,94.8,32.4z"/>
<path d="M90.4,259.8c1.4,2.1,2.9,3.4,2.7,4.4c-0.4,1.3-1.5,2.3-2.8,2.7c-0.7,0.1-2.5-1.6-2.5-2.5C87.8,263.2,89.1,262,90.4,259.8z"
	/>
<path d="M123.8,264.3c-2.2,1.4-3.5,2.8-4.5,2.6c-1.3-0.5-2.3-1.6-2.5-3c-0.1-0.7,1.7-2.4,2.7-2.4
	C120.6,261.5,121.7,262.9,123.8,264.3z"/>
<path d="M126.9,259.8c1.3,2.3,2.7,3.6,2.5,4.6c-0.6,1.3-1.7,2.2-3.1,2.5c-0.7,0.1-2.3-1.8-2.3-2.7C124,263,125.4,261.9,126.9,259.8z
	"/>
<path d="M138.3,264.3c-2.2,1.4-3.5,2.8-4.5,2.6c-1.3-0.5-2.3-1.6-2.6-3c-0.1-0.7,1.7-2.4,2.7-2.4C135,261.5,136.2,262.9,138.3,264.3
	z"/>
<path d="M152.8,264.1c-2.1,1.4-3.4,2.9-4.4,2.8c-1.3-0.4-2.3-1.5-2.7-2.8c-0.1-0.7,1.6-2.5,2.5-2.5
	C149.4,261.5,150.5,262.8,152.8,264.1z"/>
<path d="M169.9,268.6c-1.3-2.3-2.7-3.6-2.5-4.6c0.5-1.3,1.7-2.2,3-2.5c0.7-0.1,2.4,1.8,2.3,2.7S171.4,266.5,169.9,268.6z"/>
<path d="M177.2,259.8c1.5,2.1,3,3.3,2.8,4.3c-0.4,1.3-1.5,2.3-2.8,2.7c-0.7,0.1-2.5-1.5-2.6-2.5
	C174.6,263.3,175.9,262.1,177.2,259.8z"/>
<path d="M199.3,259.8c1.3,2.3,2.7,3.6,2.5,4.6c-0.5,1.3-1.7,2.2-3.1,2.5c-0.7,0.1-2.4-1.8-2.3-2.7
	C196.4,263,197.8,261.9,199.3,259.8z"/>
<path d="M213.3,268.6c-1.3-2.3-2.7-3.6-2.5-4.6c0.5-1.3,1.7-2.2,3-2.5c0.7-0.1,2.4,1.8,2.3,2.7S214.8,266.5,213.3,268.6z"/>
<path d="M235.2,268.6c-1.4-2.2-2.8-3.4-2.7-4.4c0.5-1.3,1.6-2.3,2.9-2.6c0.7-0.1,2.4,1.6,2.5,2.6C238,265.2,236.6,266.4,235.2,268.6
	z"/>
<path d="M246.9,264c-2.1,1.5-3.3,3-4.3,2.9c-1.3-0.4-2.3-1.4-2.7-2.8c-0.2-0.7,1.5-2.6,2.5-2.6C243.4,261.4,244.6,262.7,246.9,264z"
	/>
<path d="M249.5,268.6c-1.3-2.3-2.7-3.6-2.5-4.6c0.5-1.3,1.7-2.2,3-2.5c0.7-0.1,2.4,1.8,2.3,2.7S251,266.5,249.5,268.6z"/>
<path d="M257,268.6c-1.4-2.2-2.8-3.4-2.7-4.4c0.5-1.3,1.6-2.3,2.9-2.6c0.7-0.1,2.4,1.6,2.5,2.6C259.7,265.2,258.4,266.4,257,268.6z"
	/>
<path d="M268.6,264.4c-2.3,1.3-3.6,2.7-4.6,2.5c-1.3-0.6-2.2-1.7-2.5-3.1c-0.1-0.7,1.8-2.3,2.8-2.3S266.5,262.9,268.6,264.4z"/>
<path d="M275.8,264c-2.1,1.5-3.3,3-4.3,2.9c-1.3-0.4-2.3-1.4-2.8-2.8c-0.1-0.7,1.5-2.5,2.5-2.6C272.4,261.4,273.6,262.7,275.8,264z"
	/>
<path d="M283,264.3c-2.2,1.4-3.5,2.8-4.5,2.6c-1.3-0.5-2.2-1.6-2.5-3c-0.1-0.7,1.7-2.4,2.7-2.4S280.9,262.9,283,264.3z"/>
<path d="M285.9,268.6c-1.4-2.2-2.8-3.4-2.7-4.4c0.5-1.3,1.6-2.3,2.9-2.6c0.7-0.1,2.4,1.6,2.5,2.6
	C288.6,265.2,287.3,266.4,285.9,268.6z"/>
<path d="M102.1,271.5c-2.2,1.4-3.5,2.8-4.5,2.6c-1.3-0.5-2.3-1.6-2.6-3c-0.1-0.7,1.7-2.4,2.7-2.4C98.8,268.8,100,270.1,102.1,271.5z
	"/>
<path d="M109.3,271.3c-2.1,1.5-3.3,3-4.3,2.9c-1.3-0.4-2.4-1.4-2.7-2.8c-0.2-0.7,1.5-2.5,2.5-2.6C105.9,268.7,107.1,270,109.3,271.3
	z"/>
<path d="M126.7,275.8c-1.4-2.2-2.8-3.4-2.7-4.4c0.5-1.3,1.6-2.3,2.9-2.6c0.7-0.1,2.5,1.6,2.5,2.6
	C129.4,272.5,128.1,273.6,126.7,275.8z"/>
<path d="M138.3,271.3c-2.1,1.5-3.3,3-4.3,2.9c-1.3-0.4-2.4-1.4-2.8-2.8c-0.1-0.7,1.5-2.5,2.5-2.6C134.8,268.7,136.1,270,138.3,271.3
	z"/>
<path d="M155.7,267.1c1.4,2.2,2.7,3.4,2.7,4.5c0,1-1.8,2.7-2.5,2.6c-1.3-0.3-2.4-1.3-2.9-2.6C152.8,270.5,154.2,269.2,155.7,267.1z"
	/>
<path d="M167.2,271.5c-2.2,1.4-3.4,2.7-4.5,2.6c-0.9,0-2.7-1.8-2.6-2.5c0.4-1.3,1.3-2.4,2.6-2.9
	C163.9,268.6,165.1,270.1,167.2,271.5z"/>
<path d="M174.5,271.5c-2.2,1.4-3.5,2.8-4.5,2.6c-1.3-0.5-2.3-1.6-2.6-3c-0.1-0.7,1.7-2.4,2.7-2.4
	C171.2,268.7,172.3,270.1,174.5,271.5z"/>
<path d="M184.7,275.8c-1.4-2.1-2.9-3.4-2.8-4.4c0.4-1.3,1.5-2.3,2.8-2.7c0.7-0.1,2.5,1.6,2.5,2.5C187.3,272.4,186,273.6,184.7,275.8
	z"/>
<path d="M196.2,271.3c-2.1,1.5-3.3,3-4.3,2.8c-1.3-0.4-2.3-1.5-2.7-2.8c-0.1-0.7,1.5-2.5,2.5-2.6C192.7,268.7,193.9,270,196.2,271.3
	z"/>
<path d="M210.7,271.5c-2.2,1.4-3.4,2.7-4.5,2.6c-1,0-2.7-1.8-2.6-2.5c0.3-1.3,1.3-2.4,2.6-2.9C207.3,268.6,208.5,270.1,210.7,271.5z
	"/>
<path d="M217.9,271.5c-2.2,1.4-3.4,2.8-4.4,2.7c-1.3-0.5-2.3-1.6-2.6-2.9c-0.1-0.7,1.6-2.4,2.6-2.5S215.7,270,217.9,271.5z"/>
<path d="M220.7,267.1c1.4,2.2,2.9,3.4,2.7,4.4c-0.4,1.3-1.5,2.3-2.9,2.7c-0.7,0.1-2.5-1.6-2.5-2.5
	C218,270.5,219.3,269.3,220.7,267.1z"/>
<path d="M249.7,267.1c1.4,2.2,2.9,3.4,2.7,4.4c-0.5,1.3-1.5,2.3-2.9,2.7c-0.7,0.1-2.5-1.6-2.5-2.5
	C247,270.4,248.3,269.3,249.7,267.1z"/>
<path d="M261.3,271.3c-2.1,1.5-3.3,3-4.3,2.8c-1.3-0.4-2.3-1.5-2.7-2.8c-0.1-0.7,1.5-2.5,2.5-2.6C257.9,268.7,259.1,270,261.3,271.3
	z"/>
<path d="M271.6,275.8c-1.5-2.1-3-3.3-2.9-4.3c0.4-1.3,1.4-2.4,2.8-2.8c0.7-0.1,2.5,1.5,2.6,2.5C274.2,272.4,272.9,273.6,271.6,275.8
	z"/>
<path d="M283,271.6c-2.2,1.3-3.5,2.7-4.5,2.5c-1.3-0.5-2.2-1.6-2.5-3c-0.1-0.7,1.7-2.4,2.7-2.4C279.8,268.7,280.9,270.1,283,271.6z"
	/>
<path d="M297.5,271.7c-2.3,1.3-3.6,2.7-4.6,2.5c-1.3-0.5-2.2-1.7-2.5-3c-0.1-0.7,1.8-2.3,2.8-2.3S295.4,270.1,297.5,271.7z"/>
<path d="M97.9,274.3c1.3,2.3,2.7,3.6,2.5,4.6c-0.5,1.3-1.7,2.2-3.1,2.5c-0.7,0.1-2.3-1.8-2.3-2.7C95.1,277.5,96.4,276.4,97.9,274.3z
	"/>
<path d="M105.1,274.3c1.3,2.2,2.7,3.5,2.6,4.5c-0.5,1.3-1.6,2.2-3,2.5c-0.7,0.1-2.4-1.7-2.4-2.7
	C102.3,277.5,103.6,276.4,105.1,274.3z"/>
<path d="M112,274.3c1.5,2.1,3,3.3,2.8,4.3c-0.4,1.3-1.5,2.3-2.8,2.7c-0.7,0.1-2.5-1.5-2.6-2.5C109.4,277.8,110.7,276.5,112,274.3z"
	/>
<path d="M123.8,278.5c-2.1,1.5-3.3,3-4.3,2.9c-1.3-0.4-2.4-1.4-2.8-2.8c-0.2-0.7,1.5-2.5,2.5-2.6
	C120.4,275.9,121.6,277.2,123.8,278.5z"/>
<path d="M138.3,278.8c-2.2,1.3-3.5,2.7-4.5,2.5c-1.3-0.5-2.2-1.6-2.5-3c-0.1-0.7,1.7-2.4,2.7-2.4C135,276,136.1,277.3,138.3,278.8z"
	/>
<path d="M145.5,278.9c-2.3,1.3-3.6,2.7-4.6,2.5c-1.3-0.5-2.2-1.7-2.4-3c-0.1-0.7,1.8-2.4,2.7-2.3C142.4,276,143.4,277.4,145.5,278.9
	z"/>
<path d="M167.2,278.9c-2.3,1.3-3.6,2.7-4.6,2.5c-1.3-0.5-2.2-1.7-2.5-3c-0.1-0.7,1.8-2.4,2.8-2.3C164.1,276,165.1,277.4,167.2,278.9
	z"/>
<path d="M169.9,283c-1.3-2.3-2.7-3.6-2.5-4.6c0.5-1.3,1.7-2.2,3-2.5c0.7-0.1,2.4,1.8,2.3,2.7S171.4,280.9,169.9,283z"/>
<path d="M188.9,278.6c-2.1,1.4-3.4,2.9-4.4,2.8c-1.3-0.4-2.3-1.5-2.7-2.8c-0.1-0.7,1.6-2.5,2.5-2.5
	C185.6,275.9,186.7,277.2,188.9,278.6z"/>
<path d="M203.4,278.9c-2.3,1.3-3.6,2.7-4.6,2.5c-1.3-0.5-2.2-1.7-2.5-3c-0.1-0.7,1.8-2.4,2.8-2.3S201.3,277.4,203.4,278.9z"/>
<path d="M206.5,283c-1.5-2.1-3-3.3-2.9-4.3c0.4-1.3,1.4-2.3,2.8-2.7c0.7-0.2,2.6,1.5,2.6,2.5C209.1,279.6,207.8,280.8,206.5,283z"/>
<path d="M232.4,278.5c-2.1,1.5-3.3,3-4.3,2.9c-1.3-0.4-2.4-1.4-2.8-2.8c-0.1-0.7,1.5-2.5,2.5-2.6
	C228.9,275.9,230.1,277.2,232.4,278.5z"/>
<path d="M235.2,283c-1.4-2.2-2.8-3.4-2.7-4.4c0.5-1.3,1.6-2.3,2.9-2.6c0.7-0.1,2.4,1.6,2.5,2.6S236.6,280.9,235.2,283z"/>
<path d="M271.7,274.3c1.3,2.3,2.7,3.6,2.5,4.6c-0.5,1.3-1.7,2.2-3,2.5c-0.7,0.1-2.3-1.8-2.3-2.8S270.1,276.4,271.7,274.3z"/>
<path d="M290.3,278.8c-2.2,1.3-3.5,2.7-4.5,2.5c-1.3-0.5-2.2-1.6-2.5-3c-0.1-0.7,1.7-2.4,2.7-2.4S288.1,277.3,290.3,278.8z"/>
<path d="M97.9,281.5c1.3,2.3,2.7,3.6,2.5,4.6c-0.5,1.3-1.7,2.2-3.1,2.5c-0.7,0.1-2.3-1.8-2.3-2.8S96.4,283.6,97.9,281.5z"/>
<path d="M104.9,290.3c-1.4-2.2-2.8-3.4-2.7-4.4c0.5-1.3,1.6-2.3,2.9-2.6c0.7-0.1,2.4,1.6,2.5,2.6C107.7,287,106.3,288.1,104.9,290.3
	z"/>
<path d="M119.4,281.5c1.4,2.2,2.9,3.4,2.8,4.4c-0.5,1.3-1.5,2.3-2.9,2.7c-0.7,0.1-2.5-1.6-2.5-2.6
	C116.7,284.9,118,283.7,119.4,281.5z"/>
<path d="M131,285.8c-2.1,1.4-3.4,2.9-4.4,2.8c-1.3-0.4-2.3-1.5-2.7-2.8c-0.1-0.7,1.6-2.5,2.5-2.5C127.6,283.2,128.8,284.5,131,285.8
	z"/>
<path d="M145.5,285.8c-2.1,1.5-3.3,3-4.3,2.8c-1.3-0.4-2.3-1.5-2.7-2.8c-0.1-0.7,1.5-2.5,2.5-2.6
	C142.1,283.2,143.3,284.4,145.5,285.8z"/>
<path d="M152.8,285.9c-2.1,1.4-3.4,2.9-4.4,2.7c-1.3-0.4-2.3-1.5-2.7-2.9c-0.1-0.7,1.6-2.5,2.6-2.5
	C149.4,283.2,150.6,284.5,152.8,285.9z"/>
<path d="M170.3,290.3c-1.5-2.1-3-3.3-2.9-4.3c0.4-1.3,1.4-2.4,2.8-2.7c0.7-0.2,2.5,1.5,2.6,2.5C172.9,286.8,171.6,288,170.3,290.3z"
	/>
<path d="M181.7,285.7c-2.1,1.5-3.3,3-4.3,2.9c-1.3-0.4-2.4-1.4-2.8-2.8c-0.1-0.7,1.5-2.5,2.5-2.6
	C178.3,283.1,179.5,284.4,181.7,285.7z"/>
<path d="M203.4,285.9c-2.2,1.4-3.4,2.8-4.4,2.7c-1.3-0.5-2.3-1.6-2.6-2.9c-0.1-0.7,1.6-2.4,2.6-2.5
	C200.1,283.2,201.3,284.5,203.4,285.9z"/>
<path d="M225.1,286c-2.2,1.4-3.5,2.8-4.5,2.6c-1.3-0.5-2.3-1.6-2.6-3c-0.1-0.7,1.7-2.4,2.7-2.4C221.9,283.2,223,284.6,225.1,286z"/>
<path d="M232.4,285.9c-2.2,1.4-3.4,2.8-4.4,2.7c-1.3-0.5-2.3-1.6-2.6-2.9c-0.1-0.7,1.6-2.4,2.6-2.5
	C229.1,283.2,230.2,284.5,232.4,285.9z"/>
<path d="M239.6,286c-2.2,1.3-3.5,2.7-4.5,2.5c-1.3-0.5-2.2-1.6-2.5-3c-0.1-0.7,1.7-2.4,2.7-2.4S237.5,284.6,239.6,286z"/>
<path d="M249.6,290.3c-1.4-2.2-2.8-3.5-2.6-4.5c0.5-1.3,1.6-2.2,3-2.5c0.7-0.1,2.4,1.7,2.4,2.7S251.1,288.1,249.6,290.3z"/>
<path d="M264.2,290.3c-1.4-2.2-2.8-3.4-2.7-4.4c0.5-1.3,1.6-2.3,2.9-2.6c0.7-0.1,2.4,1.6,2.5,2.6C266.9,287,265.6,288.1,264.2,290.3
	z"/>
<path d="M290.3,286c-2.2,1.4-3.5,2.8-4.5,2.6c-1.3-0.5-2.2-1.6-2.5-3c-0.1-0.7,1.7-2.4,2.7-2.4S288.1,284.6,290.3,286z"/>
<path d="M90.6,297.5c-1.4-2.1-2.9-3.4-2.8-4.4c0.4-1.3,1.5-2.3,2.8-2.7c0.7-0.1,2.5,1.6,2.5,2.5C93.2,294.1,91.9,295.3,90.6,297.5z"
	/>
<path d="M112.1,288.8c1.4,2.1,2.9,3.4,2.7,4.4c-0.5,1.3-1.5,2.3-2.9,2.7c-0.7,0.1-2.5-1.6-2.5-2.5
	C109.5,292.1,110.8,291,112.1,288.8z"/>
<path d="M123.8,293.3c-2.2,1.4-3.5,2.8-4.5,2.6c-1.3-0.5-2.3-1.6-2.5-3c-0.1-0.7,1.7-2.4,2.7-2.4
	C120.5,290.5,121.7,291.8,123.8,293.3z"/>
<path d="M138.3,293.3c-2.2,1.4-3.5,2.8-4.5,2.6c-1.3-0.5-2.3-1.6-2.6-3c-0.1-0.7,1.7-2.4,2.7-2.4S136.1,291.8,138.3,293.3z"/>
<path d="M177.6,288.8c1.3,2.3,2.7,3.6,2.4,4.6c-0.5,1.3-1.7,2.2-3.1,2.5c-0.7,0.1-2.3-1.8-2.3-2.8S176.1,290.9,177.6,288.8z"/>
<path d="M188.9,293.3c-2.2,1.4-3.5,2.8-4.5,2.6c-1.3-0.5-2.3-1.6-2.6-3c-0.1-0.7,1.7-2.4,2.7-2.4
	C185.7,290.5,186.8,291.8,188.9,293.3z"/>
<path d="M196.2,293.1c-2.1,1.4-3.4,2.9-4.4,2.7c-1.3-0.5-2.3-1.5-2.7-2.9c-0.1-0.7,1.6-2.5,2.6-2.5
	C192.8,290.4,194,291.7,196.2,293.1z"/>
<path d="M210.7,293.2c-2.2,1.4-3.4,2.8-4.4,2.7c-1.3-0.5-2.3-1.6-2.6-2.9c-0.1-0.7,1.6-2.4,2.6-2.5
	C207.3,290.4,208.5,291.8,210.7,293.2z"/>
<path d="M217.9,293c-2.1,1.5-3.3,3-4.3,2.9c-1.3-0.4-2.3-1.5-2.8-2.8c-0.1-0.7,1.5-2.5,2.5-2.6C214.5,290.4,215.7,291.7,217.9,293z"
	/>
<path d="M228,297.5c-1.4-2.2-2.8-3.4-2.7-4.4c0.5-1.3,1.6-2.3,2.9-2.6c0.7-0.1,2.4,1.6,2.5,2.6C230.7,294.2,229.4,295.4,228,297.5z"
	/>
<path d="M235.5,288.8c1.3,2.3,2.7,3.6,2.5,4.6c-0.5,1.3-1.7,2.2-3.1,2.5c-0.7,0.1-2.4-1.8-2.3-2.8S234,290.9,235.5,288.8z"/>
<path d="M252.6,292.9c2.3-1.3,3.6-2.7,4.6-2.5c1.3,0.5,2.2,1.7,2.5,3c0.1,0.7-1.8,2.4-2.7,2.3C255.8,295.8,254.7,294.4,252.6,292.9z
	"/>
<path d="M286.1,297.5c-1.5-2.1-3-3.3-2.9-4.3c0.4-1.3,1.4-2.3,2.8-2.8c0.7-0.1,2.5,1.5,2.6,2.5C288.7,294.1,287.4,295.3,286.1,297.5
	z"/>
<path d="M297.5,293.3c-2.2,1.4-3.5,2.8-4.5,2.6c-1.3-0.5-2.3-1.6-2.5-3c-0.1-0.7,1.7-2.4,2.7-2.4
	C294.3,290.5,295.4,291.8,297.5,293.3z"/>
<path class="st0" d="M54.5,72.4c-3.6,0-7.2,0.1-10.8,0c-4,0.1-7.3-3.1-7.4-7.2c0-0.1,0-0.1,0-0.2c-0.1-7.1-0.1-14.2,0-21.3
	c-0.1-4,3-7.4,7-7.5c0.2,0,0.4,0,0.6,0c7-0.1,14-0.1,21,0c4-0.2,7.4,2.9,7.6,6.9c0,0.2,0,0.4,0,0.6c0.1,7,0.1,14,0,21
	c0,4.7-3.1,7.6-7.8,7.7C61.2,72.4,57.8,72.4,54.5,72.4z M54.3,43.4c-4.2,0-9.1-0.6-10.1,4.8c-0.8,4.2-0.2,8.6,0.3,12.9
	c0.4,1.4,1.6,2.6,3,3c4.5,0.3,9.1,0.3,13.6,0c1.4-0.4,2.6-1.6,3-3c0.4-4.3,1-8.7,0.3-12.9C63.4,42.9,58.5,43.4,54.3,43.4z"/>
<path class="st0" d="M253.3,54c0-3.3,0-6.5,0-9.8c0-5,3-8,7.9-8c6.9,0,13.7,0,20.6,0c4.6,0,7.7,3.1,7.7,7.8c0,6.9,0,13.7,0,20.6
	c0,4.7-3,7.8-7.7,7.8c-6.9,0.1-13.7,0-20.6,0c-5,0-7.9-3-7.9-8C253.3,60.9,253.3,57.4,253.3,54z M271.1,65.1c4.1,0,9.1,0.8,10.3-4.5
	c0.9-4.1,0.4-8.6,0-12.9c-0.5-1.7-1.8-2.9-3.5-3.4c-4.4-0.4-8.9-0.3-13.3,0.1c-1.4,0.4-2.6,1.6-3,3c-0.4,4.3-1,8.7-0.3,12.9
	C262.3,65.5,267,65.2,271.1,65.1z"/>
<path class="st0" d="M54,289.5c-3.4,0-6.8,0-10.1,0c-4.5-0.1-7.7-3-7.7-7.5c-0.1-7.1-0.1-14.2,0-21.3c-0.1-4,3.1-7.3,7.1-7.4
	c0.1,0,0.2,0,0.3,0c7.1-0.1,14.2-0.1,21.3,0c4-0.1,7.4,3,7.5,7c0,0.2,0,0.4,0,0.6c0.1,7,0.1,14,0,21c0.2,4-2.9,7.4-6.9,7.6
	c-0.2,0-0.4,0-0.6,0C61.2,289.6,57.6,289.5,54,289.5z M65.1,271.1c0.1-3.9,0.5-8.7-4.9-9.7c-4-0.6-8.2-0.6-12.2,0.1
	c-1.4,0.2-3.6,2.2-3.7,3.6c-0.4,4.4-0.3,8.9,0.1,13.3c0.4,1.4,1.6,2.6,3,3c4.3,0.4,8.8,1,12.9,0.3C65.7,280.5,65.2,275.6,65.1,271.1
	L65.1,271.1z"/>
<path d="M54.3,43.4c4.2,0,9.1-0.6,10.1,4.8c0.8,4.2,0.2,8.6-0.3,12.9c-0.4,1.4-1.6,2.6-3,3c-4.5,0.3-9.1,0.3-13.6,0
	c-1.4-0.4-2.6-1.6-3-3c-0.5-4.3-1-8.7-0.3-12.9C45.2,42.9,50.1,43.4,54.3,43.4z"/>
<path d="M271.1,65.1c-4.1,0.1-8.8,0.4-9.8-4.8c-0.7-4.2-0.2-8.6,0.3-12.9c0.4-1.4,1.6-2.6,3-3c4.4-0.4,8.8-0.5,13.3-0.1
	c1.7,0.5,3,1.7,3.5,3.4c0.5,4.3,1,8.8,0,12.9C280.3,66,275.2,65.1,271.1,65.1z"/>
<path d="M65.1,271c0,4.5,0.6,9.5-4.8,10.5c-4.2,0.8-8.6,0.2-12.9-0.3c-1.4-0.4-2.6-1.6-3-3c-0.5-4.4-0.5-8.9-0.1-13.3
	c0.1-1.4,2.3-3.4,3.7-3.6c4-0.7,8.2-0.7,12.2-0.1C65.7,262.4,65.2,267.2,65.1,271z"/>
<path class="st1" d="M346.1,75.8c11.7,0,20.7-0.2,26.9-0.6v6.3c-6.2-0.4-15.3-0.6-27.4-0.6c-12,0-21.1,0.2-27.3,0.6v-6.3
	c5.3,0.4,12.7,0.6,22,0.6V45.6c0-8.7-0.2-14-0.5-15.7c2.4,0.4,4.8,0.6,7.2,0.6c0.6,0,0.9,0.1,0.9,0.4s-0.2,0.6-0.6,0.9
	c-0.5,0.5-0.9,1.2-0.9,2c-0.2,1.2-0.4,2.5-0.4,3.7v8.2h8.3c5.2,0,9.6-0.2,13.2-0.5v6.2c-4.4-0.4-8.8-0.6-13.2-0.5h-8.3L346.1,75.8z"
	/>
<path class="st1" d="M392.7,64.2c-0.8,1.9-1.7,4.7-2.9,8.2s-2,5.9-2.3,7.1s-0.8,2.9-1.3,5.2c-1.8-1.7-3.8-3.1-6-4.2
	c1.3-1.8,2.8-5.1,4.5-9.8c1.3-3.4,2.4-6.8,3.3-10.3C389.2,62.1,390.8,63.4,392.7,64.2z M393.5,51l-3.3,4.6c-2.9-2.5-6.2-4.5-9.7-6
	l3-4.4C388.3,48,391.6,49.9,393.5,51z M396.8,37.1l-3.9,3.8c-2.6-3-5.7-5.6-9.2-7.6l3.9-3.8C390.8,32.1,393.9,34.6,396.8,37.1z
	 M401.7,45c-1.4,1.9-2.6,3.3-3.4,4.4c-1.3-1.1-2.9-1.8-4.6-2c2.7-2.8,5.1-5.9,7.1-9.3c2.1-3.2,3.9-6.7,5.2-10.4c2,1,4.2,1.6,6.4,2.1
	c0.4,0.1,0.6,0.3,0.6,0.6s-0.3,0.5-0.8,0.6c-0.6,0.1-1.1,0.4-1.4,0.8c-0.8,0.9-1.5,1.9-2.2,3h17.1c3.1,0.1,6.1-0.2,9.1-0.7v5.1
	c-2.5-0.2-5.5-0.3-9.1-0.3h-19.8c-1.1,1.8-2.4,3.6-3.8,5.6h14.8c5.6,0,10.1-0.2,13.7-0.5l-1.1,14.5c2.1,0,4.3-0.1,6.4-0.4v4.7
	c-2.2-0.3-4.4-0.4-6.7-0.4L428.5,73c1.7,0,3.4-0.1,5.1-0.4v5.1c-1.8-0.3-3.6-0.5-5.4-0.5c-0.1,3.6-0.8,5.8-2.2,6.8s-3.9,1.7-7.5,2.3
	c-0.3-2-1.3-3.9-2.8-5.3c2.7,0.1,4.6-0.1,5.7-0.7c1.2-0.7,1.9-1.9,1.9-3.3h-15c-3.7,0-7.1,0.2-10,0.4l1.6-15.2
	c-2.4,0.1-4.3,0.2-5.8,0.4v-4.7c1,0.1,3.1,0.3,6.2,0.4L401.7,45z M424.5,62.4h-19.7l-1.3,10.7h20.2L424.5,62.4z M405.2,58.5h19.6
	l0.8-10.3h-19.2L405.2,58.5z M417.8,70.8l-4.9,1.2c-0.1-1.1-0.3-2.2-0.8-3.3c-0.4-1.3-0.9-2.5-1.6-3.7l4.7-1.2
	C416.5,67,417.4,69.4,417.8,70.8L417.8,70.8z M419.2,56.3l-5.1,0.9c-0.4-2.1-1.1-4.1-2.2-5.9l4.7-1.2
	C417.7,52.1,418.6,54.2,419.2,56.3L419.2,56.3z"/>
<path class="st1" d="M327.5,134.5c-3.1,1.8-6,3.6-8.6,5.5c-0.3-1.8-1-3.6-2-5.2c3.8-1.4,7.4-3.2,10.9-5.2c0.1-5.4,0-12.4-0.4-20.9
	c2.7,0.4,9.4,0.6,20.2,0.6c-0.5-1.8-1.2-3.6-1.9-5.3l5.9-1.5c0.6,1.9,1.3,4.2,2.1,6.8c10.4,0,16.9-0.2,19.5-0.6v5.9
	c-3.6-0.4-11.2-0.6-22.7-0.6H333c0,11.5-0.3,19.7-1,24.6c-0.5,4.2-1.5,8.3-3,12.2c-1.4,3.4-3.1,6.7-5,9.9c-1.5-1.5-3.2-2.8-5.1-3.9
	c2.6-3,4.6-6.4,6.1-10.1C326.4,142.7,327.2,138.6,327.5,134.5z M324.5,126.6l-5.2,0.2c0.1-1.2,0.1-2.8,0.1-4.6
	c-0.1-2.5-0.3-5-0.8-7.4l4.9-0.4C323.9,118.2,324.2,122.3,324.5,126.6L324.5,126.6z M340.3,140.3c-1.8,0.1-3.1,0.2-4,0.3v-5.2
	c4.8,0.5,9.6,0.6,14.5,0.6c6.7,0,12.5-0.2,17.2-0.6c-2.3,6.5-6.6,12.1-12.1,16.1c3.8,1.7,8,2.5,12.2,2.4c2,0,3.9-0.1,5.9-0.4
	c-1.7,2-2.8,4.4-3.1,7c-9.1-1.5-15.6-3.5-19.5-6.1c-5.5,2.7-11.4,4.7-17.5,5.8c-0.6-2-1.8-3.8-3.3-5.3c5.8-0.3,11.5-1.5,16.9-3.7
	C344.3,148,341.9,144.3,340.3,140.3L340.3,140.3z M370.5,127.2c-0.8,1.7-1.2,3.7-1,5.6c-1.4,0-3,0.1-4.8,0.1c-1.7,0-3.4-0.2-5-0.5
	c-1.5-0.2-2.6-1.7-2.3-3.2c0,0,0,0,0,0l0.2-6.2h-10.9c0.1,2.6-0.5,5.1-1.7,7.5c-1.3,2.1-3.1,3.8-5.3,5c-1.2-1.5-2.8-2.8-4.6-3.6
	c2.1-0.5,3.9-1.6,5.3-3.3c1-1.4,1.6-3.8,1.6-7.2c0-1,0-2.1-0.1-3.4c3.4,0.3,6.8,0.4,10.3,0.4c4.8,0,8.4-0.1,10.8-0.4
	c-0.4,1.5-0.7,3-0.8,4.5c-0.2,2.1-0.3,3.5-0.3,4.1c0,1.1,0.8,1.6,2.3,1.6C366.4,128.1,368.5,127.7,370.5,127.2L370.5,127.2z
	 M345.2,140.2c1.5,3.3,3.6,6.3,6.4,8.7c3.5-2.2,6.4-5.2,8.4-8.7H345.2z"/>
<path class="st1" d="M386.1,117.9c-0.6,4.6-1.2,9.5-1.8,14.6l-5.5-0.4c1.5-4.6,2.2-9.4,2.2-14.2H386.1z M387.6,104.5
	c2,0.3,4,0.5,6,0.5c0.9,0,1.3,0.2,1.3,0.4s-0.3,0.6-1,1.1s-1,1.5-1,3.3v39.7c0,3,0.2,6.4,0.5,10.2h-5.8c0.3-3.3,0.4-6.7,0.4-10.2
	v-36.6C388.1,110,388,107.2,387.6,104.5z M401,122l-4,2.2c-0.7-2.4-1.8-4.8-3.3-6.8l3.7-2.1C398.8,117.5,400,119.7,401,122z
	 M418.6,117.4c5.8-0.1,10.1-0.3,12.9-0.6v4.8c-2.8-0.3-7-0.5-12.9-0.6v4c5.8,0.1,11.7-0.1,17.5-0.6v4.9c-6.1-0.5-12.2-0.7-18.3-0.6
	c-6.1-0.1-12.1,0.1-18.2,0.6v-4.9c4.7,0.5,9.5,0.7,14.2,0.6v-4c-3.8,0-7.6,0.2-11.4,0.6v-4.8c3.8,0.4,7.6,0.6,11.4,0.6v-4
	c-4.3,0-8.6,0.2-12.9,0.6v-5c4.3,0.4,8.6,0.6,12.9,0.6c0-2,0-4-0.2-5.9c1.1,0.2,2.1,0.3,3.2,0.3l2.2-0.1c0.3,0,0.5,0.1,0.5,0.3
	s-0.2,0.4-0.5,0.8c-0.4,0.6-0.6,1.4-0.5,2.1v2.6c5.1,0.1,10.2-0.1,15.3-0.6v5c-5.1-0.5-10.2-0.7-15.3-0.6L418.6,117.4z M407.3,150.1
	v9.7H402c0.3-3.5,0.4-6.5,0.4-8.9v-13.4c0-2.4-0.1-4.2-0.2-5.3c2.7,0.1,7.5,0.2,14.5,0.2c7,0,11.7-0.1,14.1-0.2
	c-0.1,1.5-0.1,3.2-0.1,5.3v15.5c0,2.8-0.2,4.4-0.6,5.1c-0.4,0.7-1.1,1.2-1.9,1.5c-2.2,0.5-4.4,0.7-6.6,0.8c-0.1-1.8-0.7-3.6-1.8-5
	c1,0,1.8,0.1,2.4,0.1c1.5,0,2.5-0.2,2.9-0.7c0.5-0.9,0.7-1.9,0.6-2.9v-1.8L407.3,150.1z M425.7,139.7V136h-18.4v3.7L425.7,139.7z
	 M407.3,143.1v3.5h18.4v-3.5H407.3z"/>
<text transform="matrix(1 0 0 1 136.15 377.1)" class="st1 st2 st3">扫一扫加入</text>
<text transform="matrix(1 0 0 1 316.8701 332.5471)" class="st1 st2 st4">写写</text>
<text transform="matrix(1 0 0 1 316.8701 405.1429)" class="st1 st2 st4">画画</text>
<polygon class="st1" points="417,170.7 425.9,181.1 375.1,223.4 368.6,216.1 "/>
<path class="st1" d="M363.5,222.9l7.6,8.6l-3.2,8c-2.4,5.9-7,10.5-12.8,13l-13.4,5.6C341.7,258.1,340.8,224.6,363.5,222.9z"/>
<g>
	<defs>
		<rect id="SVGID_1_" x="32" y="324.6" width="88.4" height="88.4"/>
	</defs>
	<clipPath id="SVGID_2_">
		<use xlink:href="#SVGID_1_"  style="overflow:visible;"/>
	</clipPath>
	<g class="st5">
		<g>
			<defs>
				<rect id="SVGID_3_" x="32" y="324.6" width="88.4" height="88.4"/>
			</defs>
			<clipPath id="SVGID_4_">
				<use xlink:href="#SVGID_3_"  style="overflow:visible;"/>
			</clipPath>
			<g class="st6">
				<path class="st1" d="M32,366.4c0.3,0,0.6,0,0.9,0h86.6h1v5H32V366.4z"/>
				<path class="st1" d="M32,378.8h4.9v1.1c0,6.9,0,13.8,0,20.7c-0.2,3.6,2.3,6.7,5.9,7.5c0.7,0.1,1.3,0.2,2,0.2h21.7v4.9h-26
					c-0.2-0.1-0.4-0.2-0.7-0.2c-2.8-0.6-5.2-2.3-6.6-4.9c-0.5-1.1-0.9-2.3-1.3-3.4V378.8z"/>
				<path class="st1" d="M66.3,324.6v5h-0.9c-6.9,0-13.8,0-20.8,0c-3.8-0.2-7.1,2.5-7.7,6.2c-0.1,0.6-0.1,1.1-0.1,1.7
					c0,6.8,0,13.7,0,20.5v1.1H32v-25.8c0.1-0.1,0.1-0.3,0.2-0.4c0.7-4,3.8-7.2,7.8-8c0.6-0.1,1.3-0.2,1.9-0.3L66.3,324.6z"/>
				<path class="st1" d="M120.4,359.1h-4.8v-1.9c0-6.5,0-13,0-19.5c0.1-1.8-0.4-3.6-1.5-5.1c-1.4-2-3.8-3.1-6.2-3H86.1v-5h24.8
					c0.2,0.1,0.4,0.1,0.6,0.1c2.8,0.1,5.3,1.5,6.9,3.8c0.8,1.4,1.5,2.8,2,4.3L120.4,359.1z"/>
				<path class="st1" d="M86.1,413.1v-4.9h1.1c6.8,0,13.6-0.1,20.4,0c4.2,0.2,7.8-3.1,8-7.4c0-0.2,0-0.4,0-0.6
					c-0.1-7.1,0-14.2,0-21.4h4.8v26.2c-0.1,0.3-0.2,0.5-0.3,0.8c-0.6,2.4-2.1,4.5-4.2,5.7c-1.3,0.6-2.6,1.2-4,1.6L86.1,413.1z"/>
			</g>
		</g>
	</g>
</g>
</svg>
