<?xml version="1.0" encoding="utf-8"?>
<!-- Generator: Adobe Illustrator 25.0.0, SVG Export Plug-In . SVG Version: 6.00 Build 0)  -->
<svg version="1.1" id="图层_1" xmlns="http://www.w3.org/2000/svg" xmlns:xlink="http://www.w3.org/1999/xlink" x="0px" y="0px"
	 viewBox="0 0 200 200" style="enable-background:new 0 0 200 200;" xml:space="preserve">
<style type="text/css">
	.st0{fill:#FFFFFF;}
</style>
<path class="st0" d="M159.1,25c5.5,0,10,4.5,10,10v0v129.8c0,5.5-4.5,10-10,10H39.3c-5.5,0-10-4.5-10-10V35c0-5.5,4.5-10,10-10
	H159.1L159.1,25z M64.3,84.9c-5.5,0-10-4.5-10-10c0,0,0,0,0,0V35h-15v129.9h119.9V35h-15v39.9c0,5.5-4.5,10-10,10H64.3z M64.3,74.9
	h69.9V35H64.3V74.9z M134.2,114.9c2.8-0.1,5.1,2,5.2,4.8c0.1,2.8-2,5.1-4.8,5.2c-0.1,0-0.3,0-0.4,0H64.3c-2.8,0-5-2.2-5-5
	c0-2.8,2.2-5,5-5H134.2z"/>
</svg>
